<svg width="40" height="44" viewBox="0 0 40 44" version="1.1" xmlns="http://www.w3.org/2000/svg" xmlns:xlink="http://www.w3.org/1999/xlink">
<title>Vector</title>
<desc>Created using Figma</desc>
<g id="Canvas" transform="translate(-1569 -174)">
<g id="Vector">
<g id="Vector">
<use xlink:href="#path0_fill" transform="translate(1571.18 176.476)" fill="#FFFFFF" fill-opacity="0.5"/>
<mask id="mask0_outline_out">
<rect id="mask0_outline_inv" fill="white" x="-2" y="-3" width="40" height="45" transform="translate(1571.18 176.476)"/>
<use xlink:href="#path0_fill" fill="black" transform="translate(1571.18 176.476)"/>
</mask>
<g mask="url(#mask0_outline_out)">
<use xlink:href="#path1_stroke_2x" transform="translate(1571.18 176.476)" fill="#FFFFFF"/>
</g>
</g>
</g>
</g>
<defs>
<path id="path0_fill" d="M 3.63078 6.54114C 2.60576 9.36733 -0.290435 12.0422 0.397496 21.2153C 0.892805 23.7046 -1.93459 27.4041 2.76398 28.7794C 3.85091 28.965 4.71774 30.7254 9.42318 31.6537C 15.1833 33.7415 20.8136 36.1709 26.2843 38.9289C 30.577 40.8199 31.1618 37.6705 32.1593 35.1744C 32.8472 33.5103 33.6796 32.0044 34.794 31.1861C 35.4819 30.9317 35.592 28.9444 35.3994 26.9227C 35.1938 25.8084 35.1705 24.6682 35.3306 23.5464C 35.4957 22.2674 35.9635 21.4216 33.5145 20.7959C 31.9529 20.5415 30.4807 19.3381 29.0842 17.3921C 28.2621 16.5303 27.2087 15.9238 26.0504 15.6455C 23.6496 14.669 23.9523 13.3831 23.395 11.8428C 23.1405 10.33 22.4181 10.0275 20.6914 9.99996C 17.0316 10.165 16.8184 8.22586 15.3256 7.31817C 13.4338 5.61971 10.5651 5.9429 10.1042 2.05087C 9.75338 0.379907 8.55637 -0.135823 7.64831 0.0292099C 6.96038 -0.0189247 6.63016 1.3426 5.92159 2.51846C 5.06168 5.17274 4.31183 5.03521 3.63078 6.54114Z"/>
<path id="path1_stroke_2x" d="M 3.63078 6.54114L 1.80847 5.71701L 1.77681 5.78701L 1.75061 5.85924L 3.63078 6.54114ZM 0.397496 21.2153L -1.5969 21.3649L -1.5878 21.4863L -1.56405 21.6056L 0.397496 21.2153ZM 2.76398 28.7794L 2.20215 30.6988L 2.31318 30.7313L 2.42723 30.7508L 2.76398 28.7794ZM 9.42318 31.6537L 10.1047 29.7734L 9.96064 29.7212L 9.81028 29.6915L 9.42318 31.6537ZM 26.2843 38.9289L 25.384 40.7148L 25.4304 40.7382L 25.478 40.7592L 26.2843 38.9289ZM 32.1593 35.1744L 30.311 34.4103L 30.3064 34.4212L 30.3021 34.4322L 32.1593 35.1744ZM 34.794 31.1861L 34.1002 29.3103L 33.8368 29.4077L 33.6103 29.574L 34.794 31.1861ZM 35.3994 26.9227L 37.3904 26.733L 37.3821 26.6459L 37.3662 26.5598L 35.3994 26.9227ZM 35.3306 23.5464L 37.3105 23.829L 37.3124 23.8157L 37.3141 23.8025L 35.3306 23.5464ZM 33.5145 20.7959L 34.0096 18.8581L 33.9236 18.8362L 33.8361 18.8219L 33.5145 20.7959ZM 29.0842 17.3921L 30.7091 16.226L 30.6277 16.1126L 30.5314 16.0116L 29.0842 17.3921ZM 26.0504 15.6455L 25.297 17.4981L 25.4366 17.5549L 25.5832 17.5901L 26.0504 15.6455ZM 23.395 11.8428L 21.4228 12.1747L 21.4528 12.3531L 21.5143 12.5232L 23.395 11.8428ZM 20.6914 9.99996L 20.7233 8.00022L 20.6623 7.99924L 20.6013 8.00199L 20.6914 9.99996ZM 15.3256 7.31817L 13.9895 8.80639L 14.1277 8.93053L 14.2865 9.02707L 15.3256 7.31817ZM 10.1042 2.05087L 12.0903 1.81566L 12.0799 1.72714L 12.0615 1.6399L 10.1042 2.05087ZM 7.64831 0.0292099L 7.50871 2.02433L 7.75903 2.04185L 8.00593 1.99698L 7.64831 0.0292099ZM 5.92159 2.51846L 4.20857 1.4862L 4.08985 1.68322L 4.01895 1.90206L 5.92159 2.51846ZM 1.75061 5.85924C 1.34761 7.0243 0.363459 8.40695 -0.513986 10.8319C -1.38362 13.2934 -1.95897 16.537 -1.5969 21.3649L 2.3919 21.0658C 2.06603 16.7206 2.59481 14.0402 3.25755 12.1644C 3.91247 10.2521 4.88892 8.88417 5.51094 7.22305L 1.75061 5.85924ZM -1.56405 21.6056C -1.4772 21.9145 -1.54185 22.2488 -1.65629 22.9191C -1.7702 23.5929 -1.95052 24.4574 -1.99381 25.3333C -2.0212 26.2302 -1.77889 27.5305 -1.15943 28.5105C -0.411109 29.5848 0.755894 30.2755 2.20215 30.6988L 3.32581 26.8599C 2.42278 26.5956 2.18124 26.3081 2.12275 26.2242C 1.9354 26.0459 1.97262 26.0079 2.00284 25.4969C 2.01717 24.9648 2.15717 24.3517 2.28725 23.5888C 2.41681 22.8224 2.51985 21.7608 2.35904 20.825L -1.56405 21.6056ZM 2.42723 30.7508C 2.24728 30.7201 2.20045 30.6455 2.48985 30.839C 2.75501 31.0154 3.14296 31.3031 3.6879 31.641C 4.7172 32.2718 6.43721 33.0866 9.03607 33.6159L 9.81028 29.6915C 7.70371 29.2924 6.63758 28.7629 5.78537 28.235C 5.38956 27.9936 5.06291 27.7484 4.7128 27.5135C 4.38692 27.2957 3.82414 26.9315 3.10073 26.8079L 2.42723 30.7508ZM 8.74163 33.534C 14.446 35.6007 19.9669 37.9828 25.384 40.7148L 27.1846 37.143C 21.6603 34.359 15.9205 31.8824 10.1047 29.7734L 8.74163 33.534ZM 25.478 40.7592C 26.7299 41.3106 27.9325 41.5966 29.0747 41.4808C 30.1642 41.3251 31.2996 40.6929 31.9179 40.0633C 32.4897 39.4263 32.9678 38.5563 33.2647 37.8624C 33.5559 37.1738 33.7871 36.4885 34.0165 35.9166L 30.3021 34.4322C 30.0327 35.1083 29.8168 35.7528 29.5835 36.2976C 29.3561 36.8372 29.2327 37.1043 28.9971 37.3304C 28.8079 37.5637 28.9299 37.5203 28.6713 37.5012C 28.4653 37.5221 27.985 37.4926 27.0906 37.0986L 25.478 40.7592ZM 34.0075 35.9385C 34.6828 34.3051 35.3437 33.2637 35.9777 32.7982L 33.6103 29.574C 32.0154 30.745 31.0116 32.7155 30.311 34.4103L 34.0075 35.9385ZM 35.4878 33.0619C 36.4488 32.7065 36.8778 31.8911 37.0563 31.4559C 37.2202 31.0355 37.3557 30.4324 37.4139 29.9446C 37.5141 29.0291 37.4924 27.818 37.3904 26.733L 33.4084 27.1124C 33.499 28.0491 33.5185 28.8425 33.4399 29.4897C 33.4232 29.6396 33.4111 29.7172 33.3866 29.8232C 33.3667 29.9182 33.3386 29.9727 33.3555 29.9379C 33.3585 29.9283 33.3873 29.8732 33.3839 29.8817C 33.4021 29.8496 33.4345 29.7982 33.4854 29.7367C 33.5878 29.6131 33.7857 29.4266 34.1002 29.3103L 35.4878 33.0619ZM 37.3662 26.5598C 37.1835 25.6059 37.1669 24.7895 37.3105 23.829L 33.3507 23.2639C 33.1742 24.5469 33.204 26.0109 33.4326 27.2857L 37.3662 26.5598ZM 37.3141 23.8025C 37.3445 23.5564 37.4082 23.2423 37.4495 22.8781C 37.4874 22.4923 37.4531 21.7838 37.2755 21.2241C 36.7279 19.7635 35.2941 19.1863 34.0096 18.8581L 33.0193 22.7336C 33.538 22.8662 33.7426 22.9731 33.7904 23.0031C 33.8041 23.0117 33.7614 22.9872 33.7001 22.9168C 33.6343 22.8411 33.5728 22.7421 33.5301 22.6283C 33.4514 22.4184 33.4892 22.2936 33.4723 22.4521C 33.4639 22.5364 33.4495 22.6233 33.4262 22.7664C 33.403 22.9099 33.3726 23.095 33.3471 23.2904L 37.3141 23.8025ZM 33.8361 18.8219C 33.0658 18.6964 32.0005 18.0256 30.7091 16.226L 27.4593 18.5581C 28.9609 20.6506 30.8399 22.3865 33.1928 22.7698L 33.8361 18.8219ZM 30.5314 16.0116C 29.4973 14.9573 27.9489 14.0658 26.5177 13.7008L 25.5832 17.5901C 26.4686 17.7818 27.0269 18.1032 27.637 18.7725L 30.5314 16.0116ZM 26.8039 13.7928C 25.9715 13.4543 25.8861 13.2015 25.8467 13.1163C 25.7653 12.9579 25.7318 12.8035 25.6485 12.4676C 25.5647 12.1303 25.4523 11.6609 25.2758 11.1625L 21.5143 12.5232C 21.6164 12.7949 21.6751 13.0638 21.7663 13.4314C 21.858 13.8003 22.0033 14.3172 22.216 14.7949C 22.7648 15.9819 23.7285 16.8602 25.297 17.4981L 26.8039 13.7928ZM 25.3673 11.511C 25.1953 10.4886 24.777 9.37088 23.6568 8.66935C 22.7102 8.07656 21.58 8.01386 20.7233 8.00022L 20.6596 11.9997C 21.0491 12.0059 21.2958 12.0274 21.4567 12.0559C 21.6128 12.0837 21.6057 12.1045 21.5338 12.0595C 21.438 11.9995 21.3727 11.9161 21.3484 11.8712C 21.3392 11.8541 21.3807 11.9249 21.4228 12.1747L 25.3673 11.511ZM 20.6013 8.00199C 19.2 8.06519 18.7372 7.74096 18.4716 7.52106C 18.2435 7.34059 18.0505 7.10969 17.7396 6.77692C 17.4274 6.44371 16.9318 5.97037 16.3647 5.60928L 14.2865 9.02707C 14.4658 9.11982 14.5567 9.22925 14.8187 9.50976C 15.082 9.79071 15.4509 10.2045 15.9201 10.6016C 17.0494 11.5369 18.5231 12.0998 20.7815 11.9979L 20.6013 8.00199ZM 16.6617 5.82996C 16.0155 5.26637 15.2515 4.82617 14.6663 4.5348C 14.0799 4.24411 13.6079 4.04235 13.2213 3.80056C 12.684 3.47223 12.2421 3.09729 12.0903 1.81566L 8.1181 2.28607C 8.42724 4.89648 9.65013 6.30596 11.1354 7.21365C 11.7599 7.58987 12.3887 7.86904 12.8866 8.11706C 13.3858 8.36442 13.6898 8.52075 13.9895 8.80639L 16.6617 5.82996ZM 12.0615 1.6399C 11.4997 -1.03602 9.31945 -2.30727 7.29068 -1.93856L 8.00593 1.99698C 7.95936 2.00544 7.94238 1.99286 7.94424 1.99415C 7.94557 1.99507 7.95138 1.99925 7.96087 2.00925C 7.97034 2.01925 7.98586 2.03758 8.00492 2.06804C 8.04231 2.12776 8.10211 2.2485 8.1469 2.46184L 12.0615 1.6399ZM 7.7879 -1.96591C 6.84623 -2.0318 6.16184 -1.57118 5.77129 -1.17929C 5.48602 -0.875893 5.19268 -0.431853 5.02859 -0.127475C 4.72572 0.445049 4.48864 1.03288 4.20857 1.4862L 7.63462 3.55072C 7.85013 3.19021 8.04611 2.80323 8.19405 2.4975C 8.3426 2.19019 8.45428 1.94734 8.55679 1.75715C 8.66593 1.55283 8.6819 1.56668 8.60457 1.64427C 8.49156 1.75768 8.10642 2.06615 7.50871 2.02433L 7.7879 -1.96591ZM 4.01895 1.90206C 3.65738 3.01812 3.36217 3.43641 3.13412 3.72779C 2.84657 4.10358 2.33917 4.63227 1.80847 5.71701L 5.45308 7.36527C 5.60344 6.94409 5.81149 6.78858 6.2841 6.19308C 6.81623 5.51317 7.3259 4.67308 7.82424 3.13486L 4.01895 1.90206Z"/>
</defs>
</svg>
