<svg width="56" height="72" viewBox="0 0 56 72" version="1.1" xmlns="http://www.w3.org/2000/svg" xmlns:xlink="http://www.w3.org/1999/xlink">
<title>Component</title>
<desc>Created using Figma</desc>
<g id="Canvas" transform="translate(-1552 -330)">
<g id="Component">
<g id="Vector">
<use xlink:href="#path0_fill" transform="translate(1554.27 332.788)" fill="#FFFFFF" fill-opacity="0.5"/>
<mask id="mask0_outline_out">
<rect id="mask0_outline_inv" fill="white" x="-3" y="-2" width="57" height="71" transform="translate(1554.27 332.788)"/>
<use xlink:href="#path0_fill" fill="black" transform="translate(1554.27 332.788)"/>
</mask>
<g mask="url(#mask0_outline_out)">
<use xlink:href="#path1_stroke_2x" transform="translate(1554.27 332.788)" fill="#FFFFFF"/>
</g>
</g>
<g id="Vector">
<use xlink:href="#path2_fill" transform="translate(1554.6 356.26)" fill="#FFFFFF" fill-opacity="0.5"/>
<mask id="mask1_outline_out">
<rect id="mask1_outline_inv" fill="white" x="-2" y="-4" width="19" height="33" transform="translate(1554.6 356.26)"/>
<use xlink:href="#path2_fill" fill="black" transform="translate(1554.6 356.26)"/>
</mask>
<g mask="url(#mask1_outline_out)">
<use xlink:href="#path3_stroke_2x" transform="translate(1554.6 356.26)" fill="#FFFFFF"/>
</g>
</g>
</g>
</g>
<defs>
<path id="path0_fill" d="M 42.6079 18.2881C 42.0156 20.651 42.2586 23.1459 43.2958 25.3502C 48.8543 33.8769 48.9712 37.9683 47.9462 40.1206C 46.9169 41.9958 46.3486 44.0888 46.2883 46.2268C 46.2811 47.1993 46.392 48.1691 46.6185 49.1149C 47.6915 50.2599 48.5887 51.5576 49.2808 52.9657C 50.7554 56.0488 51.2362 59.5135 50.6567 62.8814C 46.8455 67.131 43.0894 70.4867 41.0256 57.0709C 37.6617 57.2564 34.4373 58.4765 31.7936 60.5641L 30.6379 59.4295L 28.3746 58.398L 27.4184 58.2536L 26.6204 58.9825L 24.3846 57.8204L 24.2264 58.8381L 23.5866 59.7046L 22.4721 59.4158L 21.0344 58.8381L 20.7179 57.676L 21.5159 56.8027L 20.7179 55.6475L 20.0782 53.1789L 20.7179 51.7279L 22.4721 50.8615L 24.0681 51.1503L 24.8662 50.7171L 25.5059 49.9882L 26.9437 49.3006L 26.7786 48.5717L 25.1826 47.3958L 24.2264 46.9557L 24.5497 46.0893L 25.1826 45.0716L 24.7079 44.494L 23.4284 44.3496L 21.9906 44.494L 20.2364 44.0608C 19.4033 43.1213 18.5216 42.2262 17.5947 41.379C 17.8011 40.5126 17.5947 39.3917 17.3195 37.5557C 17.1305 35.9933 16.6818 34.4733 15.9918 33.0586C 14.616 30.3768 13.3846 30.4249 12.9994 28.5614C 12.6141 26.6979 13.7286 26.0584 13.6873 24.0711C 13.646 22.7509 13.0957 20.9011 10.7429 18.7007C 8.22511 18.0612 6.67039 18.4463 5.71417 18.9345C 4.48278 19.5534 4.00124 20.4404 2.72169 20.5367C 1.66228 20.6123 0.320813 20.131 0.05252 19.3677C -0.153859 18.8038 -0.0300279 17.3048 5.81738 13.6466C 16.8931 5.48431 28.4434 -5.38037 36.5885 3.05007C 36.6985 3.27699 37.7304 5.278 39.6016 5.44304C 40.4235 5.4694 41.2341 5.24647 41.9268 4.80354C 43.4884 3.94399 43.4059 3.01569 44.252 2.87816C 45.4353 2.68562 45.9787 4.41846 48.5722 6.08942C 50.5741 7.3753 51.324 7.03149 51.5647 7.69163C 52.3215 9.80955 44.3346 12.3744 42.6079 18.2881Z"/>
<path id="path1_stroke_2x" d="M 42.6079 18.2881L 40.688 17.7276L 40.6772 17.7645L 40.6679 17.8019L 42.6079 18.2881ZM 43.2958 25.3502L 41.4861 26.2016L 41.5449 26.3266L 41.6204 26.4424L 43.2958 25.3502ZM 47.9462 40.1206L 49.6995 41.083L 49.7271 41.0325L 49.7519 40.9806L 47.9462 40.1206ZM 46.2883 46.2268L 44.2891 46.1704L 44.2885 46.1912L 44.2883 46.212L 46.2883 46.2268ZM 46.6185 49.1149L 44.6735 49.5808L 44.7969 50.096L 45.1591 50.4825L 46.6185 49.1149ZM 49.2808 52.9657L 51.085 52.1028L 51.0804 52.0931L 51.0757 52.0834L 49.2808 52.9657ZM 50.6567 62.8814L 52.1456 64.2168L 52.53 63.7881L 52.6277 63.2206L 50.6567 62.8814ZM 41.0256 57.0709L 43.0024 56.7668L 42.7266 54.9741L 40.9155 55.0739L 41.0256 57.0709ZM 31.7936 60.5641L 30.3925 61.9913L 31.6501 63.2258L 33.0331 62.1337L 31.7936 60.5641ZM 30.6379 59.4295L 32.039 58.0023L 31.7877 57.7556L 31.4673 57.6096L 30.6379 59.4295ZM 28.3746 58.398L 29.204 56.5781L 28.9496 56.4622L 28.6732 56.4205L 28.3746 58.398ZM 27.4184 58.2536L 27.717 56.2761L 26.7738 56.1336L 26.0695 56.777L 27.4184 58.2536ZM 26.6204 58.9825L 25.698 60.7571L 26.9377 61.4015L 27.9692 60.4592L 26.6204 58.9825ZM 24.3846 57.8204L 25.307 56.0458L 22.8361 54.7615L 22.4083 57.5132L 24.3846 57.8204ZM 24.2264 58.8381L 25.8353 60.0262L 26.1272 59.6309L 26.2027 59.1454L 24.2264 58.8381ZM 23.5866 59.7046L 23.0849 61.6406L 24.3928 61.9795L 25.1954 60.8926L 23.5866 59.7046ZM 22.4721 59.4158L 21.7266 61.2716L 21.8459 61.3195L 21.9704 61.3518L 22.4721 59.4158ZM 21.0344 58.8381L 19.1047 59.3636L 19.366 60.3232L 20.2888 60.694L 21.0344 58.8381ZM 20.7179 57.676L 19.2415 56.3269L 18.499 57.1395L 18.7882 58.2015L 20.7179 57.676ZM 21.5159 56.8027L 22.9924 58.1519L 24.0666 56.9763L 23.1615 55.666L 21.5159 56.8027ZM 20.7179 55.6475L 18.7819 56.1492L 18.8708 56.4925L 19.0724 56.7842L 20.7179 55.6475ZM 20.0782 53.1789L 18.2482 52.372L 17.9678 53.0079L 18.1421 53.6806L 20.0782 53.1789ZM 20.7179 51.7279L 19.8323 49.9347L 19.181 50.2564L 18.8879 50.921L 20.7179 51.7279ZM 22.4721 50.8615L 22.8283 48.8935L 22.1785 48.7759L 21.5865 49.0683L 22.4721 50.8615ZM 24.0681 51.1503L 23.712 53.1184L 24.4042 53.2436L 25.0223 52.908L 24.0681 51.1503ZM 24.8662 50.7171L 25.8204 52.4748L 26.1339 52.3046L 26.3693 52.0364L 24.8662 50.7171ZM 25.5059 49.9882L 24.643 48.184L 24.2732 48.3608L 24.0028 48.6689L 25.5059 49.9882ZM 26.9437 49.3006L 27.8066 51.1048L 29.247 50.416L 28.8943 48.8588L 26.9437 49.3006ZM 26.7786 48.5717L 28.7292 48.1299L 28.5646 47.4034L 27.9649 46.9615L 26.7786 48.5717ZM 25.1826 47.3958L 26.3689 45.7857L 26.2044 45.6645L 26.0188 45.579L 25.1826 47.3958ZM 24.2264 46.9557L 22.3526 46.2565L 21.7034 47.9962L 23.3902 48.7725L 24.2264 46.9557ZM 24.5497 46.0893L 22.8513 45.0332L 22.7458 45.2029L 22.6759 45.3901L 24.5497 46.0893ZM 25.1826 45.0716L 26.881 46.1278L 27.6384 44.9099L 26.7278 43.8018L 25.1826 45.0716ZM 24.7079 44.494L 26.2531 43.2242L 25.7381 42.5976L 24.9322 42.5066L 24.7079 44.494ZM 23.4284 44.3496L 23.6526 42.3622L 23.4407 42.3383L 23.2285 42.3596L 23.4284 44.3496ZM 21.9906 44.494L 21.5111 46.4357L 21.8466 46.5185L 22.1905 46.484L 21.9906 44.494ZM 20.2364 44.0608L 18.74 45.3877L 19.1528 45.8533L 19.7569 46.0025L 20.2364 44.0608ZM 17.5947 41.379L 15.6492 40.9156L 15.3764 42.0609L 16.2454 42.8552L 17.5947 41.379ZM 17.3195 37.5557L 15.334 37.796L 15.3374 37.8241L 15.3416 37.8522L 17.3195 37.5557ZM 15.9918 33.0586L 17.7895 32.1819L 17.7806 32.1637L 17.7713 32.1456L 15.9918 33.0586ZM 13.6873 24.0711L 15.6869 24.0296L 15.6867 24.0191L 15.6863 24.0087L 13.6873 24.0711ZM 10.7429 18.7007L 12.1091 17.24L 11.7336 16.8888L 11.2353 16.7622L 10.7429 18.7007ZM 5.71417 18.9345L 6.6123 20.7215L 6.62364 20.7157L 5.71417 18.9345ZM 2.72169 20.5367L 2.86413 22.5316L 2.87174 22.5311L 2.72169 20.5367ZM 0.05252 19.3677L 1.93935 18.7045L 1.93509 18.6924L 1.93067 18.6803L 0.05252 19.3677ZM 5.81738 13.6466L 6.87813 15.3421L 6.94264 15.3017L 7.00389 15.2566L 5.81738 13.6466ZM 36.5885 3.05007L 38.388 2.17722L 38.2486 1.88999L 38.0268 1.66041L 36.5885 3.05007ZM 39.6016 5.44304L 39.4259 7.4353L 39.4816 7.44022L 39.5375 7.44201L 39.6016 5.44304ZM 41.9268 4.80354L 40.9624 3.05142L 40.9048 3.08313L 40.8494 3.11855L 41.9268 4.80354ZM 44.252 2.87816L 44.5729 4.85226L 44.5732 4.8522L 44.252 2.87816ZM 48.5722 6.08942L 47.489 7.77068L 47.4913 7.77217L 48.5722 6.08942ZM 51.5647 7.69163L 53.4482 7.01869L 53.4436 7.00631L 51.5647 7.69163ZM 40.6679 17.8019C 40.0211 20.5027 40.3303 23.6763 41.4861 26.2016L 45.1055 24.4987C 44.187 22.6154 44.0101 20.7994 44.5479 18.7744L 40.6679 17.8019ZM 41.6204 26.4424C 47.1474 34.9209 46.6677 38.1538 46.1405 39.2607L 49.7519 40.9806C 51.2748 37.7829 50.5611 32.8328 44.9712 24.258L 41.6204 26.4424ZM 46.193 39.1583C 45.0622 41.2473 44.3701 43.7965 44.2891 46.1704L 48.2875 46.2833C 48.3271 44.3811 48.7716 42.7443 49.6995 41.083L 46.193 39.1583ZM 44.2883 46.212C 44.2839 47.3057 44.4223 48.5163 44.6735 49.5808L 48.5635 48.649C 48.3616 47.8219 48.2782 47.093 48.2882 46.2417L 44.2883 46.212ZM 45.1591 50.4825C 46.135 51.5158 46.8639 52.5702 47.4859 53.848L 51.0757 52.0834C 50.3134 50.545 49.248 49.004 48.0779 47.7474L 45.1591 50.4825ZM 47.4765 53.8287C 48.8401 56.6246 49.2364 59.481 48.6856 62.5423L 52.6277 63.2206C 53.2359 59.546 52.6708 55.4731 51.085 52.1028L 47.4765 53.8287ZM 49.1677 61.5461C 48.2318 62.5899 47.4158 63.4645 46.6206 64.0632C 45.8093 64.6826 45.5154 64.6278 45.5466 64.6335C 45.6641 64.655 45.2789 64.6802 44.6779 63.3911C 44.0953 62.1415 43.5083 60.0556 43.0024 56.7668L 39.0489 57.375C 39.5749 60.7941 40.2313 63.3197 41.0525 65.0813C 41.8553 66.8034 43.0343 68.2395 44.8252 68.5679C 46.5298 68.8805 48.0185 68.0284 49.0478 67.2427C 50.0932 66.4363 51.1759 65.2977 52.1456 64.2168L 49.1677 61.5461ZM 40.9155 55.0739C 37.2479 55.2997 33.4521 56.736 30.5541 58.9945L 33.0331 62.1337C 35.4225 60.217 38.0755 59.2132 41.1358 59.0679L 40.9155 55.0739ZM 33.1947 59.1369L 32.039 58.0023L 29.2368 60.8567L 30.3925 61.9913L 33.1947 59.1369ZM 31.4673 57.6096L 29.204 56.5781L 27.5452 60.218L 29.8085 61.2494L 31.4673 57.6096ZM 28.6732 56.4205L 27.717 56.2761L 27.1197 60.2312L 28.076 60.3756L 28.6732 56.4205ZM 26.0695 56.777L 25.2715 57.5059L 27.9692 60.4592L 28.7672 59.7303L 26.0695 56.777ZM 27.5428 57.2079L 25.307 56.0458L 23.4622 59.595L 25.698 60.7571L 27.5428 57.2079ZM 22.4083 57.5132L 22.2501 58.5309L 26.2027 59.1454L 26.3609 58.1277L 22.4083 57.5132ZM 22.6175 57.6501L 21.9777 58.5165L 25.1954 60.8926L 25.8353 60.0262L 22.6175 57.6501ZM 24.0883 57.7685L 22.9738 57.4797L 21.9704 61.3518L 23.0849 61.6406L 24.0883 57.7685ZM 23.2177 57.5599L 21.78 56.9823L 20.2888 60.694L 21.7266 61.2716L 23.2177 57.5599ZM 22.9641 58.3126L 22.6477 57.1505L 18.7882 58.2015L 19.1047 59.3636L 22.9641 58.3126ZM 22.1943 59.0252L 22.9924 58.1519L 20.0395 55.4536L 19.2415 56.3269L 22.1943 59.0252ZM 23.1615 55.666L 22.3635 54.5108L 19.0724 56.7842L 19.8704 57.9395L 23.1615 55.666ZM 22.654 55.1457L 22.0142 52.6771L 18.1421 53.6806L 18.7819 56.1492L 22.654 55.1457ZM 21.9082 53.9858L 22.5479 52.5349L 18.8879 50.921L 18.2482 52.372L 21.9082 53.9858ZM 21.6036 53.5212L 23.3578 52.6547L 21.5865 49.0683L 19.8323 49.9347L 21.6036 53.5212ZM 22.116 52.8296L 23.712 53.1184L 24.4243 49.1823L 22.8283 48.8935L 22.116 52.8296ZM 25.0223 52.908L 25.8204 52.4748L 23.912 48.9594L 23.114 49.3926L 25.0223 52.908ZM 26.3693 52.0364L 27.0091 51.3076L 24.0028 48.6689L 23.363 49.3978L 26.3693 52.0364ZM 26.3689 51.7925L 27.8066 51.1048L 26.0808 47.4963L 24.643 48.184L 26.3689 51.7925ZM 28.8943 48.8588L 28.7292 48.1299L 24.828 49.0135L 24.9931 49.7424L 28.8943 48.8588ZM 27.9649 46.9615L 26.3689 45.7857L 23.9963 49.006L 25.5923 50.1819L 27.9649 46.9615ZM 26.0188 45.579L 25.0626 45.1389L 23.3902 48.7725L 24.3464 49.2126L 26.0188 45.579ZM 26.1002 47.655L 26.4235 46.7885L 22.6759 45.3901L 22.3526 46.2565L 26.1002 47.655ZM 26.2481 47.1455L 26.881 46.1278L 23.4842 44.0154L 22.8513 45.0332L 26.2481 47.1455ZM 26.7278 43.8018L 26.2531 43.2242L 23.1627 45.7638L 23.6374 46.3414L 26.7278 43.8018ZM 24.9322 42.5066L 23.6526 42.3622L 23.2041 46.337L 24.4836 46.4814L 24.9322 42.5066ZM 23.2285 42.3596L 21.7908 42.504L 22.1905 46.484L 23.6282 46.3396L 23.2285 42.3596ZM 22.4701 42.5523L 20.7159 42.1191L 19.7569 46.0025L 21.5111 46.4357L 22.4701 42.5523ZM 21.7328 42.7338C 20.8644 41.7556 19.9091 40.7858 18.9441 39.9028L 16.2454 42.8552C 17.134 43.6665 17.9422 44.487 18.74 45.3877L 21.7328 42.7338ZM 19.5403 41.8424C 19.6843 41.1791 19.6956 40.3519 19.6283 39.6371C 19.5608 38.9551 19.4331 38.1648 19.2975 37.2593L 15.3416 37.8522C 15.4811 38.7827 15.5942 39.4708 15.6471 40.0249C 15.7003 40.546 15.7116 40.7125 15.6492 40.9156L 19.5403 41.8424ZM 19.3051 37.3155C 19.0891 35.5886 18.5461 33.7493 17.7895 32.1819L 14.1942 33.9352C 14.8174 35.1973 15.1719 36.3979 15.334 37.796L 19.3051 37.3155ZM 17.7713 32.1456C 16.9233 30.5439 16.0881 29.6671 15.5746 29.1261C 15.0684 28.5933 14.979 28.5951 14.958 28.1565L 11.0408 28.9663C 11.405 30.3913 12.1239 31.3007 12.6737 31.8802C 13.2161 32.4514 13.6846 32.8914 14.2124 33.9715L 17.7713 32.1456ZM 14.958 28.1565C 14.8052 27.7093 14.8933 27.6153 15.1013 27.0257C 15.3094 26.4314 15.6743 25.4298 15.6869 24.0296L 11.6877 24.1127C 11.7415 24.6998 11.5699 25.0116 11.3274 25.6997C 11.0848 26.3925 10.8083 27.5501 11.0408 28.9663L 14.958 28.1565ZM 15.6863 24.0087C 15.6262 22.0847 14.7944 19.7515 12.1091 17.24L 9.37679 20.1614C 11.397 22.0508 11.6659 23.417 11.6883 24.1336L 15.6863 24.0087ZM 11.2353 16.7622C 8.29734 16.016 6.23805 16.4214 4.80471 17.1532L 6.62364 20.7157C 7.10273 20.4711 8.15289 20.1063 10.2506 20.6391L 11.2353 16.7622ZM 4.81606 17.1475C 3.98003 17.5859 3.42598 18.0546 3.07109 18.3058C 2.73007 18.5541 2.7854 18.5733 2.57164 18.5423L 2.87174 22.5311C 3.93753 22.4038 4.8734 21.9314 5.40089 21.5573C 5.9145 21.1862 6.21692 20.902 6.61228 20.7215L 4.81606 17.1475ZM 2.57926 18.5418C 2.37235 18.5565 2.08065 18.5116 1.85151 18.4173C 1.744 18.373 1.70776 18.3412 1.72039 18.3518C 1.72948 18.3594 1.85557 18.4661 1.93935 18.7045L -1.83431 20.0309C -1.41582 21.2215 -0.356715 21.834 0.329367 22.1163C 1.04119 22.3958 2.0959 22.5722 2.86413 22.5316L 2.57926 18.5418ZM 1.93067 18.6803C 2.16112 19.3099 1.72706 19.5294 2.21466 18.9316C 2.74157 18.2856 4.01215 17.1351 6.87813 15.3421L 4.75663 11.951C 1.7752 13.8163 0.0601623 15.2445 -0.885103 16.4035C -1.86968 17.6107 -2.26246 18.8616 -1.82563 20.0551L 1.93067 18.6803ZM 7.00389 15.2566C 12.5927 11.1366 18.1149 6.47695 23.2064 3.90982C 25.7142 2.63814 27.9296 1.96925 29.869 2.00109C 31.7201 2.03149 33.4692 2.69989 35.1501 4.43973L 38.0268 1.66041C 35.6352 -0.81497 32.8861 -1.9499 29.9346 -1.99837C 27.0714 -2.04538 24.1798 -1.06867 21.3974 0.342298C 15.9086 3.14046 10.1177 7.99427 4.63086 12.0365L 7.00389 15.2566ZM 34.789 3.92292C 34.8538 4.05615 35.2884 4.86438 35.9632 5.62434C 36.6407 6.36028 37.795 7.29147 39.4259 7.4353L 39.7773 3.45077C 39.537 3.42958 39.2398 3.27774 38.9061 2.91518C 38.7339 2.73375 38.6415 2.59925 38.5295 2.42204C 38.4382 2.28317 38.3685 2.13696 38.388 2.17722L 34.789 3.92292ZM 39.5375 7.44201C 40.6593 7.45546 42.0472 7.07375 43.0042 6.48853L 40.8494 3.11855C 40.4211 3.41918 40.1877 3.48335 39.6657 3.44407L 39.5375 7.44201ZM 42.8912 6.55566C 44.0063 5.94191 44.5719 5.26187 44.9302 4.8059C 45.3176 4.31301 45.0487 4.77492 44.5729 4.85226L 43.9312 0.904066C 42.6092 1.11893 41.9585 2.11376 41.7852 2.33428C 41.5205 2.67137 41.4324 2.83306 40.9624 3.05142L 42.8912 6.55566ZM 44.5732 4.8522C 44.2873 4.89872 44.0567 4.79427 44 4.75876C 43.9124 4.71664 44.1719 4.89701 44.4575 5.18754C 45.0428 5.78215 45.9882 6.78457 47.489 7.77068L 49.6554 4.40816C 48.5628 3.7233 47.9396 3.02383 47.309 2.38242C 46.9866 2.05493 46.5512 1.64952 46.123 1.36867C 45.6142 1.07384 44.6615 0.833262 43.9308 0.904125L 44.5732 4.8522ZM 47.4913 7.77217C 48.7025 8.5329 49.6185 8.86183 50.0914 9.02088C 50.4109 9.1283 50.3452 9.1165 50.2534 9.0618C 50.0153 8.9199 49.7918 8.66766 49.6858 8.37694L 53.4436 7.00631C 52.9366 5.61606 51.5954 5.30651 51.3663 5.22948C 50.9037 5.07393 50.4438 4.93182 49.6531 4.40667L 47.4913 7.77217ZM 49.6813 8.36455C 49.5363 7.95868 49.6675 7.63924 49.6973 7.58258C 49.7288 7.49445 49.6176 7.71044 49.3557 7.95361C 48.7865 8.49611 47.88 9.14129 46.7907 9.98699C 44.679 11.6273 41.7499 14.091 40.688 17.7276L 44.5277 18.8487C 45.1926 16.5716 47.1202 14.796 49.2445 13.1459C 50.2731 12.3465 51.3294 11.5837 52.0989 10.8648C 52.5063 10.4773 52.9714 9.92298 53.2386 9.44236C 53.5671 8.81694 53.7823 7.95405 53.4481 7.0187L 49.6813 8.36455Z"/>
<path id="path2_fill" d="M 13.3401 18.2568C 12.6522 18.4837 12.1913 17.2803 11.0149 17.2941C 9.63907 17.2941 8.6278 18.9444 7.69222 20.5054C 6.90351 21.7997 6.27519 23.1852 5.82107 24.6312L 3.26883 24.9888L 2.65661 24.5624L 0.806072 25.2501C 1.03997 24.2599 0.682228 23.4072 0.358901 20.5466C -0.108891 16.4208 -0.329029 14.0691 1.04683 12.515C 1.5215 11.9787 2.52589 11.1397 4.70662 10.9128C 5.23606 9.35195 5.23606 7.66019 4.70662 6.09934C 4.28699 4.99224 3.67473 4.34588 3.37892 2.89496C 3.19001 1.93922 3.19001 0.955741 3.37892 -5.87581e-06C 4.38945 0.591439 5.53133 0.922269 6.70164 0.962683C 8.27012 1.01082 9.22633 0.460707 9.69412 0.962683C 10.1619 1.46466 9.63909 2.87433 9.35704 3.53446C 8.84109 4.75158 8.38705 4.84097 8.35953 5.45984C 8.35953 6.50505 9.61844 6.9589 11.0218 8.34793C 12.2276 9.63313 13.1343 11.1688 13.6772 12.8451C 14.3789 15.0937 14.2895 17.9267 13.3401 18.2568Z"/>
<path id="path3_stroke_2x" d="M 13.3401 18.2568L 13.9667 20.1561L 13.9818 20.1511L 13.9969 20.1459L 13.3401 18.2568ZM 11.0149 17.2941L 11.0149 19.2941L 11.0266 19.2941L 11.0383 19.2939L 11.0149 17.2941ZM 7.69222 20.5054L 9.40013 21.546L 9.40393 21.5398L 9.40768 21.5336L 7.69222 20.5054ZM 5.82107 24.6312L 6.09855 26.6118L 7.35042 26.4365L 7.72918 25.2304L 5.82107 24.6312ZM 3.26883 24.9888L 2.12592 26.63L 2.76957 27.0782L 3.54632 26.9694L 3.26883 24.9888ZM 2.65661 24.5624L 3.79952 22.9212L 2.94083 22.3232L 1.95997 22.6877L 2.65661 24.5624ZM 0.806072 25.2501L -1.14036 24.7903L -1.99918 28.4261L 1.50271 27.1248L 0.806072 25.2501ZM 0.358901 20.5466L 2.34625 20.322L 2.34617 20.3213L 0.358901 20.5466ZM 1.04683 12.515L 2.54429 13.8408L 2.54454 13.8405L 1.04683 12.515ZM 4.70662 10.9128L 4.91362 12.9021L 6.1888 12.7694L 6.60063 11.5553L 4.70662 10.9128ZM 4.70662 6.09934L 6.60063 5.45689L 6.58929 5.42347L 6.57679 5.39047L 4.70662 6.09934ZM 3.37892 2.89496L 1.41685 3.28279L 1.41924 3.2945L 3.37892 2.89496ZM 3.37892 -5.87581e-06L 4.38918 -1.7261L 1.96218 -3.14658L 1.41689 -0.387825L 3.37892 -5.87581e-06ZM 6.70164 0.962683L 6.63261 2.96151L 6.64029 2.96174L 6.70164 0.962683ZM 9.35704 3.53446L 7.51787 2.74865L 7.51565 2.75388L 9.35704 3.53446ZM 8.35953 5.45984L 6.36151 5.371L 6.35953 5.4154L 6.35953 5.45984L 8.35953 5.45984ZM 11.0218 8.34793L 12.4804 6.9795L 12.4551 6.95251L 12.4287 6.92647L 11.0218 8.34793ZM 13.6772 12.8451L 15.5864 12.2493L 15.5832 12.2391L 15.5799 12.2289L 13.6772 12.8451ZM 12.7136 16.3575C 13.2034 16.1959 13.6115 16.3425 13.7602 16.4182C 13.8152 16.4463 13.8411 16.473 13.5883 16.2764C 13.227 15.9955 12.3311 15.2786 10.9916 15.2942L 11.0383 19.2939C 10.8751 19.2959 10.7979 19.1737 11.1331 19.4343C 11.2915 19.5573 11.6041 19.7966 11.9439 19.9821C 12.4092 20.2192 13.1329 20.4312 13.9667 20.1561L 12.7136 16.3575ZM 11.0149 15.2941C 9.46957 15.2941 8.37072 16.2261 7.69557 16.9835C 7.03841 17.7332 6.44715 18.6924 5.97676 19.4772L 9.40768 21.5336C 9.87287 20.7574 10.255 20.1109 10.6814 19.6453C 11.0897 19.1872 11.1844 19.2941 11.0149 19.2941L 11.0149 15.2941ZM 5.9843 19.4647C 5.13557 20.8647 4.40697 22.4712 3.91296 24.0319L 7.72918 25.2304C 8.14342 23.8992 8.67145 22.7348 9.40013 21.546L 5.9843 19.4647ZM 5.54358 22.6505L 2.99135 23.0081L 3.54632 26.9694L 6.09855 26.6118L 5.54358 22.6505ZM 4.41175 23.3475L 3.79952 22.9212L 1.51369 26.2037L 2.12592 26.63L 4.41175 23.3475ZM 1.95997 22.6877L 0.109435 23.3753L 1.50271 27.1248L 3.35324 26.4372L 1.95997 22.6877ZM 2.75251 25.7098C 2.91623 24.9196 2.88094 24.0837 2.77078 23.313C 2.66444 22.5814 2.499 21.684 2.34625 20.322L -1.62844 20.7712C -1.45787 22.2698 -1.28278 23.2291 -1.18789 23.8865C -1.09682 24.5048 -1.07019 24.5903 -1.14036 24.7903L 2.75251 25.7098ZM 2.34617 20.3213C 2.11306 18.2654 1.9521 16.8035 2.00947 15.6564C 2.05671 14.6078 2.27354 14.1466 2.54429 13.8408L -0.45063 11.1893C -1.55574 12.4375 -1.91677 13.9292 -1.98648 15.4764C -2.04605 16.9251 -1.86305 18.702 -1.62837 20.7719L 2.34617 20.3213ZM 2.54454 13.8405C 2.70099 13.6637 3.25127 13.075 4.91362 12.9021L 4.49963 8.92355C 1.8005 9.20441 0.342014 10.2936 -0.450883 11.1896L 2.54454 13.8405ZM 6.60063 11.5553C 7.20939 9.67752 7.20939 7.33462 6.60063 5.45689L 2.81262 6.74179C 3.26274 7.98576 3.26274 9.02639 2.81262 10.2704L 6.60063 11.5553ZM 6.57679 5.39047C 5.98117 3.92935 5.44899 3.42283 5.33861 2.49543L 1.41924 3.2945C 1.90048 5.26893 2.5928 6.05514 2.83646 6.80821L 6.57679 5.39047ZM 5.34096 2.50715C 5.1805 1.74438 5.1805 1.15058 5.34096 0.387814L 1.41689 -0.387825C 1.19952 0.760905 1.19952 2.13405 1.41689 3.28278L 5.34096 2.50715ZM 2.36867 1.72608C 3.6 2.42904 5.21612 2.89727 6.63261 2.96149L 6.77066 -1.03613C 5.84653 -1.05274 5.1789 -1.24616 4.38918 -1.7261L 2.36867 1.72608ZM 6.64029 2.96174C 7.65128 2.9799 8.45018 2.83332 8.8866 2.77336C 9.12932 2.73955 9.12259 2.75574 9.03133 2.74572C 8.86797 2.72777 8.52165 2.63813 8.23096 2.3262L 11.1573 -0.400834C 10.711 -0.810365 9.91899 -1.16177 9.46819 -1.23036C 9.08444 -1.26204 8.62472 -1.2283 8.33467 -1.18838C 7.78392 -1.1108 7.32048 -1.0064 6.76299 -1.03638L 6.64029 2.96174ZM 8.23096 2.3262C 7.89906 1.97004 7.8827 1.61453 7.88182 1.59931C 7.87174 1.56777 7.88873 1.60565 7.85184 1.76705C 7.78477 2.0776 7.64253 2.45691 7.51788 2.74866L 11.1962 4.32027C 11.3499 3.95983 11.6147 3.26228 11.7617 2.61148C 11.8323 2.27519 11.8897 1.7622 11.8751 1.36762C 11.8495 0.926269 11.7231 0.206313 11.1573 -0.400834L 8.23096 2.3262ZM 7.51565 2.75388C 7.36322 3.14962 7.24226 3.28897 7.05241 3.5524C 6.85514 3.8262 6.40363 4.42357 6.36151 5.371L 10.3576 5.54868C 10.3524 5.66445 10.3193 5.80476 10.2601 5.92905C 10.2255 6.00178 10.1945 6.03408 10.2978 5.89059C 10.5017 5.60766 10.8509 5.13487 11.1984 4.31504L 7.51565 2.75388ZM 6.35953 5.45984C 6.35953 6.94088 7.3273 7.83706 7.8671 8.29712C 8.43521 8.778 9.04263 9.19224 9.61489 9.76939L 12.4287 6.92647C 11.5976 6.11458 10.8739 5.60739 10.4617 5.25278C 10.0212 4.87736 10.3595 5.02401 10.3595 5.45984L 6.35953 5.45984ZM 9.56326 9.71636C 10.6275 10.833 11.3109 11.9903 11.7745 13.4613L 15.5799 12.2289C 14.9578 10.3473 13.8277 8.43321 12.4804 6.9795L 9.56326 9.71636ZM 11.768 13.4409C 12.0725 14.3886 12.1823 15.308 12.1305 16.1671C 12.1135 16.5643 12.0929 16.7164 12.0206 16.8824C 11.9621 17.0377 12.0755 16.579 12.6833 16.3677L 13.9969 20.1459C 15.0794 19.7695 15.5601 18.8329 15.7633 18.2939C 15.9529 17.7656 16.0889 17.0071 16.1251 16.3737C 16.18 15.1716 15.9836 13.5501 15.5864 12.2493L 11.768 13.4409Z"/>
</defs>
</svg>
