<svg width="193" height="141" viewBox="0 0 193 141" version="1.1" xmlns="http://www.w3.org/2000/svg" xmlns:xlink="http://www.w3.org/1999/xlink">
<title>Component</title>
<desc>Created using Figma</desc>
<g id="Canvas" transform="translate(-1319 -145)">
<g id="Component">
<g id="Vector">
<use xlink:href="#path0_fill" transform="translate(1321.96 147)" fill="#FFFFFF" fill-opacity="0.5"/>
<mask id="mask0_outline_out">
<rect id="mask0_outline_inv" fill="white" x="-3" y="-2" width="155" height="134" transform="translate(1321.96 147)"/>
<use xlink:href="#path0_fill" fill="black" transform="translate(1321.96 147)"/>
</mask>
<g mask="url(#mask0_outline_out)">
<use xlink:href="#path1_stroke_2x" transform="translate(1321.96 147)" fill="#FFFFFF"/>
</g>
</g>
<g id="Vector">
<use xlink:href="#path2_fill" transform="translate(1380.66 224.609)" fill="#FFFFFF" fill-opacity="0.5"/>
<mask id="mask1_outline_out">
<rect id="mask1_outline_inv" fill="white" x="-2" y="-2" width="77" height="64" transform="translate(1380.66 224.609)"/>
<use xlink:href="#path2_fill" fill="black" transform="translate(1380.66 224.609)"/>
</mask>
<g mask="url(#mask1_outline_out)">
<use xlink:href="#path3_stroke_2x" transform="translate(1380.66 224.609)" fill="#FFFFFF"/>
</g>
</g>
<g id="Vector">
<use xlink:href="#path4_fill" transform="translate(1345.69 235.801)" fill="#FFFFFF" fill-opacity="0.5"/>
<mask id="mask2_outline_out">
<rect id="mask2_outline_inv" fill="white" x="-3" y="-2" width="26" height="30" transform="translate(1345.69 235.801)"/>
<use xlink:href="#path4_fill" fill="black" transform="translate(1345.69 235.801)"/>
</mask>
<g mask="url(#mask2_outline_out)">
<use xlink:href="#path5_stroke_2x" transform="translate(1345.69 235.801)" fill="#FFFFFF"/>
</g>
</g>
<g id="Vector">
<use xlink:href="#path6_fill" transform="translate(1367.77 245.239)" fill="#FFFFFF" fill-opacity="0.5"/>
<mask id="mask3_outline_out">
<rect id="mask3_outline_inv" fill="white" x="-3" y="-3" width="11" height="10" transform="translate(1367.77 245.239)"/>
<use xlink:href="#path6_fill" fill="black" transform="translate(1367.77 245.239)"/>
</mask>
<g mask="url(#mask3_outline_out)">
<use xlink:href="#path7_stroke_2x" transform="translate(1367.77 245.239)" fill="#FFFFFF"/>
</g>
</g>
<g id="Vector">
<use xlink:href="#path8_fill" transform="translate(1496.45 197.655)" fill="#FFFFFF" fill-opacity="0.5"/>
<mask id="mask4_outline_out">
<rect id="mask4_outline_inv" fill="white" x="-2" y="-3" width="18" height="14" transform="translate(1496.45 197.655)"/>
<use xlink:href="#path8_fill" fill="black" transform="translate(1496.45 197.655)"/>
</mask>
<g mask="url(#mask4_outline_out)">
<use xlink:href="#path9_stroke_2x" transform="translate(1496.45 197.655)" fill="#FFFFFF"/>
</g>
</g>
</g>
</g>
<defs>
<path id="path0_fill" d="M 145.133 5.43072C 141.005 8.86891 138.522 12.5546 137.565 15.7453C 135.502 23.7906 141.315 25.6679 143.296 31.2103C 145.642 35.7693 142.505 36.9589 142.856 40.8372C 143.688 46.964 145.057 54.0261 144.445 57.5605C 144.63 60.5449 138.095 63.5911 135.392 70.0893C 133.472 76.3193 135.66 78.7398 131.106 84.681C 127.948 87.5691 120.787 84.4334 118.2 79.6268C 109.175 67.7995 109.353 77.062 106.505 77.3439C 105.129 77.5502 102.495 75.281 100.19 73.0186C 95.1545 68.6384 98.3603 75.171 94.0951 76.395C 90.8205 76.9863 89.8024 75.226 88.8737 75.4391C 86.5554 76.1818 85.5028 79.0767 84.6017 79.0561C 81.2502 78.3174 77.7636 78.4692 74.4891 79.4962C 69.591 81.229 66.6742 84.1584 64.4315 83.904C 59.7399 83.7458 59.7949 73.9263 51.4985 81.9167C 51.2714 82.0886 50.3565 78.0384 46.8825 82.0198C 46.4972 82.3705 44.7017 80.7821 44.6192 82.2674C 44.5435 82.955 44.1582 84.7635 43.0644 84.9698C 42.4384 85.0111 40.409 83.1338 38.9919 83.3538C 38.4416 83.4364 38.304 83.5257 38.8543 84.7773C 38.9712 85.2036 39.0951 86.0563 38.5447 86.1044C 37.9944 86.1525 36.6942 85.7399 36.0269 86.5857C 35.6207 87.2309 35.0812 87.7819 34.4447 88.2017C 32.4634 89.2194 31.3696 88.0435 30.0832 87.4178C 29.4572 87.1977 28.2327 87.3353 27.9506 88.2911C 27.5378 89.6664 27.9506 91.2411 27.2077 92.2588C 26.4458 93.3508 25.8327 94.5394 25.3846 95.7932C 24.7586 97.4435 26.0726 97.753 23.8987 100.517C 23.3965 101.246 22.9425 102.271 22.1445 102.305C 20.7686 102.367 19.3171 103.206 18.1889 103.763C 16.5585 104.767 14.247 107.318 16.586 109.457C 17.4253 110.144 15.0451 112.489 15.0451 112.489C 14.6942 112.895 14.2746 113.589 14.5222 113.864C 14.99 114.201 17.2739 113.83 17.6385 114.194C 17.8961 114.631 18.0404 115.125 18.0582 115.632C 18.0169 116.168 18.1476 116.752 17.838 117.069C 17.1501 117.825 16.3796 117.241 16.1801 117.33C 14.99 117.729 16.7717 119.606 17.9963 118.753C 18.9318 117.557 20.06 116.89 21.3258 117.076C 22.1445 117.193 22.9838 117.997 22.0963 119.62C 21.6423 120.452 21.3396 120.617 21.5873 121.724C 21.9106 122.535 23.1214 123.484 22.7843 124.743C 22.5229 125.671 22.743 126.943 21.9863 127.493C 20.9956 127.927 20.4935 127.651 19.2345 127.645C 18.7186 127.645 19.8743 129.102 19.2965 129.185C 18.8794 129.171 18.4737 129.046 18.1216 128.822C 17.7695 128.599 17.4839 128.284 17.2946 127.913C 16.2833 126.414 16.3384 125.162 15.561 124.014C 14.1439 121.098 10.3327 119.634 9.68607 119.125C 6.89307 117.564 6.79677 116.464 6.72109 115.075C 6.63166 114.442 4.78113 112.015 4.48532 109.484C 4.23767 108.501 3.73547 108.178 3.61852 107.717C 3.29519 106.747 2.28394 106.287 1.81615 106.795C -0.0275042 109.23 1.93997 112.297 1.76111 113.452C 1.55473 114.387 0.584756 114.215 0.130722 113.527C -0.323312 112.84 0.598516 110.736 0.013775 108.026C 0.584757 103.419 3.92122 96.7215 7.38839 88.9581C 9.60352 85.238 12.7818 84.5091 15.2996 79.2555C 16.2214 74.5039 17.501 77.6808 19.2345 76.505C 22.6329 73.1218 21.7524 66.658 26.9806 68.659C 38.0632 71.8703 40.7392 68.2327 42.5485 67.8751C 43.3052 67.6413 46.339 64.2719 47.7011 64.1825C 48.8293 64.32 48.9256 65.3102 52.6955 65.4546C 54.5116 65.5922 54.8487 66.493 57.3252 66.9537C 60.479 67.0562 63.6361 66.9252 66.7705 66.5617C 70.2721 66.1904 71.4347 66.493 75.9888 63.5911C 78.9284 61.3302 81.6485 58.7977 84.1132 56.0271C 86.7962 53.2766 88.9287 49.5496 90.7655 46.2489C 97.0807 35.0817 95.0582 35.0404 96.9569 32.4961C 98.6423 29.1749 102.577 28.4185 105.295 20.545C 107.689 14.1706 111.28 17.8701 120.684 16.5636C 125.733 16.7011 131.099 11.7914 136.451 7.17044C 140.64 4.29611 142.697 0.355948 144.438 0.0946452C 146.197 -0.145215 147.988 0.0726836 149.639 0.727272C 151.186 1.73122 147.279 3.21652 145.133 5.43072Z"/>
<path id="path1_stroke_2x" d="M 145.133 5.43072L 146.413 6.96743L 146.495 6.89925L 146.569 6.82276L 145.133 5.43072ZM 137.565 15.7453L 135.65 15.1711L 135.638 15.2095L 135.628 15.2483L 137.565 15.7453ZM 143.296 31.2103L 141.413 31.8835L 141.457 32.0079L 141.517 32.1253L 143.296 31.2103ZM 142.856 40.8372L 140.864 41.0174L 140.868 41.062L 140.874 41.1064L 142.856 40.8372ZM 144.445 57.5605L 142.474 57.2192L 142.434 57.4505L 142.449 57.6848L 144.445 57.5605ZM 135.392 70.0893L 133.545 69.3211L 133.508 69.4092L 133.48 69.5005L 135.392 70.0893ZM 131.106 84.681L 132.456 86.1568L 132.586 86.0377L 132.693 85.8977L 131.106 84.681ZM 118.2 79.6268L 119.961 78.6791L 119.886 78.5395L 119.79 78.4135L 118.2 79.6268ZM 106.505 77.3439L 106.308 75.3536L 106.258 75.3586L 106.209 75.366L 106.505 77.3439ZM 100.19 73.0186L 101.591 71.5914L 101.548 71.5492L 101.503 71.5097L 100.19 73.0186ZM 94.0951 76.395L 94.4505 78.3631L 94.5498 78.3452L 94.6468 78.3174L 94.0951 76.395ZM 88.8737 75.4391L 88.4263 73.4898L 88.344 73.5087L 88.2635 73.5345L 88.8737 75.4391ZM 84.6017 79.0561L 84.1712 81.0092L 84.3613 81.0511L 84.5559 81.0556L 84.6017 79.0561ZM 74.4891 79.4962L 73.8906 77.5879L 73.8561 77.5987L 73.822 77.6107L 74.4891 79.4962ZM 64.4315 83.904L 64.657 81.9167L 64.5782 81.9078L 64.4989 81.9051L 64.4315 83.904ZM 51.4985 81.9167L 52.7059 83.5111L 52.8004 83.4395L 52.8859 83.3572L 51.4985 81.9167ZM 46.8825 82.0198L 48.2288 83.4988L 48.3138 83.4214L 48.3894 83.3348L 46.8825 82.0198ZM 44.6192 82.2674L 46.6072 82.4862L 46.6131 82.4324L 46.6161 82.3784L 44.6192 82.2674ZM 43.0644 84.9698L 43.196 86.9655L 43.3164 86.9575L 43.4351 86.9352L 43.0644 84.9698ZM 38.9919 83.3538L 39.2885 85.3318L 39.2988 85.3302L 38.9919 83.3538ZM 38.8543 84.7773L 40.7831 84.2482L 40.7442 84.1066L 40.6851 83.9722L 38.8543 84.7773ZM 36.0269 86.5857L 34.4568 85.347L 34.391 85.4303L 34.3344 85.5201L 36.0269 86.5857ZM 34.4447 88.2017L 35.3585 89.9807L 35.4551 89.9311L 35.5458 89.8713L 34.4447 88.2017ZM 30.0832 87.4178L 30.958 85.6193L 30.8548 85.569L 30.7464 85.531L 30.0832 87.4178ZM 27.9506 88.2911L 29.8662 88.866L 29.8688 88.8571L 27.9506 88.2911ZM 27.2077 92.2588L 25.5923 91.0795L 25.5796 91.0968L 25.5674 91.1145L 27.2077 92.2588ZM 25.3846 95.7932L 27.2546 96.5025L 27.2615 96.4845L 27.268 96.4663L 25.3846 95.7932ZM 23.8987 100.517L 22.3266 99.281L 22.2876 99.3306L 22.2518 99.3826L 23.8987 100.517ZM 22.1445 102.305L 22.0584 100.307L 22.0546 100.307L 22.1445 102.305ZM 18.1889 103.763L 17.3035 101.97L 17.2197 102.011L 17.1402 102.06L 18.1889 103.763ZM 16.586 109.457L 15.2364 110.933L 15.2765 110.969L 15.3185 111.004L 16.586 109.457ZM 15.0451 112.489L 13.6415 111.064L 13.5845 111.12L 13.5323 111.181L 15.0451 112.489ZM 14.5222 113.864L 13.0359 115.203L 13.1794 115.362L 13.3533 115.487L 14.5222 113.864ZM 17.6385 114.194L 19.3611 113.178L 19.2321 112.959L 19.0525 112.78L 17.6385 114.194ZM 18.0582 115.632L 20.0523 115.785L 20.0609 115.673L 20.0569 115.561L 18.0582 115.632ZM 17.838 117.069L 16.4087 115.67L 16.3831 115.696L 16.3584 115.723L 17.838 117.069ZM 16.1801 117.33L 16.8156 119.226L 16.9085 119.195L 16.998 119.155L 16.1801 117.33ZM 17.9963 118.753L 19.1391 120.395L 19.3863 120.223L 19.5718 119.985L 17.9963 118.753ZM 21.3258 117.076L 21.0356 119.054L 21.0431 119.056L 21.3258 117.076ZM 22.0963 119.62L 20.3416 118.66L 20.3407 118.662L 22.0963 119.62ZM 21.5873 121.724L 19.6355 122.161L 19.6703 122.316L 19.7293 122.464L 21.5873 121.724ZM 22.7843 124.743L 24.7094 125.285L 24.7129 125.273L 24.7162 125.26L 22.7843 124.743ZM 21.9863 127.493L 22.7876 129.326L 22.9866 129.239L 23.1623 129.111L 21.9863 127.493ZM 19.2345 127.645L 19.2455 125.645L 19.2345 125.645L 19.2345 127.645ZM 19.2965 129.185L 19.231 131.184L 19.4059 131.19L 19.5792 131.165L 19.2965 129.185ZM 17.2946 127.913L 19.0767 127.005L 19.0211 126.896L 18.9526 126.794L 17.2946 127.913ZM 15.561 124.014L 13.7622 124.888L 13.8247 125.017L 13.9048 125.135L 15.561 124.014ZM 9.68607 119.125L 10.9229 117.553L 10.7992 117.456L 10.6618 117.379L 9.68607 119.125ZM 6.72109 115.075L 8.71813 114.966L 8.71345 114.88L 8.7014 114.795L 6.72109 115.075ZM 4.48532 109.484L 6.47179 109.252L 6.45664 109.122L 6.42476 108.996L 4.48532 109.484ZM 3.61852 107.717L 5.55704 107.225L 5.539 107.154L 5.51581 107.084L 3.61852 107.717ZM 1.81615 106.795L 0.34378 105.442L 0.279321 105.512L 0.221817 105.588L 1.81615 106.795ZM 1.76111 113.452L 3.71412 113.883L 3.72783 113.821L 3.73756 113.758L 1.76111 113.452ZM 0.013775 108.026L -1.97104 107.78L -2.01274 108.117L -1.94121 108.448L 0.013775 108.026ZM 7.38839 88.9581L 5.66996 87.9349L 5.61001 88.0355L 5.56223 88.1425L 7.38839 88.9581ZM 15.2996 79.2555L 17.1031 80.1199L 17.2141 79.8884L 17.263 79.6364L 15.2996 79.2555ZM 19.2345 76.505L 20.3572 78.1601L 20.5126 78.0548L 20.6456 77.9223L 19.2345 76.505ZM 26.9806 68.659L 26.2657 70.5269L 26.3438 70.5568L 26.424 70.58L 26.9806 68.659ZM 42.5485 67.8751L 42.9363 69.8372L 43.0389 69.8169L 43.1389 69.786L 42.5485 67.8751ZM 47.7011 64.1825L 47.9431 62.1972L 47.7571 62.1745L 47.5701 62.1868L 47.7011 64.1825ZM 52.6955 65.4546L 52.8465 63.4603L 52.8093 63.4575L 52.772 63.4561L 52.6955 65.4546ZM 57.3252 66.9537L 56.9594 68.9199L 57.1086 68.9477L 57.2602 68.9526L 57.3252 66.9537ZM 66.7705 66.5617L 66.5596 64.5729L 66.5499 64.5739L 66.5401 64.575L 66.7705 66.5617ZM 75.9888 63.5911L 77.0635 65.2778L 77.138 65.2303L 77.2081 65.1765L 75.9888 63.5911ZM 84.1132 56.0271L 82.6815 54.6306L 82.6495 54.6635L 82.6189 54.6978L 84.1132 56.0271ZM 90.7655 46.2489L 89.0246 45.2644L 89.0179 45.2764L 90.7655 46.2489ZM 96.9569 32.4961L 98.5597 33.6923L 98.6626 33.5545L 98.7404 33.4012L 96.9569 32.4961ZM 105.295 20.545L 103.422 19.8418L 103.413 19.867L 103.404 19.8925L 105.295 20.545ZM 120.684 16.5636L 120.738 14.5643L 120.572 14.5598L 120.408 14.5826L 120.684 16.5636ZM 136.451 7.17044L 135.319 5.52126L 135.228 5.58406L 135.144 5.65661L 136.451 7.17044ZM 144.438 0.0946452L 144.168 -1.88702L 144.154 -1.88519L 144.141 -1.88319L 144.438 0.0946452ZM 149.639 0.727272L 150.727 -0.950678L 150.56 -1.05866L 150.376 -1.13182L 149.639 0.727272ZM 143.853 3.89401C 139.512 7.50982 136.748 11.5071 135.65 15.1711L 139.481 16.3194C 140.296 13.6022 142.498 10.228 146.413 6.96743L 143.853 3.89401ZM 135.628 15.2483C 134.431 19.9131 135.549 22.9706 137.249 25.5246C 138.036 26.7009 138.911 27.7419 139.661 28.7684C 140.414 29.7957 141.004 30.703 141.413 31.8835L 145.179 30.537C 144.597 28.9464 143.718 27.5406 142.888 26.4058C 142.055 25.27 141.235 24.2997 140.579 23.3082C 139.393 21.5267 138.635 19.6228 139.503 16.2422L 135.628 15.2483ZM 141.517 32.1253C 142.015 33.0656 142.15 33.5853 142.17 34.1938C 142.216 34.7294 142.122 35.0631 141.925 35.651C 141.543 36.832 140.723 38.4885 140.864 41.0174L 144.847 40.657C 144.638 39.3076 145.21 38.4302 145.723 36.907C 145.973 36.1428 146.201 35.082 146.165 33.9911C 146.103 32.9731 145.75 31.6344 145.074 30.2952L 141.517 32.1253ZM 140.874 41.1064C 141.294 44.1999 141.843 47.486 142.207 50.4178C 142.58 53.4183 142.722 55.7853 142.474 57.2192L 146.415 57.9019C 146.779 55.8013 146.543 52.8701 146.177 49.9242C 145.801 46.9097 145.249 43.6013 144.837 40.5679L 140.874 41.1064ZM 142.449 57.6848C 142.448 57.675 142.462 57.927 141.911 58.6339C 141.369 59.3371 140.57 60.1111 139.588 61.0924C 137.628 63.0511 135.072 65.7413 133.545 69.3211L 137.238 70.8576C 138.414 67.9391 140.478 65.8571 142.415 63.9221C 143.382 62.9565 144.351 62.0032 145.066 61.0928C 145.773 60.1862 146.534 58.9383 146.441 57.4363L 142.449 57.6848ZM 133.48 69.5005C 132.45 72.9373 132.501 75.2753 132.252 77.2486C 132.031 79.0404 131.567 80.7911 129.518 83.4643L 132.693 85.8977C 135.198 82.6296 135.918 80.1995 136.222 77.7383C 136.497 75.4586 136.414 73.4714 137.303 70.6782L 133.48 69.5005ZM 129.756 83.2052C 129.045 83.8558 127.457 84.1109 125.195 83.1877C 123.045 82.3104 121.001 80.6105 119.961 78.6791L 116.439 80.5746C 117.986 83.4498 120.816 85.721 123.683 86.8911C 126.438 88.0154 130.009 88.3942 132.456 86.1568L 129.756 83.2052ZM 119.79 78.4135C 117.498 75.4094 115.632 73.524 114.007 72.533C 113.17 72.0235 112.304 71.6921 111.408 71.6364C 110.573 71.6162 109.582 71.8996 109 72.234C 107.842 72.9356 107.033 74.2103 106.646 74.7439C 106.402 75.081 106.274 75.2589 106.116 75.3903C 106.02 75.4769 106.095 75.3747 106.308 75.3536L 106.702 79.3342C 107.467 79.2146 108.341 78.7546 108.794 78.3615C 109.207 77.9787 109.603 77.4791 109.884 77.093C 110.546 76.1802 110.791 75.8256 111.073 75.6548C 111.21 75.553 111.035 75.5893 111.16 75.6287C 111.225 75.6328 111.464 75.6677 111.925 75.9486C 112.893 76.5386 114.39 77.9306 116.61 80.8402L 119.79 78.4135ZM 106.209 75.366C 106.44 75.3314 106.449 75.4175 106.098 75.2561C 105.74 75.0963 105.383 74.8676 104.882 74.4969C 103.848 73.7385 102.719 72.6991 101.591 71.5914L 98.7891 74.4459C 99.9657 75.6005 101.306 76.8269 102.51 77.7171C 103.127 78.1707 103.832 78.612 104.427 78.8904C 105.029 79.1672 105.883 79.4595 106.802 79.3218L 106.209 75.366ZM 101.503 71.5097C 100.819 70.9168 100.172 70.432 99.6758 70.1346C 99.1638 69.8317 98.457 69.5006 97.6475 69.5272C 96.6501 69.56 95.9457 70.1042 95.5338 70.6939C 95.1967 71.1764 95.0276 71.7232 94.9336 72.0453C 94.4412 73.7342 94.3861 74.2307 93.5434 74.4725L 94.6468 78.3174C 98.0692 77.3352 98.5439 73.9534 98.7737 73.1651C 98.8604 72.8679 98.8839 72.8829 98.8128 72.9847C 98.6669 73.1935 98.302 73.5079 97.7788 73.5251C 97.4436 73.5361 97.3458 73.4038 97.639 73.5772C 97.9476 73.7562 98.3021 74.0254 98.8775 74.5276L 101.503 71.5097ZM 93.7397 74.4268C 92.547 74.6422 91.8753 74.4307 91.403 74.2251C 91.1127 74.102 90.8098 73.9274 90.4474 73.7605C 90.1064 73.6057 89.3422 73.2796 88.4263 73.4898L 89.3211 77.3884C 88.8696 77.4921 88.5808 77.306 88.7943 77.4029C 88.9863 77.4876 89.3168 77.6762 89.8064 77.8926C 90.894 78.3661 92.3686 78.7391 94.4505 78.3631L 93.7397 74.4268ZM 88.2635 73.5345C 86.4996 74.0995 85.3384 75.4357 84.6579 76.2679C 84.3001 76.7061 84.0532 77.0381 83.8617 77.2389C 83.7833 77.325 83.8623 77.25 83.8498 77.2661C 83.9227 77.2182 84.2079 77.0466 84.6474 77.0566L 84.5559 81.0556C 85.2207 81.0708 85.7359 80.8132 86.0479 80.608C 86.2995 80.4347 86.6018 80.1633 86.7849 79.9693C 87.1168 79.6099 87.4468 79.1756 87.7546 78.7998C 88.4053 78.004 88.9294 77.5214 89.4838 77.3438L 88.2635 73.5345ZM 85.0321 77.103C 81.4234 76.325 77.418 76.4993 73.8906 77.5879L 75.0876 81.4045C 78.1093 80.4391 81.077 80.3099 84.1712 81.0092L 85.0321 77.103ZM 73.822 77.6107C 71.19 78.5522 69.0817 79.7988 67.48 80.7044C 66.683 81.1552 66.0748 81.4904 65.5181 81.7091C 64.9929 81.919 64.7481 81.927 64.657 81.9167L 64.2061 85.8912C 65.2363 86.0081 66.1971 85.7454 67.0026 85.4234C 67.7766 85.1103 68.6242 84.6526 69.449 84.1862C 71.091 83.2575 72.8901 82.173 75.1561 81.3817L 73.822 77.6107ZM 64.4989 81.9051C 64.1079 81.8919 63.6984 81.7038 63.0418 81.0189C 62.3606 80.3172 61.6267 79.2755 60.6684 78.3804C 59.6003 77.4012 58.0921 76.5264 56.0389 76.8599C 54.19 77.1602 52.2709 78.396 50.1111 80.4762L 52.8859 83.3572C 54.8743 81.4422 56.0594 80.909 56.6802 80.8081C 57.0967 80.7405 57.4235 80.8322 57.9652 81.3288C 58.6166 81.9096 59.2672 82.853 60.1545 83.7872C 61.0664 84.7383 62.4093 85.8369 64.3642 85.9028L 64.4989 81.9051ZM 50.2911 80.3223C 50.8136 79.9266 51.4688 79.8341 52.0398 80.0022C 52.4815 80.1322 52.7496 80.38 52.8336 80.4607C 52.942 80.565 53.0093 80.6557 53.0323 80.6873C 53.0164 80.6645 53.0793 80.7562 53.0782 80.7549C 53.097 80.7831 53.0032 80.6189 52.8953 80.4338C 52.693 80.0906 52.1898 79.3943 51.5699 78.9117C 50.7545 78.3299 49.6591 78.0537 48.434 78.4414C 47.3498 78.7845 46.3477 79.5907 45.3755 80.7049L 48.3894 83.3348C 49.1542 82.4583 49.5693 82.2777 49.6408 82.255C 49.6437 82.1652 49.2983 82.2405 49.2463 82.1677C 49.1749 82.1569 49.303 82.2137 49.4447 82.457C 49.5087 82.5653 49.5884 82.7146 49.6766 82.8595C 49.7055 82.9062 49.842 83.1334 50.0612 83.3441C 50.1651 83.4441 50.4517 83.7044 50.9104 83.8394C 51.4984 84.0125 52.1692 83.9175 52.7059 83.5111L 50.2911 80.3223ZM 45.5361 80.5409C 46.0877 80.0387 46.6964 80.0652 46.8393 80.0768C 47.0067 80.0903 47.0943 80.1288 47.024 80.1048C 46.8908 80.0618 46.6185 79.9389 46.2647 79.8191C 46.0151 79.7366 45.1764 79.4528 44.2896 79.7648C 43.7485 79.9552 43.2921 80.3287 42.995 80.84C 42.7257 81.3035 42.6431 81.782 42.6222 82.1564L 46.6161 82.3784C 46.6159 82.3814 46.6074 82.5847 46.4536 82.8494C 46.2721 83.1619 45.9724 83.4131 45.6173 83.538C 45.3152 83.6443 45.0833 83.621 45.0239 83.6136C 44.957 83.6053 44.9428 83.595 45.0099 83.6172C 45.0845 83.641 45.1585 83.6709 45.2805 83.7194C 45.4023 83.7677 45.5699 83.8343 45.7318 83.8904C 45.8853 83.9427 46.177 84.0362 46.5166 84.0637C 46.8318 84.0892 47.5809 84.0886 48.2288 83.4988L 45.5361 80.5409ZM 42.6312 82.0486C 42.6069 82.2689 42.526 82.6842 42.3863 83.0089C 42.3181 83.1676 42.2719 83.2189 42.2813 83.2086C 42.3016 83.1863 42.4371 83.0529 42.6938 83.0044L 43.4351 86.9352C 45.0279 86.6348 45.767 85.2726 46.0609 84.5892C 46.3801 83.8155 46.56 82.9024 46.6072 82.4862L 42.6312 82.0486ZM 42.9329 82.9741C 43.1485 82.9599 43.3086 82.9906 43.3802 83.0071C 43.3415 82.9961 43.5039 83.0426 43.5063 83.0445C 43.5404 83.0558 43.4514 83.0207 43.3339 82.9551C 43.0802 82.8151 42.735 82.598 42.3185 82.3591C 41.9045 82.1225 41.3433 81.8333 40.8182 81.6385C 40.2741 81.4417 39.5135 81.2489 38.685 81.3775L 39.2988 85.3302C 39.2887 85.3618 39.2068 85.3029 39.4579 85.4001C 39.7314 85.4941 39.9824 85.6304 40.3312 85.8305C 40.6774 86.0282 41.0455 86.2589 41.3927 86.4525C 41.5756 86.5536 41.8271 86.6792 42.0293 86.7618C 42.2175 86.8366 42.6594 87.0008 43.196 86.9655L 42.9329 82.9741ZM 38.6953 81.376C 38.5988 81.3904 38.1871 81.4424 37.7895 81.6348C 37.215 81.9129 36.6895 82.462 36.5426 83.2692C 36.4369 83.8507 36.5753 84.3632 36.6511 84.615C 36.7325 84.8793 36.8705 85.2334 37.0235 85.5823L 40.6851 83.9722C 40.5629 83.6953 40.5118 83.5689 40.4813 83.4619C 40.4453 83.3424 40.5494 83.5927 40.4781 83.9851C 40.4341 84.2269 40.3266 84.508 40.1171 84.7674C 39.9146 85.0181 39.6882 85.1598 39.5321 85.2353C 39.298 85.3486 39.1098 85.3585 39.2885 85.3317L 38.6953 81.376ZM 36.9256 85.3063C 36.959 85.4281 36.951 85.4836 36.957 85.4129C 36.9599 85.3788 36.9809 85.1142 37.1917 84.8065C 37.4635 84.4097 37.9077 84.1525 38.3705 84.112L 38.719 88.0968C 39.457 88.0322 40.0921 87.6504 40.4918 87.0669C 40.8305 86.5724 40.9164 86.059 40.9425 85.7524C 40.9704 85.2091 40.8615 84.5405 40.7831 84.2482L 36.9256 85.3063ZM 38.3705 84.112C 38.4511 84.1049 38.4764 84.1144 38.1906 84.0889C 37.9795 84.0701 37.6379 84.0429 37.2937 84.0463C 36.5924 84.0589 35.3445 84.2217 34.4568 85.347L 37.5971 87.8245C 37.3766 88.104 37.1125 88.0502 37.3657 88.0456C 37.4988 88.0404 37.627 88.0545 37.8354 88.0731C 37.9395 88.0824 38.0708 88.0939 38.1939 88.1011C 38.3184 88.1081 38.5094 88.1151 38.719 88.0968L 38.3705 84.112ZM 34.3344 85.5201C 34.0511 85.9915 33.809 86.2387 33.3436 86.5321L 35.5458 89.8713C 36.3535 89.325 37.1904 88.4704 37.7194 87.6513L 34.3344 85.5201ZM 33.5308 86.4227C 33.0518 86.6687 32.8602 86.6087 32.6796 86.5438C 32.4812 86.4788 32.3232 86.3863 32.0321 86.2173C 31.7409 86.0486 31.3681 85.8215 30.958 85.6193L 29.2084 89.2163C 29.4415 89.3269 29.6879 89.4815 30.0254 89.6775C 30.3632 89.8732 30.8437 90.1283 31.3272 90.3083C 32.5104 90.7333 33.8563 90.7523 35.3585 89.9807L 33.5308 86.4227ZM 30.7464 85.531C 30.0133 85.2733 29.1157 85.2562 28.3113 85.4984C 27.4578 85.7554 26.4196 86.4128 26.0324 87.725L 29.8688 88.8571C 29.8261 89.0019 29.7369 89.1335 29.6326 89.2249C 29.541 89.3051 29.4708 89.3267 29.4645 89.3286C 29.4578 89.3306 29.4718 89.3264 29.4955 89.3268C 29.5256 89.3272 29.5005 89.3329 29.42 89.3046L 30.7464 85.531ZM 26.035 87.7162C 25.7654 88.6882 25.7451 89.6567 25.7065 90.2901C 25.6703 90.9159 25.4638 91.1484 25.5923 91.0795L 28.823 93.438C 29.5743 92.4089 29.6587 91.2122 29.6994 90.5279C 29.7433 89.7757 29.723 89.2693 29.8662 88.866L 26.035 87.7162ZM 25.5674 91.1145C 24.7331 92.318 23.9983 93.7427 23.5013 95.1201L 27.268 96.4663C 27.6672 95.3361 28.1585 94.3837 28.8479 93.4031L 25.5674 91.1145ZM 23.5147 95.0839C 23.283 95.7407 23.1955 96.4317 23.1941 96.8466C 23.2 97.2806 23.2353 97.5224 23.2233 97.6692C 23.2214 97.7236 23.2619 98.0916 22.3266 99.281L 25.4708 101.754C 26.7093 100.179 27.1798 99.0098 27.2209 97.8058C 27.2648 96.521 27.0941 96.9258 27.2546 96.5025L 23.5147 95.0839ZM 22.2518 99.3826C 22.0956 99.6107 21.9514 99.8454 21.8337 100.032C 21.716 100.218 21.6448 100.331 21.5595 100.437C 21.4875 100.528 21.4828 100.513 21.5483 100.468C 21.6336 100.409 21.8129 100.318 22.0584 100.307L 22.2306 104.303C 23.5394 104.247 24.3375 103.375 24.7056 102.907C 25.0788 102.42 25.3513 101.929 25.5457 101.652L 22.2518 99.3826ZM 22.0546 100.307C 20.1413 100.393 18.1845 101.535 17.3035 101.97L 19.0742 105.556C 20.4497 104.877 21.396 104.341 22.2343 104.303L 22.0546 100.307ZM 17.1402 102.06C 16.1218 102.687 14.8009 103.834 14.0922 105.327C 13.7618 106.053 13.5346 107.19 13.6444 108.114C 13.8119 109.187 14.371 110.141 15.2364 110.933L 17.9356 107.981C 17.6315 107.703 17.6025 107.536 17.5965 107.497C 17.5869 107.436 17.5857 107.295 17.7057 107.042C 17.9756 106.474 18.6256 105.843 19.2375 105.466L 17.1402 102.06ZM 15.3185 111.004C 14.9799 110.726 14.8127 110.344 14.7744 110.017C 14.7578 109.876 14.7671 109.766 14.7766 109.702C 14.7861 109.637 14.7985 109.598 14.8012 109.59C 14.8098 109.551 14.7967 109.614 14.7342 109.72C 14.6701 109.834 14.6132 109.917 14.5143 110.052C 14.3186 110.323 14.1172 110.555 13.9253 110.765C 13.835 110.864 13.7666 110.936 13.7095 110.995C 13.6837 111.022 13.6672 111.038 13.6527 111.053C 13.6468 111.059 13.6441 111.062 13.6409 111.065C 13.6399 111.066 13.639 111.067 13.6395 111.066C 13.6395 111.066 13.6401 111.066 13.6401 111.066C 13.6399 111.066 13.6408 111.065 13.6407 111.065C 13.6408 111.065 13.641 111.065 13.641 111.065C 13.6413 111.065 13.6415 111.064 15.0451 112.489C 16.4486 113.914 16.4489 113.914 16.4491 113.913C 16.4492 113.913 16.4495 113.913 16.4496 113.913C 16.4499 113.913 16.4504 113.912 16.4509 113.912C 16.4515 113.911 16.4528 113.91 16.454 113.909C 16.4558 113.907 16.4593 113.903 16.4628 113.9C 16.4686 113.894 16.4792 113.883 16.4904 113.872C 16.5104 113.852 16.5442 113.818 16.5818 113.779C 16.6517 113.707 16.7627 113.59 16.8824 113.459C 17.1106 113.208 17.4518 112.81 17.7462 112.409C 18.0376 112.007 18.408 111.38 18.5974 110.851C 18.7758 110.314 19.0663 108.903 17.8535 107.91L 15.3185 111.004ZM 13.5323 111.181C 13.2921 111.463 12.9405 111.975 12.739 112.397C 12.6348 112.634 12.5002 113.082 12.4583 113.41C 12.4196 113.835 12.4664 114.57 13.0359 115.203L 16.0085 112.526C 16.4542 113.021 16.4606 113.566 16.4419 113.771C 16.4317 113.883 16.4106 113.962 16.3995 113.998C 16.4019 113.992 16.3852 114.041 16.3847 114.041C 16.3842 114.044 16.3829 114.047 16.3794 114.055C 16.372 114.072 16.3786 114.053 16.3963 114.023C 16.4139 113.991 16.4169 113.987 16.4416 113.95C 16.489 113.878 16.5066 113.855 16.5578 113.797L 13.5323 111.181ZM 13.3533 115.487C 13.7494 115.773 14.1602 115.874 14.362 115.917C 14.5642 115.957 14.8364 115.99 15.0276 116.003C 15.387 116.024 15.7993 116.022 16.1343 116.019C 16.4694 116.016 16.7166 116.013 16.9049 116.03C 16.9837 116.036 16.9045 116.026 16.9189 116.026C 16.9114 116.024 16.5627 115.947 16.2246 115.609L 19.0525 112.78C 18.6232 112.351 18.1234 112.206 17.9194 112.153C 17.7085 112.102 17.4162 112.059 17.2223 112.043C 16.8651 112.016 16.4438 112.017 16.1038 112.019C 15.7638 112.022 15.4946 112.026 15.2829 112.011C 15.1884 112.005 15.1752 111.998 15.1889 112.004C 15.1829 112.001 15.3703 112.059 15.3301 112.046C 15.4005 112.072 15.5356 112.129 15.6911 112.241L 13.3533 115.487ZM 15.916 115.211C 16.0607 115.426 16.0658 115.443 16.0594 115.702L 20.0569 115.561C 20.0149 114.807 19.7315 113.836 19.3611 113.178L 15.916 115.211ZM 16.0641 115.478C 16.0463 115.709 16.0484 115.925 16.05 116.062C 16.052 116.228 16.0531 116.289 16.0507 116.344C 16.0485 116.394 16.046 116.331 16.0798 116.218C 16.1185 116.087 16.2096 115.873 16.4087 115.67L 19.2674 118.468C 19.9697 117.75 20.0315 116.866 20.0468 116.521C 20.0596 116.145 20.0375 115.897 20.0523 115.785L 16.0641 115.478ZM 16.3584 115.723C 16.4097 115.667 16.5337 115.565 16.7285 115.505C 16.9081 115.449 17.0468 115.461 17.0898 115.467C 17.1048 115.469 17.1249 115.475 16.9548 115.429C 16.9059 115.415 16.7451 115.37 16.5642 115.344C 16.4664 115.33 16.3125 115.314 16.1271 115.323C 15.9427 115.332 15.6663 115.369 15.3623 115.505L 16.998 119.155C 16.4838 119.386 16.0408 119.31 15.9966 119.304C 15.8988 119.29 15.8363 119.27 15.8984 119.287C 15.9856 119.311 16.253 119.384 16.5621 119.432C 16.8493 119.466 17.4461 119.446 17.9052 119.328C 18.4441 119.162 18.9224 118.849 19.3176 118.414L 16.3584 115.723ZM 15.5446 115.434C 15.1052 115.581 14.6063 115.864 14.2392 116.378C 13.9786 116.81 13.7849 117.595 13.797 118.012C 13.8758 118.929 14.4166 119.605 14.8307 119.985C 15.6322 120.72 17.4365 121.58 19.1391 120.395L 16.8534 117.112C 17.0592 116.969 17.2875 116.96 17.4101 116.984C 17.4971 117 17.5236 117.027 17.5347 117.037C 17.5458 117.047 17.584 117.084 17.6297 117.161C 17.6708 117.231 17.7594 117.403 17.7823 117.669C 17.8075 117.963 17.7461 118.35 17.4933 118.704C 17.2518 119.042 16.9575 119.179 16.8156 119.226L 15.5446 115.434ZM 19.5718 119.985C 20.2785 119.082 20.7678 119.015 21.0356 119.054L 21.6161 115.097C 19.3522 114.765 17.5852 116.032 16.4207 117.521L 19.5718 119.985ZM 21.0431 119.056C 20.9644 119.044 20.7043 118.974 20.5483 118.65C 20.4713 118.489 20.4742 118.365 20.4772 118.337C 20.4788 118.323 20.4699 118.426 20.3416 118.66L 23.8511 120.579C 24.476 119.437 24.7322 118.121 24.1534 116.917C 23.5949 115.755 22.5059 115.224 21.6086 115.096L 21.0431 119.056ZM 20.3407 118.662C 20.2565 118.818 20.1696 118.956 20.0678 119.128C 19.9626 119.307 19.8044 119.609 19.6955 119.895C 19.4177 120.672 19.4679 121.411 19.6355 122.161L 23.539 121.287C 23.4964 121.097 23.4985 121.037 23.4985 121.052C 23.4983 121.092 23.4888 121.167 23.4618 121.242C 23.4453 121.289 23.436 121.291 23.513 121.16C 23.588 121.033 23.7092 120.838 23.852 120.578L 20.3407 118.662ZM 19.7293 122.464C 19.9027 122.9 20.1598 123.276 20.312 123.497C 20.4814 123.742 20.6193 123.928 20.7236 124.103C 20.9246 124.435 20.809 124.387 20.8524 124.225L 24.7162 125.26C 25.0966 123.84 24.5441 122.689 24.1432 122.028C 23.7472 121.39 23.4343 120.88 23.4452 120.984L 19.7293 122.464ZM 20.8591 124.201C 20.7613 124.565 20.6988 124.983 20.6673 125.272C 20.6364 125.56 20.6193 125.788 20.5913 125.975C 20.5289 126.41 20.4791 126.116 20.8102 125.876L 23.1623 129.111C 24.2502 128.32 24.4686 127.115 24.5507 126.544C 24.6367 125.918 24.6321 125.499 24.7094 125.285L 20.8591 124.201ZM 21.1849 125.661C 21.0109 125.737 20.9459 125.741 20.787 125.735C 20.5007 125.728 20.028 125.655 19.2455 125.645L 19.2236 129.645C 19.7 129.641 20.1078 129.709 20.635 129.733C 21.1853 129.748 22.003 129.643 22.7876 129.326L 21.1849 125.661ZM 19.2345 125.645C 18.9781 125.645 18.604 125.689 18.2139 125.897C 17.7943 126.121 17.4869 126.467 17.3044 126.853C 17.1374 127.207 17.1027 127.532 17.0986 127.74C 17.0944 127.954 17.1209 128.133 17.1444 128.255C 17.1899 128.489 17.2628 128.694 17.3056 128.809C 17.3509 128.929 17.4002 129.049 17.4357 129.136C 17.4712 129.224 17.488 129.264 17.5014 129.305C 17.5148 129.345 17.4897 129.284 17.4743 129.164C 17.4641 129.085 17.4107 128.662 17.6622 128.176C 17.8024 127.905 18.0162 127.659 18.2955 127.477C 18.5637 127.303 18.8244 127.232 19.0137 127.205L 19.5792 131.165C 19.8407 131.127 20.1601 131.036 20.4752 130.831C 20.8012 130.619 21.05 130.333 21.2149 130.014C 21.5158 129.432 21.4709 128.882 21.4417 128.655C 21.4073 128.387 21.3356 128.156 21.2882 128.017C 21.2407 127.88 21.1823 127.731 21.1417 127.631C 21.1011 127.531 21.0734 127.465 21.0539 127.412C 21.032 127.353 21.0525 127.396 21.0712 127.493C 21.0813 127.545 21.1009 127.662 21.0978 127.819C 21.0948 127.971 21.0692 128.248 20.9212 128.562C 20.7575 128.908 20.4788 129.222 20.0992 129.425C 19.7491 129.612 19.4265 129.645 19.2345 129.645L 19.2345 125.645ZM 19.3619 127.186C 19.21 127.199 19.3124 127.23 19.1943 127.134L 17.0489 130.51C 17.635 130.862 18.5489 131.144 19.231 131.184L 19.3619 127.186ZM 19.1943 127.134C 19.0571 127.068 19.1294 127.148 19.0767 127.005L 15.5125 128.821C 15.8384 129.421 16.4819 130.129 17.0489 130.51L 19.1943 127.134ZM 18.9526 126.794C 18.5775 126.268 18.4453 125.837 18.2416 125.212C 18.0387 124.59 17.756 123.729 17.2172 122.893L 13.9048 125.135C 14.1434 125.447 14.2218 125.786 14.4385 126.452C 14.6545 127.114 15.0004 128.058 15.6366 129.031L 18.9526 126.794ZM 17.3598 123.14C 16.4159 121.198 14.7493 119.859 13.4316 118.994C 12.0804 118.116 10.8051 117.441 10.9229 117.553L 8.44928 120.697C 8.78796 120.963 9.39306 121.272 9.72602 121.453C 10.1877 121.702 10.6956 121.982 11.2376 122.339C 12.3414 123.063 13.2889 123.914 13.7622 124.888L 17.3598 123.14ZM 10.6618 117.379C 9.39713 116.672 9.02616 116.219 8.90382 116.013C 8.71104 115.795 8.75512 115.646 8.71813 114.966L 4.72405 115.183C 4.76274 115.892 4.89281 116.987 5.46535 118.057C 6.10834 119.139 7.18202 120.016 8.71036 120.871L 10.6618 117.379ZM 8.7014 114.795C 8.64737 114.412 8.50217 114.083 8.43325 113.931C 8.35194 113.753 8.2413 113.538 8.13872 113.346C 7.9378 112.971 7.69855 112.547 7.46252 112.083C 6.97936 111.137 6.56473 110.23 6.47179 109.252L 2.49885 109.716C 2.70172 111.268 3.36026 112.841 3.89868 113.899C 4.17343 114.437 4.43208 114.897 4.61253 115.234C 4.70064 115.399 4.75155 115.496 4.78971 115.582C 4.84026 115.693 4.77245 115.579 4.74078 115.355L 8.7014 114.795ZM 6.42476 108.996C 6.21593 108.243 5.87864 107.62 5.67605 107.309C 5.56857 107.145 5.5049 107.058 5.47574 107.007C 5.45662 106.976 5.51629 107.064 5.55704 107.225L 1.68 108.209C 1.7733 108.529 1.95155 108.908 2.0612 109.091C 2.16683 109.261 2.26611 109.402 2.32976 109.5C 2.46942 109.712 2.50705 109.741 2.54589 109.973L 6.42476 108.996ZM 5.51581 107.084C 5.19194 106.113 4.50522 105.325 3.65332 104.907C 2.84367 104.509 1.39885 104.294 0.34378 105.442L 3.28852 108.149C 3.03447 108.425 2.70053 108.559 2.40872 108.582C 2.14569 108.603 1.967 108.535 1.88969 108.497C 1.74121 108.424 1.72178 108.351 1.72124 108.35L 5.51581 107.084ZM 0.221817 105.588C -1.21113 107.48 -1.07917 109.56 -0.798067 110.989C -0.65698 111.694 -0.468146 112.326 -0.346213 112.783C -0.18914 113.371 -0.247041 113.351 -0.215338 113.146L 3.73756 113.758C 3.8587 112.975 3.62193 112.139 3.51802 111.75C 3.37897 111.231 3.2247 110.728 3.12674 110.217C 2.92973 109.216 2.99977 108.545 3.41048 108.003L 0.221817 105.588ZM -0.191896 113.021C -0.169568 112.92 -0.0791126 112.651 0.211594 112.411C 0.509148 112.166 0.850501 112.09 1.11278 112.1C 1.55905 112.116 1.7467 112.345 1.79973 112.425L -1.53828 114.629C -1.03122 115.397 -0.131567 116.056 0.964796 116.097C 1.44482 116.089 2.28863 115.829 2.7547 115.499C 3.29951 115.05 3.5886 114.452 3.71412 113.883L -0.191896 113.021ZM 1.79973 112.425C 2.0696 112.834 1.98861 113.162 2.00154 112.839C 2.00925 112.593 2.05697 112.246 2.11016 111.745C 2.21419 110.759 2.30106 109.238 1.96876 107.604L -1.94121 108.448C -1.68877 109.523 -1.77044 110.409 -1.86763 111.324C -1.91506 111.774 -1.97611 112.252 -1.99527 112.679C -2.00921 113.028 -2.03517 113.877 -1.53828 114.629L 1.79973 112.425ZM 1.99859 108.272C 2.24749 106.175 3.14553 103.607 4.46179 100.444C 5.78262 97.2649 7.47283 93.6733 9.21454 89.7737L 5.56223 88.1425C 3.83678 92.0063 2.12517 95.6453 0.76823 98.9081C -0.593273 102.186 -1.64895 105.271 -1.97104 107.78L 1.99859 108.272ZM 9.10681 89.9813C 10.0139 88.4003 11.1665 87.4864 12.6008 86.1386C 14.0266 84.7964 15.6869 83.018 17.1031 80.1199L 13.496 78.3911C 12.3944 80.7466 11.2067 81.9594 9.86014 83.2251C 8.52209 84.4852 6.978 85.7958 5.66996 87.9349L 9.10681 89.9813ZM 17.263 79.6364C 17.3659 79.1012 17.4518 78.7645 17.5546 78.4685C 17.6367 78.2161 17.7382 78.0885 17.689 78.1463C 17.6647 78.1804 17.5451 78.3286 17.3015 78.4363C 17.0614 78.5425 16.8618 78.5378 16.7997 78.5327C 16.793 78.5384 16.8091 78.534 16.9727 78.5761C 17.1373 78.6184 17.4158 78.6904 17.7136 78.7393C 18.4376 78.8508 19.393 78.8141 20.3572 78.1601L 18.1119 74.8498C 18.0613 74.7959 18.4948 74.8233 18.3224 74.7859C 18.242 74.7766 18.1558 74.7503 17.9688 74.7021C 17.7807 74.6538 17.4449 74.5783 17.1256 74.546C 16.7882 74.5261 16.1392 74.6052 15.6838 74.778C 15.2936 74.9706 14.7359 75.4274 14.4301 75.8268C 13.8891 76.5869 13.575 77.6437 13.3362 78.8746L 17.263 79.6364ZM 20.6456 77.9223C 21.6771 76.8685 22.4507 75.5242 22.9644 74.3973C 23.4766 73.2645 23.8406 72.2214 24.2246 71.4281C 24.6175 70.6091 24.8726 70.3892 24.9857 70.3286C 24.9923 70.3251 25.2634 70.1433 26.2657 70.5269L 27.6955 66.7912C 26.0837 66.1742 24.5043 66.05 23.0993 66.8014C 21.8009 67.4958 21.0834 68.728 20.6182 69.6978C 20.144 70.6932 19.7641 71.7753 19.3223 72.7434C 18.8819 73.7175 18.4911 74.4499 17.8235 75.0876L 20.6456 77.9223ZM 26.424 70.58C 32.2014 72.2541 36.0064 72.2051 38.7131 71.5491C 40.0357 71.2193 41.0971 70.7448 41.8096 70.3869C 42.5419 70.0177 43.0703 69.8386 42.9363 69.8372L 42.1607 65.9131C 41.3568 66.0719 40.4676 66.5845 40.0128 66.8132C 39.3684 67.1376 38.7288 67.4388 37.771 67.6617C 35.9167 68.1111 32.8424 68.2753 27.5372 66.738L 26.424 70.58ZM 43.1389 69.786C 43.5793 69.6499 43.9435 69.3896 44.1059 69.2717C 44.3079 69.1242 44.5536 68.9252 44.7763 68.7362C 45.212 68.3656 45.7104 67.9148 46.2042 67.489C 46.6983 67.0626 47.1397 66.6967 47.5534 66.4175C 48.0426 66.0844 48.0868 66.1615 47.8321 66.1782L 47.5701 62.1868C 46.6344 62.2482 45.7885 62.78 45.3022 63.1111C 44.7403 63.4962 44.1205 64.004 43.5914 64.4603C 43.0619 64.9173 42.5747 65.3582 42.1863 65.688C 41.9968 65.8491 41.8707 65.9524 41.7566 66.0343C 41.603 66.1458 41.7069 66.0418 41.9581 65.9642L 43.1389 69.786ZM 47.4591 66.1678C 47.4341 66.182 47.3754 66.1263 47.5257 66.2042C 47.6885 66.285 47.9677 66.4495 48.3954 66.6436C 49.3199 67.0545 50.5495 67.3739 52.6189 67.4532L 52.772 63.4561C 51.0715 63.391 50.3681 63.1431 50.0199 62.9883C 49.6694 62.8616 49.104 62.4357 47.9431 62.1972L 47.4591 66.1678ZM 52.5444 67.4489C 53.0846 67.4549 53.2724 67.5841 53.8926 67.8838C 54.5129 68.1835 55.4629 68.6235 56.9594 68.9199L 57.691 64.9874C 56.711 64.8232 56.2542 64.5824 55.6328 64.2822C 55.0112 63.9818 54.1224 63.5919 52.8465 63.4603L 52.5444 67.4489ZM 57.2602 68.9526C 60.488 69.0562 63.7929 68.9191 67.0009 68.5484L 66.5401 64.575C 63.4793 64.9314 60.4701 65.0563 57.3902 64.9547L 57.2602 68.9526ZM 66.9814 68.5506C 68.6416 68.3724 69.9529 68.3412 71.4828 67.9624C 73.0714 67.5541 74.7043 66.7811 77.0635 65.2778L 74.914 61.9044C 72.7192 63.303 71.4937 63.8296 70.4871 64.0883C 69.4218 64.3766 68.401 64.3797 66.5596 64.5729L 66.9814 68.5506ZM 77.2081 65.1765C 80.2209 62.8565 83.0787 60.1958 85.6075 57.3564L 82.6189 54.6978C 80.2184 57.3996 77.6359 59.804 74.7695 62.0058L 77.2081 65.1765ZM 85.5449 57.4236C 88.3927 54.4811 90.6705 50.5325 92.5131 47.2214L 89.0179 45.2764C 87.1869 48.5666 85.1996 52.072 82.6815 54.6306L 85.5449 57.4236ZM 92.5064 47.2334C 95.7083 41.5714 96.8541 38.6292 97.4319 36.7175C 98.0529 34.6626 97.8878 34.5928 98.5597 33.6923L 95.354 31.3C 94.1273 32.9438 94.0241 34.1667 93.6029 35.5603C 93.1384 37.0971 92.1379 39.7592 89.0246 45.2644L 92.5064 47.2334ZM 98.7404 33.4012C 99.047 32.7681 99.4214 32.3397 100.016 31.7353C 100.615 31.123 101.356 30.4656 102.177 29.617C 103.787 27.9464 105.696 25.4309 107.185 21.1975L 103.404 19.8925C 102.176 23.5325 100.759 25.332 99.3002 26.8382C 98.5877 27.5781 97.8585 28.2247 97.1608 28.9343C 96.459 29.6519 95.7094 30.5635 95.1734 31.5911L 98.7404 33.4012ZM 107.167 21.2482C 107.696 19.8406 108.178 19.3029 108.528 19.0598C 108.868 18.8238 109.36 18.6689 110.39 18.6536C 112.566 18.6116 115.938 19.2163 120.959 18.5445L 120.408 14.5826C 116.026 15.2173 112.9 14.6256 110.331 14.654C 108.988 14.674 107.546 14.871 106.245 15.775C 104.955 16.6719 104.091 18.0622 103.422 19.8418L 107.167 21.2482ZM 120.629 18.5628C 123.794 18.649 126.833 17.1632 129.575 15.3077C 132.323 13.4424 135.093 10.9851 137.758 8.68427L 135.144 5.65661C 132.457 7.97666 129.868 10.2847 127.333 11.9951C 124.791 13.7153 122.622 14.6156 120.738 14.5643L 120.629 18.5628ZM 137.582 8.81962C 139.857 7.24334 141.583 5.37912 142.841 4.00015C 143.47 3.31027 143.951 2.77608 144.38 2.39536C 144.833 1.9894 144.914 2.04552 144.735 2.07248L 144.141 -1.88319C 143.091 -1.72558 142.263 -1.07895 141.71 -0.582811C 141.132 -0.0614432 140.511 0.618052 139.885 1.30516C 138.631 2.68019 137.234 4.22321 135.319 5.52126L 137.582 8.81962ZM 144.708 2.07631C 146.211 1.85473 147.495 2.01084 148.901 2.58636L 150.376 -1.13182C 148.482 -1.86547 146.183 -2.14516 144.168 -1.88702L 144.708 2.07631ZM 148.55 2.40522C 148.515 2.38227 148.18 2.15647 148.043 1.63561C 147.9 1.09161 148.092 0.687867 148.158 0.573055C 148.217 0.471509 148.158 0.593423 147.586 1.01407C 146.604 1.7384 144.956 2.76189 143.697 4.03868L 146.569 6.82276C 147.455 5.88534 148.834 5.05909 149.956 4.23623C 150.436 3.88329 151.198 3.30725 151.621 2.57566C 151.869 2.14582 152.129 1.44403 151.912 0.617988C 151.7 -0.184912 151.149 -0.676734 150.727 -0.950678L 148.55 2.40522Z"/>
<path id="path2_fill" d="M 68.8035 42.9526C 69.0168 43.2001 69.7804 43.2757 69.8148 43.7433C 69.8698 44.0872 70.7848 45.0705 71.5621 45.9988L 70.8742 46.3357L 68.6935 47.2228L 68.0468 48.3299L 67.9161 49.437L 65.3432 49.994L 65.0887 51.1011L 61.7454 53.4322L 58.7873 54.3192L 56.8611 55.0894L 54.0337 55.0894L 53.0018 54.6493L 51.7222 56.2034L 49.796 57.0904L 47.6084 57.4205L 46.3013 58.9745L 43.474 59.3046L 42.0568 58.617L 39.993 57.8468L 38.3213 58.2869L 37.1656 58.2869L 36.519 57.5099L 34.7716 55.5501L 33.9461 54.2986L 32.1506 54.2986L 30.6097 55.0344L 29.963 55.1513L 29.3232 54.3674L 29.963 52.4901L 32.1506 50.8191L 31.8892 50.049L 27.6516 48.825L 24.8242 48.6049L 22.6366 48.6049L 21.7354 47.3878L 20.5796 46.6108L 20.9649 45.1668L 20.8342 43.8396L 19.9399 42.5056L 18.1375 42.2856L 17.2363 43.6196L 17.883 43.8396L 18.1375 44.9467L 15.826 47.6973L 15.3445 46.9959L 12.524 45.7856L 12.008 44.4516L 9.15312 43.3445L 8.60965 43.3445C 8.42396 43.0519 8.21945 42.7717 7.9974 42.5056C 6.62154 40.5596 5.9336 42.43 4.61277 42.4231C 2.54898 42.1755 -0.601734 48.3712 0.0999551 42.6431C 0.83604 40.5115 3.5396 38.7167 3.7735 38.091C 4.0074 37.4652 4.97051 35.4779 2.90672 34.1508C 2.30822 33.7726 0.650304 34.0064 0.320098 33.2431C 0.0233838 32.3316 -0.0147192 31.3557 0.210026 30.4238C 0.588388 25.9542 2.56964 26.298 2.73474 24.0975C 2.88608 21.2026 -1.2484 21.4776 0.629654 17.5925C 2.51458 14.1543 3.89733 12.5865 6.70409 10.9568C 7.58464 10.0353 7.68095 8.3575 8.80915 7.93804C 11.1344 6.86533 11.2307 7.25041 15.8535 5.98515C 18.2063 5.53131 22.0449 6.19832 25.2232 7.95867C 26.4202 8.8526 25.4295 10.4204 23.6891 12.0845C 23.1456 12.6002 23.2694 15.447 24.604 15.4058C 25.0305 15.447 25.7254 13.9274 25.6841 13.0472C 25.3332 10.6886 27.4865 11.8026 28.4358 10.8467C 29.4952 9.59525 27.6928 9.76028 31.6347 6.83094C 32.3708 5.69634 30.417 3.2346 36.8079 2.70512C 44.8429 3.15208 43.4946 1.5155 44.8154 1.74242C 50.9036 3.86722 49.2182 -0.396131 52.8436 0.0302049C 55.3614 0.236496 61.1469 12.7378 69.6084 10.5373C 70.0418 10.5373 70.0143 11.0324 70.1244 11.3487C 66.3339 21.9865 68.6453 27.5426 69.2025 33.9926C 69.6635 38.0841 71.5209 37.809 72.0574 40.0645C 72.1675 40.5527 71.8786 41.0891 71.8786 41.5979C 71.0386 41.7021 70.1878 41.6813 69.3539 41.536C 68.0743 41.1785 67.5377 41.4879 68.8035 42.9526Z"/>
<path id="path3_stroke_2x" d="M 68.8035 42.9526L 70.3188 41.6472L 70.3167 41.6448L 68.8035 42.9526ZM 69.8148 43.7433L 67.8202 43.8901L 67.8264 43.9752L 67.8399 44.0595L 69.8148 43.7433ZM 71.5621 45.9988L 72.4419 47.7949L 74.7345 46.672L 73.0955 44.7148L 71.5621 45.9988ZM 70.8742 46.3357L 71.6278 48.1883L 71.6918 48.1623L 71.7539 48.1319L 70.8742 46.3357ZM 68.6935 47.2228L 67.9399 45.3702L 67.3096 45.6265L 66.9665 46.2141L 68.6935 47.2228ZM 68.0468 48.3299L 66.3198 47.3212L 66.1095 47.6813L 66.0606 48.0954L 68.0468 48.3299ZM 67.9161 49.437L 68.3393 51.3917L 69.7349 51.0896L 69.9023 49.6714L 67.9161 49.437ZM 65.3432 49.994L 64.9201 48.0393L 63.6787 48.308L 63.3941 49.5459L 65.3432 49.994ZM 65.0887 51.1011L 66.2326 52.7417L 66.8651 52.3007L 67.0379 51.5492L 65.0887 51.1011ZM 61.7454 53.4322L 62.3198 55.3479L 62.6266 55.2559L 62.8893 55.0728L 61.7454 53.4322ZM 58.7873 54.3192L 58.2128 52.4035L 58.1275 52.4291L 58.0448 52.4622L 58.7873 54.3192ZM 56.8611 55.0894L 56.8611 57.0894L 57.2461 57.0894L 57.6036 56.9464L 56.8611 55.0894ZM 54.0337 55.0894L 53.2491 56.929L 53.625 57.0894L 54.0337 57.0894L 54.0337 55.0894ZM 53.0018 54.6493L 53.7864 52.8096L 52.4093 52.2223L 51.4578 53.378L 53.0018 54.6493ZM 51.7222 56.2034L 52.5588 58.02L 52.975 57.8283L 53.2662 57.4746L 51.7222 56.2034ZM 49.796 57.0904L 50.0944 59.068L 50.3749 59.0257L 50.6326 58.907L 49.796 57.0904ZM 47.6084 57.4205L 47.31 55.4428L 46.5637 55.5555L 46.0778 56.1331L 47.6084 57.4205ZM 46.3013 58.9745L 46.5332 60.961L 47.3213 60.869L 47.832 60.2619L 46.3013 58.9745ZM 43.474 59.3046L 42.6009 61.104L 43.126 61.3588L 43.7059 61.2911L 43.474 59.3046ZM 42.0568 58.617L 42.9299 56.8176L 42.8447 56.7763L 42.756 56.7432L 42.0568 58.617ZM 39.993 57.8468L 40.6923 55.973L 40.0976 55.7511L 39.4838 55.9127L 39.993 57.8468ZM 38.3213 58.2869L 38.3213 60.2869L 38.5802 60.2869L 38.8305 60.221L 38.3213 58.2869ZM 37.1656 58.2869L 35.6283 59.5662L 36.2281 60.2869L 37.1656 60.2869L 37.1656 58.2869ZM 36.519 57.5099L 38.0563 56.2305L 38.0345 56.2043L 38.0118 56.1789L 36.519 57.5099ZM 34.7716 55.5501L 33.1021 56.6513L 33.1821 56.7726L 33.2788 56.8811L 34.7716 55.5501ZM 33.9461 54.2986L 35.6156 53.1974L 35.0228 52.2986L 33.9461 52.2986L 33.9461 54.2986ZM 32.1506 54.2986L 32.1506 52.2986L 31.6976 52.2986L 31.2889 52.4938L 32.1506 54.2986ZM 30.6097 55.0344L 30.9655 57.0025L 31.2294 56.9547L 31.4714 56.8392L 30.6097 55.0344ZM 29.963 55.1513L 28.4135 56.4158L 29.1588 57.3291L 30.3188 57.1194L 29.963 55.1513ZM 29.3232 54.3674L 27.4301 53.7222L 27.0722 54.7724L 27.7738 55.6319L 29.3232 54.3674ZM 29.963 52.4901L 28.749 50.9007L 28.266 51.2696L 28.0699 51.8449L 29.963 52.4901ZM 32.1506 50.8191L 33.3646 52.4085L 34.5062 51.5366L 34.0445 50.1763L 32.1506 50.8191ZM 31.8892 50.049L 33.7831 49.4061L 33.4474 48.4173L 32.4442 48.1275L 31.8892 50.049ZM 27.6516 48.825L 28.2066 46.9035L 28.0104 46.8469L 27.8067 46.831L 27.6516 48.825ZM 24.8242 48.6049L 24.9793 46.611L 24.9019 46.6049L 24.8242 46.6049L 24.8242 48.6049ZM 22.6366 48.6049L 21.0292 49.7951L 21.6288 50.6049L 22.6366 50.6049L 22.6366 48.6049ZM 21.7354 47.3878L 23.3427 46.1977L 23.1375 45.9205L 22.8513 45.7281L 21.7354 47.3878ZM 20.5796 46.6108L 18.6472 46.0952L 18.2793 47.4742L 19.4637 48.2705L 20.5796 46.6108ZM 20.9649 45.1668L 22.8973 45.6823L 22.9908 45.3318L 22.9553 44.9707L 20.9649 45.1668ZM 20.8342 43.8396L 22.8245 43.6436L 22.7753 43.1434L 22.4954 42.7259L 20.8342 43.8396ZM 19.9399 42.5056L 21.6011 41.3919L 21.0912 40.6313L 20.1822 40.5203L 19.9399 42.5056ZM 18.1375 42.2856L 18.3799 40.3003L 17.1652 40.152L 16.4802 41.166L 18.1375 42.2856ZM 17.2363 43.6196L 15.579 42.5L 14.1134 44.6696L 16.592 45.513L 17.2363 43.6196ZM 17.883 43.8396L 19.8321 43.3915L 19.5824 42.3053L 18.5272 41.9462L 17.883 43.8396ZM 18.1375 44.9467L 19.6686 46.2334L 20.31 45.4702L 20.0866 44.4986L 18.1375 44.9467ZM 15.826 47.6973L 14.1773 48.8293L 15.6656 50.997L 17.3572 48.984L 15.826 47.6973ZM 15.3445 46.9959L 16.9933 45.8638L 16.6654 45.3863L 16.1331 45.1579L 15.3445 46.9959ZM 12.524 45.7856L 10.6586 46.5071L 10.9621 47.2918L 11.7353 47.6236L 12.524 45.7856ZM 12.008 44.4516L 13.8734 43.7302L 13.5547 42.9063L 12.7311 42.5869L 12.008 44.4516ZM 9.15312 43.3445L 9.87622 41.4798L 9.52733 41.3445L 9.15312 41.3445L 9.15312 43.3445ZM 8.60965 43.3445L 6.92098 44.4162L 7.51013 45.3445L 8.60965 45.3445L 8.60965 43.3445ZM 7.9974 42.5056L 6.36434 43.6602L 6.41055 43.7256L 6.46185 43.787L 7.9974 42.5056ZM 4.61277 42.4231L 4.37458 44.4088L 4.48807 44.4225L 4.60236 44.4231L 4.61277 42.4231ZM 0.0999551 42.6431L -1.79051 41.9903L -1.8595 42.1901L -1.88521 42.3999L 0.0999551 42.6431ZM 3.7735 38.091L 1.90009 37.3907L 3.7735 38.091ZM 2.90672 34.1508L 3.98848 32.4686L 3.98181 32.4643L 3.97511 32.4601L 2.90672 34.1508ZM 0.320098 33.2431L -1.58168 33.8622L -1.55269 33.9512L -1.51549 34.0372L 0.320098 33.2431ZM 0.210026 30.4238L 2.15428 30.8927L 2.19004 30.7445L 2.2029 30.5925L 0.210026 30.4238ZM 2.73474 24.0975L 4.72913 24.2472L 4.73083 24.2246L 4.73201 24.2019L 2.73474 24.0975ZM 0.629654 17.5925L -1.12409 16.631L -1.14871 16.6759L -1.171 16.7221L 0.629654 17.5925ZM 6.70409 10.9568L 7.70835 12.6864L 7.95387 12.5438L 8.15002 12.3385L 6.70409 10.9568ZM 8.80915 7.93804L 9.50613 9.81267L 9.57767 9.78607L 9.64697 9.7541L 8.80915 7.93804ZM 15.8535 5.98515L 15.4747 4.02136L 15.3995 4.03587L 15.3256 4.0561L 15.8535 5.98515ZM 25.2232 7.95867L 26.4199 6.35622L 26.311 6.27493L 26.1922 6.20911L 25.2232 7.95867ZM 23.6891 12.0845L 25.0658 13.5353L 25.0712 13.5301L 23.6891 12.0845ZM 24.604 15.4058L 24.7966 13.4151L 24.6697 13.4028L 24.5422 13.4067L 24.604 15.4058ZM 25.6841 13.0472L 27.6819 12.9535L 27.6772 12.8527L 27.6623 12.7529L 25.6841 13.0472ZM 28.4358 10.8467L 29.8548 12.2561L 29.9109 12.1997L 29.9623 12.139L 28.4358 10.8467ZM 31.6347 6.83094L 32.8276 8.43621L 33.1166 8.22148L 33.3125 7.91946L 31.6347 6.83094ZM 36.8079 2.70512L 36.919 0.708203L 36.7808 0.700514L 36.6428 0.711945L 36.8079 2.70512ZM 44.8154 1.74242L 45.4744 -0.14588L 45.3177 -0.200588L 45.1541 -0.2287L 44.8154 1.74242ZM 52.8436 0.0302049L 52.61 2.01652L 52.6451 2.02064L 52.6802 2.02353L 52.8436 0.0302049ZM 69.6084 10.5373L 69.6084 8.53731L 69.3526 8.53731L 69.1051 8.60169L 69.6084 10.5373ZM 70.1244 11.3487L 72.0083 12.02L 72.2447 11.3566L 72.0133 10.6914L 70.1244 11.3487ZM 69.2025 33.9926L 67.21 34.1648L 67.2122 34.1907L 67.2151 34.2165L 69.2025 33.9926ZM 72.0574 40.0645L 74.0085 39.6246L 74.0059 39.6131L 74.0031 39.6016L 72.0574 40.0645ZM 71.8786 41.5979L 72.1248 43.5827L 73.8786 43.3652L 73.8786 41.5979L 71.8786 41.5979ZM 69.3539 41.536L 68.8156 43.4622L 68.9121 43.4892L 69.0107 43.5064L 69.3539 41.536ZM 67.2883 44.2579C 67.4831 44.4841 67.6876 44.632 67.8228 44.7192C 67.9624 44.8092 68.0922 44.875 68.1784 44.9165C 68.2598 44.9554 68.3431 44.9925 68.3971 45.0164C 68.4511 45.0404 68.4747 45.0506 68.4989 45.0627C 68.556 45.0906 68.4349 45.0422 68.2858 44.8988C 68.2004 44.8166 68.0897 44.6886 67.9956 44.5077C 67.8983 44.3204 67.8363 44.1095 67.8202 43.8901L 71.8094 43.5966C 71.7566 42.8794 71.4067 42.3506 71.0587 42.0159C 70.7501 41.719 70.4183 41.5486 70.2536 41.4682C 70.0804 41.3849 69.9593 41.3356 69.9149 41.3131C 69.8212 41.2679 70.0764 41.3658 70.3188 41.6472L 67.2883 44.2579ZM 67.8399 44.0595C 67.9332 44.6421 68.2615 45.1082 68.349 45.2366C 68.4921 45.4446 68.6904 45.7001 68.8726 45.9219C 69.2289 46.3548 69.6579 46.8396 70.0288 47.2828L 73.0955 44.7148C 72.689 44.2296 72.2719 43.7587 71.9626 43.3819C 71.812 43.1988 71.7227 43.086 71.6544 42.9839C 71.627 42.9446 71.6552 42.9885 71.6509 42.9834C 71.6567 42.9945 71.7472 43.1619 71.7896 43.4272L 67.8399 44.0595ZM 70.6824 44.2027L 69.9945 44.5396L 71.7539 48.1319L 72.4419 47.7949L 70.6824 44.2027ZM 70.1206 44.4831L 67.9399 45.3702L 69.447 49.0754L 71.6278 48.1883L 70.1206 44.4831ZM 66.9665 46.2141L 66.3198 47.3212L 69.7738 49.3386L 70.4204 48.2315L 66.9665 46.2141ZM 66.0606 48.0954L 65.9299 49.2025L 69.9023 49.6714L 70.033 48.5643L 66.0606 48.0954ZM 67.4929 47.4823L 64.9201 48.0393L 65.7664 51.9487L 68.3393 51.3917L 67.4929 47.4823ZM 63.3941 49.5459L 63.1396 50.653L 67.0379 51.5492L 67.2924 50.4421L 63.3941 49.5459ZM 63.9448 49.4605L 60.6015 51.7916L 62.8893 55.0728L 66.2326 52.7417L 63.9448 49.4605ZM 61.1709 51.5164L 58.2128 52.4035L 59.3617 56.2349L 62.3198 55.3479L 61.1709 51.5164ZM 58.0448 52.4622L 56.1186 53.2323L 57.6036 56.9464L 59.5298 56.1763L 58.0448 52.4622ZM 56.8611 53.0894L 54.0337 53.0894L 54.0337 57.0894L 56.8611 57.0894L 56.8611 53.0894ZM 54.8183 53.2497L 53.7864 52.8096L 52.2172 56.489L 53.2491 56.929L 54.8183 53.2497ZM 51.4578 53.378L 50.1782 54.9321L 53.2662 57.4746L 54.5458 55.9205L 51.4578 53.378ZM 50.8857 54.3867L 48.9594 55.2738L 50.6326 58.907L 52.5588 58.02L 50.8857 54.3867ZM 49.4976 55.1128L 47.31 55.4428L 47.9068 59.3981L 50.0944 59.068L 49.4976 55.1128ZM 46.0778 56.1331L 44.7707 57.6872L 47.832 60.2619L 49.139 58.7078L 46.0778 56.1331ZM 46.0694 56.988L 43.2421 57.3181L 43.7059 61.2911L 46.5332 60.961L 46.0694 56.988ZM 44.3471 57.5052L 42.9299 56.8176L 41.1837 60.4163L 42.6009 61.104L 44.3471 57.5052ZM 42.756 56.7432L 40.6923 55.973L 39.2938 59.7206L 41.3576 60.4907L 42.756 56.7432ZM 39.4838 55.9127L 37.8122 56.3528L 38.8305 60.221L 40.5022 59.7809L 39.4838 55.9127ZM 38.3213 56.2869L 37.1656 56.2869L 37.1656 60.2869L 38.3213 60.2869L 38.3213 56.2869ZM 38.7029 57.0075L 38.0563 56.2305L 34.9817 58.7892L 35.6283 59.5662L 38.7029 57.0075ZM 38.0118 56.1789L 36.2644 54.2191L 33.2788 56.8811L 35.0262 58.8409L 38.0118 56.1789ZM 36.4411 54.4488L 35.6156 53.1974L 32.2766 55.3998L 33.1021 56.6513L 36.4411 54.4488ZM 33.9461 52.2986L 32.1506 52.2986L 32.1506 56.2986L 33.9461 56.2986L 33.9461 52.2986ZM 31.2889 52.4938L 29.7479 53.2295L 31.4714 56.8392L 33.0124 56.1034L 31.2889 52.4938ZM 30.2538 53.0663L 29.6072 53.1832L 30.3188 57.1194L 30.9655 57.0025L 30.2538 53.0663ZM 31.5125 53.8867L 30.8727 53.1028L 27.7738 55.6319L 28.4135 56.4158L 31.5125 53.8867ZM 31.2163 55.0125L 31.8561 53.1353L 28.0699 51.8449L 27.4301 53.7222L 31.2163 55.0125ZM 31.177 54.0795L 33.3646 52.4085L 30.9366 49.2298L 28.749 50.9007L 31.177 54.0795ZM 34.0445 50.1763L 33.7831 49.4061L 29.9953 50.6918L 30.2567 51.462L 34.0445 50.1763ZM 32.4442 48.1275L 28.2066 46.9035L 27.0966 50.7464L 31.3342 51.9704L 32.4442 48.1275ZM 27.8067 46.831L 24.9793 46.611L 24.669 50.5989L 27.4964 50.819L 27.8067 46.831ZM 24.8242 46.6049L 22.6366 46.6049L 22.6366 50.6049L 24.8242 50.6049L 24.8242 46.6049ZM 24.2439 47.4148L 23.3427 46.1977L 20.128 48.578L 21.0292 49.7951L 24.2439 47.4148ZM 22.8513 45.7281L 21.6955 44.951L 19.4637 48.2705L 20.6195 49.0476L 22.8513 45.7281ZM 22.512 47.1263L 22.8973 45.6823L 19.0325 44.6512L 18.6472 46.0952L 22.512 47.1263ZM 22.9553 44.9707L 22.8245 43.6436L 18.8438 44.0356L 18.9745 45.3628L 22.9553 44.9707ZM 22.4954 42.7259L 21.6011 41.3919L 18.2786 43.6193L 19.1729 44.9533L 22.4954 42.7259ZM 20.1822 40.5203L 18.3799 40.3003L 17.8951 44.2708L 19.6975 44.4909L 20.1822 40.5203ZM 16.4802 41.166L 15.579 42.5L 18.8936 44.7391L 19.7948 43.4051L 16.4802 41.166ZM 16.592 45.513L 17.2387 45.733L 18.5272 41.9462L 17.8806 41.7262L 16.592 45.513ZM 15.9338 44.2877L 16.1883 45.3948L 20.0866 44.4986L 19.8321 43.3915L 15.9338 44.2877ZM 16.6063 43.66L 14.2949 46.4106L 17.3572 48.984L 19.6686 46.2334L 16.6063 43.66ZM 17.4748 46.5652L 16.9933 45.8638L 13.6957 48.1279L 14.1773 48.8293L 17.4748 46.5652ZM 16.1331 45.1579L 13.3126 43.9477L 11.7353 47.6236L 14.5558 48.8338L 16.1331 45.1579ZM 14.3893 45.0642L 13.8734 43.7302L 10.1427 45.1731L 10.6586 46.5071L 14.3893 45.0642ZM 12.7311 42.5869L 9.87622 41.4798L 8.43001 45.2092L 11.2849 46.3163L 12.7311 42.5869ZM 9.15312 41.3445L 8.60965 41.3445L 8.60965 45.3445L 9.15312 45.3445L 9.15312 41.3445ZM 10.2983 42.2729C 10.0769 41.926 9.79582 41.5408 9.53295 41.2242L 6.46185 43.787C 6.64308 44.0026 6.77099 44.1778 6.92098 44.4162L 10.2983 42.2729ZM 9.63046 41.351C 9.18433 40.72 8.58459 40.0853 7.74 39.7869C 6.8031 39.4559 5.99098 39.6818 5.48051 39.9059C 5.06056 40.0995 4.74407 40.3087 4.56901 40.3979C 4.41144 40.4814 4.4685 40.4223 4.62319 40.4231L 4.60236 44.4231C 5.41746 44.4273 6.05582 44.1369 6.44172 43.9325C 6.62618 43.8339 6.7917 43.7349 6.90716 43.6678C 7.02183 43.601 7.04875 43.5833 7.08839 43.5685C 7.09836 43.5641 7.02349 43.5992 6.8899 43.614C 6.73929 43.6307 6.56877 43.6154 6.4077 43.5585C 6.12033 43.457 6.12254 43.3182 6.36434 43.6602L 9.63046 41.351ZM 4.85097 40.4373C 4.07621 40.3444 3.4053 40.5678 2.93712 40.7909C 2.51498 40.999 2.03594 41.3226 1.69421 41.5926C 1.02787 42.1266 0.443501 42.7161 0.0354739 43.0547C -0.187816 43.2417 -0.212013 43.2292 -0.104187 43.1836C -0.0376532 43.1554 0.194938 43.0644 0.53323 43.0836C 0.931499 43.1062 1.33115 43.2749 1.63175 43.5749C 2.08383 44.0262 2.02434 44.4805 2.00408 44.1469C 1.98471 43.8801 2.0047 43.5327 2.08512 42.8863L -1.88521 42.3999C -1.98021 43.1856 -2.01525 43.8976 -1.98857 44.3893C -1.96277 44.8142 -1.87511 45.7262 -1.19408 46.406C -0.227398 47.3709 0.958644 47.0773 1.45482 46.8673C 1.9359 46.6637 2.34747 46.3359 2.60315 46.1218C 3.15306 45.6586 3.69948 45.1036 4.18241 44.7245C 4.79579 44.2372 4.77316 44.4567 4.37458 44.4088L 4.85097 40.4373ZM 1.99042 43.2959C 2.19625 42.6999 2.75614 41.996 3.5359 41.2199C 3.90367 40.8532 4.27803 40.5117 4.59846 40.2005C 4.76325 40.0401 4.95121 39.8478 5.09201 39.6864C 5.21054 39.5492 5.48457 39.2255 5.6469 38.7912L 1.90009 37.3907C 2.00396 37.1128 2.14233 36.9821 2.06537 37.0712C 2.01067 37.1361 1.94329 37.2032 1.81023 37.3324C 1.53496 37.6004 1.14356 37.9581 0.714194 38.3848C -0.10032 39.1954 -1.26025 40.4547 -1.79051 41.9903L 1.99042 43.2959ZM 5.6469 38.7912C 5.73749 38.5452 6.14022 37.567 6.20148 36.4164C 6.22388 35.0383 5.647 33.5351 3.98848 32.4686L 1.82496 35.833C 2.08103 35.9977 2.14929 36.1182 2.16609 36.151C 2.18552 36.1889 2.20374 36.2446 2.20201 36.3514C 2.19699 36.6601 2.07747 36.9162 1.90009 37.3907L 5.6469 38.7912ZM 3.97511 32.4601C 3.46648 32.1387 2.90672 32.0335 2.64408 31.9872C 2.33496 31.9337 2.04423 31.9013 1.8264 31.8661C 1.61068 31.8325 1.54951 31.7969 1.57314 31.818C 1.61819 31.8375 1.96039 31.9976 2.15569 32.449L -1.51549 34.0372C -1.15509 34.8703 -0.481824 35.2874 -0.0143455 35.4895C 0.384451 35.651 0.884349 35.766 1.1992 35.8166C 1.51194 35.8657 1.76855 35.8934 1.94893 35.9263C 2.17579 35.9664 2.04772 35.9738 1.83833 35.8415L 3.97511 32.4601ZM 2.22188 32.6241C 1.99219 31.9797 1.97552 31.553 2.15428 30.8927L -1.73423 29.9549C -2.00496 31.1584 -1.94542 32.6835 -1.58168 33.8622L 2.22188 32.6241ZM 2.2029 30.5925C 2.36015 28.7349 2.81197 28.0616 3.1499 27.613C 3.51389 27.1297 4.59112 26.0865 4.72913 24.2472L 0.740345 23.9479C 0.713252 24.309 0.71731 24.1941 -0.0451906 25.2064C -0.833748 26.2534 -1.56173 27.6431 -1.78285 30.2551L 2.2029 30.5925ZM 4.73201 24.2019C 4.86632 21.6328 2.86329 20.2159 2.44781 19.801C 2.13469 19.4928 2.11593 19.5499 2.14323 19.4221C 2.1135 19.3261 2.11392 19.3961 2.15512 19.225C 2.19138 18.9956 2.24725 18.8323 2.43031 18.4629L -1.171 16.7221C -1.75493 17.93 -2.01442 19.1092 -1.76812 20.2596C -1.49854 21.2633 -0.84527 22.1611 -0.378447 22.6316C 0.765968 23.7743 0.754498 23.6673 0.737466 23.9931L 4.73201 24.2019ZM 2.38339 18.5539C 4.15144 15.3035 5.16585 14.1327 7.70835 12.6864L 5.69983 9.22719C 2.62882 11.0402 0.877722 13.0051 -1.12409 16.631L 2.38339 18.5539ZM 8.15002 12.3385C 8.88446 11.57 9.30849 10.4626 9.47469 10.108C 9.7605 9.49823 9.77951 9.71103 9.50613 9.81267L 8.11218 6.06341C 6.71059 6.58451 6.11735 7.84596 5.85281 8.41034C 5.46866 9.22991 5.40426 9.42211 5.25816 9.575L 8.15002 12.3385ZM 9.64697 9.7541C 10.6659 9.27735 11.065 9.16936 11.8986 8.98727C 12.7602 8.79785 13.9898 8.56702 16.3815 7.91421L 15.3256 4.0561C 13.0944 4.66854 11.9645 4.87779 11.0408 5.08033C 10.0893 5.29018 9.27757 5.52602 7.97133 6.12199L 9.64697 9.7541ZM 16.2324 7.94895C 18.0201 7.60409 21.3823 8.1176 24.2541 9.70823L 26.1922 6.20911C 22.7075 4.27903 18.3924 3.45853 15.4747 4.02136L 16.2324 7.94895ZM 24.0264 9.56112C 23.9654 9.51551 23.8038 9.34401 23.7588 9.06547C 23.7239 8.8497 23.7946 8.77502 23.7293 8.92206C 23.5807 9.2574 23.1414 9.84107 22.3069 10.6389L 25.0712 13.5301C 25.9772 12.6638 26.9035 11.6316 27.386 10.5435C 27.6364 9.97883 27.839 9.24057 27.7076 8.42742C 27.566 7.55149 27.0795 6.84879 26.4199 6.35622L 24.0264 9.56112ZM 22.3124 10.6337C 21.6351 11.2765 21.4824 12.1789 21.4317 12.5694C 21.3744 13.0521 21.3857 13.7506 21.4701 14.2862C 21.5671 14.8254 21.848 15.614 22.19 16.1334C 22.6558 16.7905 23.4884 17.4412 24.6658 17.4048L 24.5422 13.4067C 24.7509 13.4003 24.9694 13.4547 25.1574 13.563C 25.3303 13.6626 25.4207 13.7743 25.4532 13.8201C 25.485 13.8649 25.4824 13.8755 25.4656 13.8289C 25.4498 13.7855 25.4303 13.7159 25.4145 13.6219C 25.3811 13.4233 25.3809 13.2192 25.3985 13.0842C 25.4071 13.0174 25.4143 13.0132 25.3982 13.0578C 25.3894 13.0821 25.3674 13.1383 25.3236 13.2134C 25.2813 13.286 25.2011 13.4068 25.0658 13.5352L 22.3124 10.6337ZM 24.4115 17.3965C 25.0864 17.4618 25.6018 17.2023 25.8743 17.0229C 26.0814 16.8766 26.3612 16.6152 26.4994 16.4535C 26.7208 16.1759 26.9823 15.7385 27.1381 15.4043C 27.4264 14.7743 27.7235 13.8401 27.6819 12.9535L 23.6863 13.1409C 23.6761 13.104 23.6947 13.1496 23.6517 13.3105C 23.6116 13.4819 23.577 13.5781 23.5009 13.7398C 23.4348 13.8904 23.3901 13.9267 23.4177 13.9034C 23.4286 13.8902 23.5109 13.7898 23.6749 13.6819C 23.8279 13.5811 24.2282 13.3601 24.7966 13.4151L 24.4115 17.3965ZM 27.6623 12.7529C 27.6062 12.3757 27.7309 12.6136 27.4779 12.9798C 27.2113 13.3655 26.8611 13.4054 27.0049 13.3736C 27.0815 13.3551 27.1645 13.3449 27.3277 13.3225C 27.491 13.3001 27.7228 13.2678 27.9531 13.2223C 28.4249 13.1267 29.2031 12.9123 29.8548 12.2561L 27.0168 9.43735C 27.1938 9.25914 27.3469 9.26386 27.1589 9.30194C 26.9578 9.34703 26.5927 9.3736 26.1398 9.46825C 25.6705 9.57222 24.7884 9.83566 24.1872 10.7057C 23.5994 11.5562 23.5865 12.5394 23.7058 13.3415L 27.6623 12.7529ZM 29.9623 12.139C 30.43 11.5864 30.676 11.0579 30.7888 10.4986C 30.827 10.296 30.8435 10.1475 30.8521 10.0947C 30.8602 10.037 30.8314 10.1756 30.8345 10.1499C 30.7799 10.3004 30.8241 9.92509 32.8276 8.43621L 30.4417 5.22567C 28.5034 6.66613 27.4779 7.67296 27.0741 8.78618C 26.8947 9.37719 26.8571 9.70273 26.8677 9.7079C 26.8695 9.6638 26.9793 9.51548 26.9093 9.55454L 29.9623 12.139ZM 33.3125 7.91946C 33.8484 7.09343 33.8405 6.11526 33.8522 5.88335C 33.8721 5.49092 33.9608 5.37988 33.8976 5.4193C 33.7865 5.64663 33.8403 4.95783 36.973 4.69829L 36.6428 0.711945C 33.3847 0.98188 31.2199 1.7887 30.3039 3.66292C 29.9646 4.44695 29.8779 5.27601 29.8574 5.68081C 29.8287 6.24613 29.789 6.00115 29.9568 5.74243L 33.3125 7.91946ZM 36.6968 4.70203C 40.7661 4.92839 42.8026 4.65891 44.0567 4.16939C 44.7561 3.86982 45.1156 3.60124 45.1902 3.56015C 45.1998 3.55367 45.0568 3.62861 45.0922 3.61052C 45.1303 3.59573 44.7681 3.71168 44.8338 3.69405C 44.6235 3.73834 44.4808 3.71424 44.4768 3.71354L 45.1541 -0.2287C 44.8142 -0.279219 44.3137 -0.273791 44.0095 -0.220107C 43.6575 -0.129189 43.2542 0.0565321 43.0837 0.159785C 42.7886 0.347761 42.7353 0.41784 42.6023 0.443185C 42.1916 0.603478 40.8847 0.928805 36.919 0.708203L 36.6968 4.70203ZM 44.1564 3.63072C 45.8137 4.20912 47.1861 4.44451 48.3762 4.29593C 49.587 4.08918 50.6069 3.45775 51.1245 2.97896C 51.6411 2.48202 51.8534 2.16657 52.0471 2.06603C 52.056 2.05993 52.1354 1.9607 52.61 2.01652L 53.0771 -1.95611C 51.7391 -2.11346 50.6696 -1.83964 49.7846 -1.23267C 49.0845 -0.720142 48.6578 -0.182495 48.3816 0.0675185C 48.1063 0.335673 48.1794 0.345031 47.8807 0.32674C 47.5613 0.366618 46.8613 0.338126 45.4744 -0.14588L 44.1564 3.63072ZM 52.6802 2.02353C 52.3108 1.99325 52.2543 1.81977 52.6361 2.14792C 52.9721 2.43283 53.3413 2.83054 53.8353 3.39114C 54.8361 4.52547 56.0942 6.07852 57.5687 7.58621C 60.4314 10.507 64.7288 13.8728 70.1118 12.4729L 69.1051 8.60169C 66.0265 9.40228 63.2004 7.61767 60.4255 4.78636C 59.0812 3.418 57.892 1.94458 56.8355 0.74567C 56.3008 0.139652 55.7388 -0.455953 55.2434 -0.885595C 54.7938 -1.272 54.0058 -1.88127 53.0069 -1.96312L 52.6802 2.02353ZM 69.6084 12.5373C 69.3008 12.5373 68.9025 12.4353 68.5569 12.1399C 68.2571 11.8837 68.1443 11.605 68.1143 11.5247C 68.0863 11.4498 68.0798 11.4021 68.1035 11.5115C 68.114 11.56 68.159 11.7863 68.2355 12.006L 72.0133 10.6914C 72.0347 10.753 72.0419 10.7987 72.013 10.6655C 71.992 10.5683 71.9354 10.3368 71.861 10.124C 71.77 9.8805 71.5758 9.45825 71.1559 9.09929C 70.6901 8.70116 70.1327 8.53731 69.6084 8.53731L 69.6084 12.5373ZM 68.2404 10.6774C 64.2581 21.8535 66.6864 28.1045 67.21 34.1648L 71.1951 33.8205C 70.6042 26.9807 68.4097 22.1195 72.0083 12.02L 68.2404 10.6774ZM 67.2151 34.2165C 67.4893 36.6502 68.224 37.9629 69.0497 38.9786C 69.7704 39.8498 70.0911 39.9934 70.1118 40.5274L 74.0031 39.6016C 73.4873 37.8801 72.6109 37.0335 72.1535 36.4555C 71.8012 36.022 71.3767 35.4265 71.19 33.7688L 67.2151 34.2165ZM 70.1064 40.5043C 70.0753 40.3661 70.0829 40.2711 70.0843 40.2563C 70.0833 40.2352 70.0825 40.2771 70.0585 40.3826C 70.0347 40.4886 69.9955 40.6466 69.9593 40.8277C 69.9219 41.0189 69.8786 41.289 69.8786 41.5979L 73.8786 41.5979C 73.8786 41.6311 73.8677 41.6732 73.9601 41.2644C 74.0183 41.0068 74.1725 40.3521 74.0085 39.6246L 70.1064 40.5043ZM 71.6324 39.6131C 70.9397 39.7046 70.3844 39.6909 69.697 39.5657L 69.0107 43.5064C 69.9912 43.6716 71.1374 43.6997 72.1248 43.5827L 71.6324 39.6131ZM 69.8922 39.6098C 69.4755 39.496 68.9254 39.4057 68.5348 39.4006C 68.1787 39.4033 67.0777 39.4696 66.4318 40.4952C 65.7853 41.5217 66.1967 42.5541 66.3652 42.913C 66.5502 43.2907 66.9064 43.8118 67.2903 44.2603L 70.3167 41.6448C 70.0677 41.361 69.9556 41.1319 69.986 41.213C 69.9906 41.2229 70.0541 41.3552 70.0752 41.5784C 70.0981 41.8214 70.0719 42.2213 69.8166 42.6268C 69.5614 43.032 69.2109 43.2307 68.9754 43.3175C 68.7583 43.3975 68.5991 43.4002 68.5654 43.4005C 68.5351 43.4088 68.5925 43.3973 68.8156 43.4622L 69.8922 39.6098Z"/>
<path id="path4_fill" d="M 20.4847 2.47414C 20.5665 3.99327 20.3322 5.51286 19.7967 6.9369C 19.3358 8.044 18.813 8.27092 18.2007 6.9369C 17.1069 4.70896 15.2977 8.57348 17.1 11.5578C 19.0331 13.2494 19.3083 15.0717 17.272 14.7485C 16.5841 14.8516 16.928 15.9381 16.6666 17.0727C 16.591 18.056 15.7655 19.0187 14.706 20.1671C 13.4196 22.0581 12.8486 20.614 12.8486 23.1445C 12.8486 23.8322 11.4246 23.674 10.1451 23.9353C 9.37999 24.0243 8.64807 24.2981 8.01248 24.733C 7.38647 25.4206 6.69853 25.4894 6.16195 24.5061C 5.97621 24.121 5.73544 23.1308 5.30892 22.2231C 5.09566 21.4048 5.39836 20.7859 6.38898 21.1916C 7.1801 21.6111 7.3796 20.6415 6.56096 20.3802C 5.74232 20.0089 4.57283 20.5178 4.35957 19.6582C 4.18759 19.1631 3.67164 19.225 3.14881 19.4038C 2.59847 19.4794 2.07565 18.0766 1.43587 19.0943C 1.08503 19.7407 0.431493 20.2771 0.0600111 19.3763C -0.0913335 18.5099 -0.03631 17.5815 1.18821 17.2377C 2.41272 16.8939 3.15569 16.3575 2.56407 15.7731C 1.93805 15.0854 2.77045 14.0265 3.55469 13.7995C 4.23092 13.5873 4.9596 13.614 5.61848 13.8752C 6.03069 13.9984 6.47112 13.9897 6.87816 13.8503C 7.28519 13.711 7.6385 13.448 7.88866 13.0981C 8.32893 12.5893 7.92993 12.0736 7.20073 12.0667C 5.63225 12.0667 4.66226 11.104 6.6779 9.38489C 7.58596 8.62849 7.36583 7.67268 7.45526 6.51745C 7.45526 5.49286 8.27389 5.27282 9.31954 5.38972C 13.4058 5.66477 13.3164 4.40641 14.0319 4.32389C 16.8937 4.53018 16.0613 2.3091 16.8799 1.51144C 17.6985 0.713782 17.6917 -0.111379 19.3771 0.012396C 20.3608 0.0399015 20.5466 0.796304 20.4847 2.47414Z"/>
<path id="path5_stroke_2x" d="M 20.4847 2.47414L 18.486 2.40039L 18.4827 2.49109L 18.4876 2.58172L 20.4847 2.47414ZM 19.7967 6.9369L 21.6431 7.7056L 21.6565 7.67346L 21.6687 7.64088L 19.7967 6.9369ZM 18.2007 6.9369L 20.0184 6.10266L 20.0075 6.07893L 19.996 6.0555L 18.2007 6.9369ZM 17.1 11.5578L 15.388 12.5918L 15.5489 12.8581L 15.783 13.0629L 17.1 11.5578ZM 17.272 14.7485L 17.5855 12.7732L 17.2807 12.7248L 16.9755 12.7706L 17.272 14.7485ZM 16.6666 17.0727L 14.7177 16.6237L 14.684 16.7698L 14.6725 16.9192L 16.6666 17.0727ZM 14.706 20.1671L 13.2361 18.8109L 13.1357 18.9197L 13.0524 19.0421L 14.706 20.1671ZM 10.1451 23.9353L 10.3762 25.9219L 10.4613 25.912L 10.5452 25.8949L 10.1451 23.9353ZM 8.01248 24.733L 6.88307 23.0824L 6.69058 23.2141L 6.53356 23.3866L 8.01248 24.733ZM 6.16195 24.5061L 4.36055 25.375L 4.38232 25.4201L 4.40633 25.4641L 6.16195 24.5061ZM 5.30892 22.2231L 3.37357 22.7275L 3.42019 22.9064L 3.4988 23.0737L 5.30892 22.2231ZM 6.38898 21.1916L 7.32585 19.4247L 7.23848 19.3783L 7.14697 19.3408L 6.38898 21.1916ZM 6.56096 20.3802L 5.7348 22.2016L 5.84135 22.2499L 5.9528 22.2855L 6.56096 20.3802ZM 4.35957 19.6582L 6.30072 19.1766L 6.27876 19.0881L 6.24884 19.0019L 4.35957 19.6582ZM 3.14881 19.4038L 3.42113 21.3852L 3.61284 21.3588L 3.79594 21.2962L 3.14881 19.4038ZM 1.43587 19.0943L -0.257345 18.0299L -0.291382 18.0841L -0.32189 18.1403L 1.43587 19.0943ZM 0.0600111 19.3763L -1.91016 19.7204L -1.87246 19.9362L -1.78894 20.1388L 0.0600111 19.3763ZM 2.56407 15.7731L 1.08514 17.1194L 1.12078 17.1586L 1.15845 17.1958L 2.56407 15.7731ZM 3.55469 13.7995L 4.11059 15.7207L 4.13213 15.7145L 4.15354 15.7078L 3.55469 13.7995ZM 5.61848 13.8752L 4.88153 15.7345L 4.96246 15.7665L 5.04588 15.7915L 5.61848 13.8752ZM 7.88866 13.0981L 6.37621 11.7895L 6.31559 11.8596L 6.26171 11.9349L 7.88866 13.0981ZM 7.20073 12.0667L 7.21959 10.0668L 7.21016 10.0667L 7.20073 10.0667L 7.20073 12.0667ZM 6.6779 9.38489L 5.39785 7.84818L 5.38891 7.85563L 5.38006 7.86318L 6.6779 9.38489ZM 7.45526 6.51745L 9.44929 6.67181L 9.45526 6.59474L 9.45526 6.51745L 7.45526 6.51745ZM 9.31954 5.38972L 9.09734 7.37734L 9.1412 7.38224L 9.18523 7.3852L 9.31954 5.38972ZM 14.0319 4.32389L 14.1757 2.32906L 13.9888 2.3156L 13.8027 2.33706L 14.0319 4.32389ZM 19.3771 0.012396L 19.2306 2.00702L 19.2758 2.01035L 19.3212 2.01161L 19.3771 0.012396ZM 18.4876 2.58172C 18.5689 3.89418 18.3976 5.00581 17.9247 6.23293L 21.6687 7.64088C 22.2669 6.0199 22.564 4.09236 22.4818 2.36656L 18.4876 2.58172ZM 17.9503 6.16821C 17.8751 6.35516 17.8495 6.36474 17.87 6.35135C 17.8845 6.33301 18.1929 5.93326 18.8425 5.8637C 19.5688 5.78591 20.0048 6.18486 20.09 6.27409C 20.1701 6.35795 20.1328 6.35182 20.0184 6.10266L 16.383 7.77115C 16.5748 8.189 16.8325 8.65476 17.1972 9.03666C 17.567 9.42395 18.2773 9.9471 19.2685 9.84095C 20.1829 9.74302 20.7467 9.16234 21.008 8.83177C 21.2344 8.53293 21.4879 8.0722 21.6431 7.7056L 17.9503 6.16821ZM 19.996 6.0555C 19.7773 5.60997 19.4348 5.08739 18.8847 4.71592C 18.2593 4.29355 17.4699 4.14654 16.6976 4.39663C 15.4436 4.80276 14.8924 6.00262 14.6725 6.64398C 14.1336 8.21529 14.1549 10.55 15.388 12.5918L 18.812 10.5239C 18.2428 9.58132 18.2675 8.49159 18.4562 7.94154C 18.4978 7.80529 18.5244 7.80878 18.4958 7.83396C 18.4805 7.8544 18.3127 8.07811 17.93 8.20204C 17.4531 8.35651 16.9704 8.24979 16.6462 8.03086C 16.3974 7.86284 16.3507 7.70686 16.4054 7.81831L 19.996 6.0555ZM 15.783 13.0629C 16.156 13.3894 16.4085 13.6877 16.5584 13.9154C 16.7267 14.171 16.695 14.2271 16.6824 14.0864C 16.6747 13.9996 16.6738 13.8079 16.7707 13.5706C 16.8752 13.3149 17.0569 13.0983 17.2754 12.9542C 17.6558 12.7036 17.8931 12.822 17.5855 12.7732L 16.9585 16.7237C 17.6691 16.8365 18.6356 16.8484 19.4766 16.2941C 20.4731 15.6374 20.7421 14.5767 20.6666 13.731C 20.5405 12.3166 19.496 10.9968 18.4171 10.0527L 15.783 13.0629ZM 16.9755 12.7706C 16.137 12.8963 15.4922 13.4029 15.1433 14.0849C 14.8794 14.6009 14.8336 15.1308 14.8152 15.3709C 14.7771 15.9108 14.8063 16.3164 14.7177 16.6237L 18.6156 17.5217C 18.7058 17.1118 18.7534 16.6639 18.7714 16.3612C 18.7888 16.0526 18.7911 15.8257 18.8035 15.6766C 18.8178 15.4905 18.8313 15.6585 18.7046 15.9063C 18.6236 16.0646 18.4797 16.2697 18.2426 16.4437C 18.0033 16.6194 17.7581 16.698 17.5686 16.7264L 16.9755 12.7706ZM 14.6725 16.9192C 14.6733 16.909 14.6636 17.0515 14.4066 17.4258C 14.1335 17.8305 13.7548 18.2487 13.2361 18.8109L 16.176 21.5232C 16.7167 20.937 17.2804 20.2997 17.7039 19.6902C 18.1434 19.0502 18.5843 18.2197 18.6607 17.2261L 14.6725 16.9192ZM 13.0524 19.0421C 12.8586 19.3468 12.8269 19.3679 12.6986 19.4554C 12.6764 19.491 12.5414 19.5368 12.2271 19.7249C 11.6972 20.0595 11.2609 20.5604 11.0394 21.3127C 10.8776 21.8621 10.8486 22.4993 10.8486 23.1445L 14.8486 23.1445C 14.8465 22.6045 14.9045 22.3809 14.8765 22.4427C 14.8583 22.5044 14.8046 22.6511 14.6767 22.8158C 14.5472 22.9825 14.4132 23.0752 14.3628 23.1071C 14.3727 23.1037 14.3804 23.0991 14.5064 23.0311C 14.6257 22.9662 14.8442 22.8372 15.0476 22.693C 15.4942 22.369 15.9268 21.9284 16.3597 21.292L 13.0524 19.0421ZM 10.8486 23.1445C 10.8486 22.8623 10.929 22.5429 11.1222 22.2538C 11.3016 21.9854 11.5121 21.8418 11.6289 21.7764C 11.8104 21.6748 11.8998 21.6882 11.6737 21.7229C 11.4794 21.7537 11.2295 21.7747 10.9 21.809C 10.5721 21.8432 10.1465 21.8955 9.7449 21.9758L 10.5452 25.8949C 11.0238 25.7903 11.6507 25.7698 12.2797 25.6767C 12.5695 25.6323 13.0949 25.54 13.5833 25.2665C 14.2013 24.9204 14.8486 24.2136 14.8486 23.1445L 10.8486 23.1445ZM 9.91398 21.9487C 8.91068 22.0802 7.72628 22.5232 6.88307 23.0824L 9.14189 26.3836C 9.56985 26.073 9.8493 25.9685 10.3762 25.9219L 9.91398 21.9487ZM 6.53356 23.3866C 6.48071 23.4446 6.49035 23.4174 6.57689 23.3702C 6.67201 23.3183 6.88366 23.2317 7.17805 23.25C 7.85512 23.2922 8.03849 23.7696 7.91757 23.548L 4.40633 25.4641C 4.82199 26.2258 5.61762 27.1605 6.92931 27.2423C 8.1486 27.3182 9.02448 26.5923 9.49141 26.0794L 6.53356 23.3866ZM 7.96334 23.6372C 7.99664 23.6935 7.86613 23.3565 7.72261 22.9267C 7.58089 22.5028 7.373 21.919 7.11904 21.3725L 3.4988 23.0737C 3.67136 23.4349 3.79711 23.8001 3.92884 24.1944C 4.0255 24.4837 4.1947 25.0311 4.36055 25.375L 7.96334 23.6372ZM 7.24428 21.7187C 7.23226 21.6726 7.2509 21.7127 7.24153 21.8254C 7.23271 21.9315 7.18644 22.2274 6.93052 22.5328C 6.63948 22.8802 6.24991 23.0336 5.93909 23.0596C 5.68204 23.0811 5.55816 23.0126 5.63099 23.0424L 7.14697 19.3408C 6.38226 19.0277 4.89535 18.7335 3.86447 19.9639C 3.04606 20.9407 3.22202 22.146 3.37357 22.7275L 7.24428 21.7187ZM 5.4521 22.9586C 5.92903 23.2115 6.65402 23.4356 7.45206 23.1904C 8.3203 22.9236 8.87647 22.2168 9.03649 21.4496C 9.34728 19.9596 8.27392 18.8276 7.16911 18.4749L 5.9528 22.2855C 5.66663 22.1942 4.90284 21.6776 5.12076 20.6328C 5.23435 20.0883 5.64347 19.5615 6.27739 19.3668C 6.8411 19.1936 7.24448 19.3815 7.32585 19.4247L 5.4521 22.9586ZM 7.38712 18.5588C 6.87478 18.3264 6.38175 18.2632 6.05847 18.2378C 5.90098 18.2259 5.73861 18.2197 5.6219 18.2162C 5.50502 18.2126 5.42758 18.2109 5.35948 18.2063C 5.19294 18.1958 5.35851 18.1813 5.59846 18.3056C 5.74621 18.3822 5.91424 18.5057 6.0576 18.6892C 6.19949 18.8707 6.26916 19.0494 6.30072 19.1766L 2.41843 20.1398C 2.60698 20.8998 3.08351 21.5076 3.75832 21.8572C 4.30311 22.1395 4.8522 22.1822 5.10702 22.1983C 5.3892 22.2149 5.60346 22.2125 5.74477 22.2255C 5.87768 22.2359 5.83782 22.2483 5.7348 22.2016L 7.38712 18.5588ZM 6.24884 19.0019C 5.88317 17.9493 5.00467 17.3907 4.10739 17.2906C 3.42917 17.215 2.81607 17.4039 2.50168 17.5114L 3.79594 21.2962C 4.00438 21.2249 3.91067 21.2935 3.66413 21.266C 3.50185 21.2479 3.2342 21.1832 2.96525 20.9798C 2.68656 20.7692 2.53786 20.5089 2.47031 20.3145L 6.24884 19.0019ZM 2.87649 17.4224C 3.25988 17.3697 3.56264 17.4602 3.7289 17.5312C 3.81094 17.5662 3.87002 17.6006 3.90344 17.6215C 3.88783 17.6107 3.95398 17.6552 3.95872 17.6592C 3.99647 17.6832 3.78225 17.4973 3.5419 17.3079C 3.3417 17.1546 2.6705 16.6494 1.7234 16.7315C 0.662173 16.8234 0.0430667 17.552 -0.257345 18.0299L 3.12909 20.1588C 3.12864 20.1595 3.05939 20.2729 2.89345 20.4011C 2.70716 20.5451 2.42514 20.6856 2.06866 20.7165C 1.72788 20.7461 1.46278 20.6629 1.31505 20.5985C 1.24188 20.5666 1.18909 20.5359 1.15888 20.517C 1.12848 20.4979 1.11127 20.4847 1.10985 20.4836C 1.07073 20.459 1.28414 20.6432 1.51919 20.8292C 1.64896 20.9291 1.86916 21.0864 2.15798 21.2098C 2.46067 21.339 2.90015 21.4568 3.42113 21.3852L 2.87649 17.4224ZM -0.32189 18.1403C -0.356516 18.21 -0.376523 18.2091 -0.349783 18.187C -0.342547 18.1791 -0.316148 18.1511 -0.266985 18.1137C -0.219472 18.0775 -0.128414 18.0155 0.0077514 17.9606C 0.317106 17.8359 0.839756 17.7685 1.35575 18.056C 1.57531 18.1783 1.71613 18.3253 1.79616 18.4293C 1.87398 18.5303 1.90482 18.6038 1.90896 18.6138L -1.78894 20.1388C -1.60762 20.5785 -1.26137 21.1768 -0.591008 21.5503C 0.162967 21.9704 0.94058 21.8974 1.50361 21.6704C 2.41587 21.3026 2.95178 20.494 3.19363 20.0484L -0.32189 18.1403ZM 2.03018 19.0321C 2.00504 18.8882 1.99939 18.8003 2.00005 18.753C 2.0007 18.7069 2.00699 18.7457 1.97411 18.8309C 1.93536 18.9313 1.86417 19.0383 1.77023 19.1182C 1.68476 19.1909 1.64429 19.187 1.72886 19.1633L 0.647554 15.3122C -0.473707 15.627 -1.34855 16.3304 -1.75778 17.3911C -2.10697 18.2962 -2.00253 19.1916 -1.91016 19.7204L 2.03018 19.0321ZM 1.72886 19.1633C 2.40211 18.9742 3.29473 18.65 3.9304 18.0497C 4.2736 17.7256 4.73465 17.1341 4.76923 16.2812C 4.80509 15.3967 4.36467 14.7405 3.96968 14.3503L 1.15845 17.1958C 1.05927 17.0978 0.747835 16.7278 0.772517 16.1191C 0.795923 15.5418 1.10562 15.2156 1.18397 15.1416C 1.26753 15.0627 1.28976 15.0722 1.16222 15.1313C 1.01464 15.2021 0.889129 15.2455 0.647554 15.3122L 1.72886 19.1633ZM 4.04299 14.4267C 4.23775 14.6406 4.34762 14.939 4.34434 15.2291C 4.34157 15.4741 4.26164 15.6157 4.24463 15.644C 4.22374 15.6787 4.21586 15.6802 4.22559 15.6725C 4.23842 15.6623 4.20831 15.6925 4.11059 15.7207L 2.99879 11.8783C 2.07876 12.1446 1.28001 12.8119 0.816426 13.5831C 0.335129 14.3837 -0.0500679 15.8725 1.08514 17.1194L 4.04299 14.4267ZM 4.15354 15.7078C 4.49758 15.5695 4.54855 15.5713 4.88153 15.7345L 6.35543 12.0159C 5.37066 11.6567 3.96426 11.6052 2.95583 11.8913L 4.15354 15.7078ZM 5.04588 15.7915C 5.76088 15.9801 6.81885 15.9592 7.52583 15.7426L 6.23049 11.9581C 6.21774 11.9625 6.20394 11.9627 6.19108 11.9589L 5.04588 15.7915ZM 7.52583 15.7426C 8.21731 15.4805 9.06622 14.8486 9.5156 14.2614L 6.26171 11.9349C 6.2541 11.9456 6.24322 11.9538 6.23049 11.9581L 7.52583 15.7426ZM 9.40111 14.4068C 10.0876 13.6133 10.3924 12.3443 9.61977 11.2445C 8.98989 10.3479 7.97929 10.0739 7.21959 10.0668L 7.18187 14.0666C 7.15137 14.0663 6.70487 14.0537 6.34673 13.5439C 6.14934 13.2629 6.03899 12.8931 6.08129 12.506C 6.12147 12.1383 6.28194 11.8985 6.37621 11.7895L 9.40111 14.4068ZM 7.20073 10.0667C 6.99254 10.0667 6.91613 10.032 6.9456 10.0443C 6.96822 10.0537 7.27249 10.1887 7.44603 10.6124C 7.63466 11.0729 7.48316 11.4125 7.4732 11.4322C 7.46991 11.4387 7.49308 11.392 7.57688 11.2941C 7.68491 11.1652 7.77901 11.0726 7.97573 10.9066L 5.38006 7.86318C 4.7687 8.38459 4.23726 8.96787 3.90415 9.62613C 3.55818 10.3098 3.36927 11.2125 3.74451 12.1285C 4.10465 13.0078 4.81953 13.4908 5.40217 13.7345C 5.89718 13.9275 6.64078 14.0596 7.20073 14.0667L 7.20073 10.0667ZM 7.95794 10.9216C 8.74898 10.1836 9.23494 9.09934 9.35266 8.38918C 9.4415 7.70569 9.41049 7.11049 9.44929 6.67181L 5.46123 6.36308C 5.43484 6.71813 5.43018 7.04849 5.4243 7.30005C 5.41854 7.5504 5.41662 7.68054 5.39448 7.81228C 5.37968 7.93708 5.36175 7.89975 5.38586 7.87616C 5.39988 7.82829 5.46664 7.80605 5.39785 7.84818L 7.95794 10.9216ZM 9.45526 6.51745C 9.45526 6.52633 9.45258 6.68083 9.33596 6.8849C 9.21196 7.10188 9.03558 7.24111 8.89307 7.3127C 8.77221 7.37341 8.70999 7.36957 8.7669 7.36443C 8.81933 7.3597 8.92585 7.35817 9.09734 7.37734L 9.54175 3.4021C 8.90978 3.33145 7.96334 3.3034 7.09749 3.73836C 5.99532 4.29204 5.45526 5.35659 5.45526 6.51745L 9.45526 6.51745ZM 9.18523 7.3852C 11.3993 7.53423 12.8078 7.29579 13.8381 6.77777C 14.3344 6.51219 14.687 6.23036 14.8203 6.12361C 14.9902 5.98727 14.715 6.25836 14.261 6.31072L 13.8027 2.33706C 12.991 2.43068 12.4587 2.89001 12.3164 3.00422C 12.1376 3.14803 12.123 3.17907 12.0414 3.20401C 11.916 3.26705 11.3261 3.52026 9.45386 3.39423L 9.18523 7.3852ZM 13.8881 6.31871C 14.8291 6.38654 15.7541 6.27905 16.5575 5.82235C 17.2675 5.35723 17.8648 4.54237 18.0787 4.03764C 18.2706 3.5309 18.3641 3.06037 18.4286 2.81587C 18.5046 2.52133 18.5016 2.72375 18.2757 2.94389L 15.4842 0.0789945C 14.8489 0.697964 14.643 1.47714 14.5554 1.81695C 14.4562 2.2068 14.4255 2.42821 14.3654 2.55065C 14.3498 2.58952 14.4071 2.4436 14.5807 2.34494C 14.7097 2.2716 14.6656 2.36438 14.1757 2.32906L 13.8881 6.31871ZM 18.2757 2.94389C 18.5823 2.63746 18.8332 2.31679 18.978 2.12391C 19.1234 1.93012 19.1953 1.86459 19.1681 1.87851C 19.1201 1.92324 19.0329 1.97841 18.9492 2.00276C 18.8879 2.03029 18.9721 1.98139 19.2306 2.00702L 19.5236 -1.98223C 18.2977 -2.07226 17.269 -1.82053 16.4388 -1.04574C 16.1548 -0.769132 15.9151 -0.458716 15.7789 -0.277315C 15.6421 -0.0950089 15.5868 -0.0134069 15.4842 0.0789945L 18.2757 2.94389ZM 19.3212 2.01161C 19.3196 2.01157 19.1233 2.0058 18.8809 1.84768C 18.622 1.67871 18.5048 1.46372 18.4672 1.37019C 18.4418 1.30686 18.4659 1.33452 18.4822 1.54176C 18.4976 1.73834 18.5003 2.01329 18.486 2.40039L 22.4833 2.54789C 22.513 1.74275 22.5195 0.726521 22.1787 -0.121404C 21.9821 -0.562973 21.4917 -1.18987 21.0668 -1.50227C 20.5149 -1.86239 19.9264 -1.97303 19.433 -1.98682L 19.3212 2.01161Z"/>
<path id="path6_fill" d="M 5.65364 0.62795C 4.4704 1.4875 5.65364 1.59064 5.65364 2.00323C 5.94258 3.42664 4.11955 2.58772 3.92005 2.91091C 3.54856 2.98655 3.43161 6.20469 0.604219 2.77338C -1.52148 -0.224724 2.4754 0.339139 4.65614 0.0228254C 5.30279 -0.107826 6.32782 0.352895 5.65364 0.62795Z"/>
<path id="path7_stroke_2x" d="M 5.65364 0.62795L 4.89813 -1.22386L 4.67402 -1.13242L 4.47819 -0.990166L 5.65364 0.62795ZM 5.65364 2.00323L 3.65364 2.00323L 3.65364 2.20416L 3.69362 2.40108L 5.65364 2.00323ZM 3.92005 2.91091L 4.31909 4.8707L 5.16726 4.698L 5.62192 3.96145L 3.92005 2.91091ZM 0.604219 2.77338L -1.0273 3.93015L -0.985381 3.98928L -0.939287 4.04522L 0.604219 2.77338ZM 4.65614 0.0228254L 4.94323 2.00211L 4.99799 1.99417L 5.05222 1.98321L 4.65614 0.0228254ZM 4.47819 -0.990166C 4.11822 -0.72867 3.5767 -0.284962 3.30065 0.396869C 3.1389 0.796375 3.07549 1.26064 3.176 1.74135C 3.27172 2.0873 3.51328 2.55302 3.64845 2.73291C 3.7834 2.89254 3.96612 3.06845 4.04551 3.13656C 4.12461 3.20335 4.17246 3.24327 4.16809 3.23842C 4.16709 3.23784 4.08455 3.15698 4.10573 3.17791C 4.07187 3.14245 4.01516 3.07911 3.9536 2.98898C 3.82557 2.80154 3.65364 2.46118 3.65364 2.00323L 7.65364 2.00323C 7.65364 1.44212 7.44474 1.00829 7.25663 0.732882C 7.08369 0.479694 6.89201 0.307004 6.80642 0.231891C 6.71835 0.155618 6.65577 0.106061 6.63781 0.0902568C 6.61705 0.0725951 6.68721 0.128281 6.77141 0.233486C 6.86189 0.34654 7.01937 0.578534 7.09133 0.922731C 7.16873 1.29291 7.11457 1.63549 7.00828 1.89801C 6.91403 2.13081 6.79646 2.25988 6.7699 2.28809C 6.73931 2.32057 6.74621 2.30628 6.8291 2.24607L 4.47819 -0.990166ZM 3.69362 2.40108C 3.69355 2.40074 3.68709 2.36948 3.68515 2.31291C 3.68321 2.25602 3.68553 2.16445 3.70848 2.04868C 3.75928 1.79246 3.8971 1.49501 4.15611 1.24926C 4.39533 1.02228 4.63844 0.933667 4.76243 0.900124C 4.88144 0.867932 4.9518 0.869631 4.93134 0.870027C 4.89554 0.872138 4.87462 0.869632 4.78187 0.862594C 4.69025 0.855828 4.56382 0.844087 4.42825 0.836078C 4.31096 0.829467 4.04443 0.81587 3.75245 0.861866C 3.59849 0.886119 3.35623 0.938523 3.09085 1.06942C 2.81172 1.2071 2.47087 1.45101 2.21817 1.86038L 5.62192 3.96145C 5.17023 4.6932 4.45826 4.80001 4.37489 4.81314C 4.21966 4.83759 4.12603 4.82539 4.20318 4.82974C 4.32815 4.83557 4.64113 4.87111 5.00867 4.86928C 5.31555 4.86335 6.19702 4.82681 6.90932 4.15095C 7.76139 3.34248 7.74988 2.27639 7.61367 1.60537L 3.69362 2.40108ZM 3.521 0.951127C 2.83085 1.09165 2.43914 1.52844 2.30344 1.69464C 2.1435 1.89054 2.04445 2.08019 1.99807 2.17294C 1.91197 2.34512 1.81835 2.58241 1.79562 2.63718C 1.74918 2.74929 1.73897 2.77905 1.71269 2.82009C 1.69834 2.84544 1.73564 2.76896 1.8473 2.66875C 1.97712 2.55225 2.20149 2.4111 2.50595 2.36617C 2.80151 2.32255 3.00418 2.3946 3.05842 2.41812C 3.09114 2.4323 2.80115 2.29453 2.14773 1.50153L -0.939287 4.04522C -0.179019 4.96788 0.605889 5.71459 1.46735 6.08806C 1.93596 6.29122 2.49146 6.41163 3.0899 6.32331C 3.58343 6.21922 4.2298 5.88703 4.5189 5.64576C 5.11544 5.11041 5.39789 4.39258 5.49005 4.17054C 5.55226 4.02033 5.58039 3.95739 5.57569 3.96198C 5.57358 3.9662 5.5179 4.0823 5.40187 4.22442C 5.31007 4.33685 4.96281 4.73963 4.31909 4.8707L 3.521 0.951127ZM 2.23574 1.6166C 2.03676 1.33596 1.9835 1.19781 1.97765 1.18009C 1.97475 1.17132 2.04407 1.37651 1.95269 1.68734C 1.74827 2.38272 1.16564 2.42407 1.53961 2.32247C 1.81605 2.24737 2.25715 2.20041 2.92258 2.16092C 3.54802 2.12368 4.29127 2.09376 4.94323 2.00211L 4.36904 -1.95646C 3.93063 -1.88995 3.3565 -1.87174 2.68562 -1.83205C 2.01407 -1.79206 1.17207 -1.71404 0.490911 -1.53761C -0.141214 -1.36587 -1.46079 -0.883573 -1.88492 0.559182C -2.27503 1.88618 -1.60892 3.10984 -1.0273 3.93015L 2.23574 1.6166ZM 5.05222 1.98321C 4.86822 2.02039 4.81929 1.99609 4.71778 1.9426C 4.67033 1.91759 4.54277 1.84609 4.3976 1.70236C 4.26743 1.57346 3.97232 1.23586 3.8932 0.681594C 3.80049 0.0320592 4.05805 -0.506218 4.35247 -0.829361C 4.59757 -1.09836 4.84327 -1.20148 4.89813 -1.22386L 6.40916 2.47976C 6.6543 2.37974 8.08298 1.72714 7.85307 0.116382C 7.76256 -0.517711 7.41919 -0.934881 7.212 -1.14003C 7.04265 -1.29674 6.74923 -1.50431 6.58262 -1.5961C 5.97548 -1.91605 5.09071 -2.10539 4.26006 -1.93756L 5.05222 1.98321Z"/>
<path id="path8_fill" d="M 11.3515 0.1116C 12.232 -0.13595 13.3327 -0.0603094 13.2089 1.26683C 13.2089 1.72755 12.6585 2.40831 10.6773 2.59397C 8.7167 2.97217 8.22826 2.53896 8.6479 4.55374C 8.6479 5.18637 9.06753 6.50663 6.58411 6.81607C 6.35709 6.93297 7.42338 8.25323 5.89618 8.25323C 3.35771 8.35638 3.9906 7.08425 3.06877 6.87795C 1.78922 6.55476 1.631 6.26596 0.729813 6.19032C 0.556988 6.1603 0.397057 6.07937 0.27055 5.95791C 0.144043 5.83644 0.0567122 5.67998 0.0197557 5.50857C -0.0172007 5.33716 -0.00209427 5.15863 0.0631293 4.99586C 0.128353 4.83309 0.240734 4.69351 0.385848 4.595C 0.578469 4.3612 0.888039 4.42996 1.0325 4.14803C 1.17697 3.8661 1.50716 4.46435 2.02999 2.40144C 2.27765 1.81007 3.04814 2.00948 4.51343 1.94071C 4.93995 1.94071 5.07065 0.971144 6.3158 1.00553C 7.16544 1.02812 8.01565 0.995963 8.86115 0.909257C 9.56284 0.778606 10.0306 0.242251 11.3515 0.1116Z"/>
<path id="path9_stroke_2x" d="M 11.3515 0.1116L 11.5483 2.10189L 11.7234 2.08457L 11.8927 2.03696L 11.3515 0.1116ZM 13.2089 1.26683L 11.2175 1.08103L 11.2089 1.17373L 11.2089 1.26683L 13.2089 1.26683ZM 10.6773 2.59397L 10.4907 0.602697L 10.3939 0.611766L 10.2985 0.630176L 10.6773 2.59397ZM 8.6479 4.55374L 10.6479 4.55374L 10.6479 4.34767L 10.6059 4.14593L 8.6479 4.55374ZM 6.58411 6.81607L 6.33682 4.83142L 5.98432 4.87534L 5.6685 5.03796L 6.58411 6.81607ZM 5.89618 8.25323L 5.89618 6.25323L 5.85556 6.25323L 5.81498 6.25488L 5.89618 8.25323ZM 3.06877 6.87795L 2.57899 8.81706L 2.60541 8.82373L 2.632 8.82968L 3.06877 6.87795ZM 0.729813 6.19032L 0.387572 8.16082L 0.474557 8.17592L 0.562534 8.18331L 0.729813 6.19032ZM 0.385848 4.595L 1.50915 6.24974L 1.7468 6.08842L 1.92944 5.86673L 0.385848 4.595ZM 2.02999 2.40144L 0.185225 1.62888L 0.127805 1.76599L 0.0912853 1.91009L 2.02999 2.40144ZM 4.51343 1.94071L 4.51343 -0.0592861L 4.46653 -0.0592861L 4.41968 -0.0570875L 4.51343 1.94071ZM 6.3158 1.00553L 6.2606 3.00477L 6.26264 3.00482L 6.3158 1.00553ZM 8.86115 0.909257L 9.06518 2.89882L 9.1467 2.89046L 9.22725 2.87546L 8.86115 0.909257ZM 11.8927 2.03696C 11.9912 2.00927 12.062 2.00103 12.0926 2.00008C 12.1329 1.99883 12.045 2.01038 11.8885 1.94523C 11.698 1.866 11.4673 1.69479 11.3234 1.42029C 11.1943 1.17399 11.2239 1.01318 11.2175 1.08103L 15.2002 1.45263C 15.2558 0.856913 15.1942 0.188967 14.866 -0.437039C 14.5467 -0.960316 13.8718 -1.53866 13.4251 -1.74782C 12.4341 -2.1602 11.4036 -1.98059 10.8102 -1.81376L 11.8927 2.03696ZM 11.2089 1.26683C 11.2089 0.638811 11.5847 0.364047 11.5943 0.357819C 11.5975 0.35574 11.5295 0.399879 11.3443 0.454353C 11.1608 0.508341 10.8848 0.565765 10.4907 0.602697L 10.8639 4.58525C 12.0289 4.47607 13.0187 4.20385 13.7778 3.70928C 14.5578 3.20107 15.2089 2.35557 15.2089 1.26683L 11.2089 1.26683ZM 10.2985 0.630176C 9.88805 0.711014 9.54101 0.747795 9.19702 0.795693C 8.95979 0.828875 8.30223 0.90487 7.73311 1.24992C 6.88258 1.7656 6.56739 2.59352 6.51713 3.31099C 6.47825 3.86613 6.58606 4.46292 6.68991 4.96155L 10.6059 4.14593C 10.5587 3.91925 10.532 3.76326 10.5184 3.6557C 10.504 3.54182 10.5113 3.53446 10.5074 3.59047C 10.5031 3.65083 10.4817 3.84923 10.3523 4.09117C 10.2093 4.35849 10.0036 4.55112 9.8069 4.67036C 9.71961 4.72328 9.647 4.75408 9.60315 4.77049C 9.58072 4.77888 9.56347 4.78439 9.55274 4.7876C 9.55334 4.78763 9.54282 4.79075 9.53637 4.79218C 9.51894 4.79688 9.55075 4.78837 9.59396 4.78106C 9.64042 4.77291 9.68214 4.76675 9.75111 4.75713C 10.037 4.71693 10.4862 4.66603 11.0561 4.55777L 10.2985 0.630176ZM 6.6479 4.55374C 6.64827 4.63208 6.65175 4.72966 6.65507 4.79073C 6.65842 4.85015 6.66255 4.90951 6.6657 4.9558C 6.67231 5.05291 6.67458 5.0991 6.67467 5.13554C 6.67485 5.20794 6.66309 5.11675 6.72957 4.9719C 6.76464 4.89547 6.81214 4.82452 6.86627 4.76652C 6.91908 4.70993 6.95895 4.68625 6.9616 4.68474C 6.9618 4.68462 6.92124 4.7077 6.81817 4.73821C 6.7148 4.7688 6.55925 4.8037 6.33682 4.83142L 6.83139 8.80072C 8.38469 8.60718 9.74169 7.9985 10.365 6.6403C 10.5783 6.11307 10.6725 5.45273 10.6747 5.12566C 10.6698 4.78099 10.6521 4.52516 10.6479 4.55374L 6.6479 4.55374ZM 5.6685 5.03796C 5.41144 5.17033 5.18183 5.35713 4.99778 5.58986C 4.81774 5.81751 4.71023 6.0521 4.64696 6.25439C 4.52931 6.63047 4.5469 6.95092 4.56079 7.09865C 4.58782 7.38608 4.67139 7.63809 4.68805 7.69097C 4.71786 7.78505 4.73946 7.84708 4.75136 7.88897C 4.76259 7.92697 4.75389 7.90588 4.74628 7.85037C 4.73682 7.78146 4.66739 7.1968 5.1604 6.67357C 5.38499 6.4352 5.62362 6.32898 5.76387 6.28559C 5.89324 6.24558 5.95438 6.25323 5.89618 6.25323L 5.89618 10.2532C 6.47831 10.2532 7.38822 10.142 8.07166 9.41666C 8.80136 8.64222 8.76589 7.72019 8.70914 7.3066C 8.65551 6.9157 8.50669 6.5001 8.50316 6.48892C 8.47564 6.40158 8.52508 6.53127 8.54322 6.72412C 8.55267 6.82456 8.57211 7.10466 8.46454 7.44856C 8.33671 7.8572 8.03575 8.31815 7.49971 8.59418L 5.6685 5.03796ZM 5.81498 6.25488C 5.32506 6.27479 5.16073 6.21861 5.16715 6.22083C 5.15166 6.18134 5.40391 6.37716 5.41601 6.40527C 5.41627 6.40077 5.4318 6.42873 5.38778 6.35924C 5.34432 6.29091 5.25275 6.14521 5.14265 5.9946C 4.83319 5.58187 4.32444 5.10949 3.50554 4.92623L 2.632 8.82968C 2.27402 8.74957 2.03184 8.51356 1.94231 8.39415C 1.93578 8.39954 2.06153 8.60512 2.33646 8.958C 2.59869 9.26081 3.2195 9.74545 3.85907 10.0009C 4.48957 10.2191 5.19806 10.2832 5.97737 10.2516L 5.81498 6.25488ZM 3.55855 4.93885C 3.06746 4.821 2.82546 4.71171 2.48575 4.57864C 2.13488 4.4419 1.5925 4.27105 0.897093 4.19732L 0.562534 8.18331C 0.768314 8.18522 0.755642 8.19659 1.02907 8.30397C 1.31365 8.41501 1.79054 8.61171 2.57899 8.81706L 3.55855 4.93885ZM 1.07205 4.21982C 1.29154 4.25794 1.4948 4.36073 1.65572 4.51524L -1.11463 7.40057C -0.75973 7.71089 -0.0725366 8.05864 0.387572 8.16082L 1.07205 4.21982ZM 1.65572 4.51524C 1.81661 4.66972 1.92778 4.86881 1.97483 5.08704L -1.93532 5.9301C -1.81458 6.38586 -1.43913 7.05856 -1.11463 7.40057L 1.65572 4.51524ZM 1.97483 5.08704C 2.02189 5.30532 2.00264 5.53262 1.91963 5.73978L -1.79337 4.25194C -1.94816 4.69729 -2.01311 5.46502 -1.93532 5.9301L 1.97483 5.08704ZM 1.91963 5.73978C 1.83659 5.94702 1.69359 6.12454 1.50915 6.24974L -0.737457 2.94025C -1.11472 3.22288 -1.59779 3.82293 -1.79337 4.25194L 1.91963 5.73978ZM 1.92944 5.86673C 1.7688 6.06172 1.59382 6.17552 1.4821 6.23454C 1.41484 6.27008 1.32661 6.30325 1.46282 6.24938C 1.53992 6.21888 1.78886 6.1224 2.04893 5.93931C 2.34328 5.73208 2.61615 5.44314 2.81243 5.06009L -0.747425 3.23597C -0.690396 3.12468 -0.616457 3.01448 -0.525174 2.91155C -0.434304 2.80909 -0.339966 2.72928 -0.25372 2.66856C -0.0983412 2.55917 0.0340729 2.51297 -0.00835243 2.52975C -0.0241836 2.53607 -0.0662717 2.55213 -0.122135 2.57485C -0.183869 2.60017 -0.27859 2.64082 -0.386434 2.6978C -0.614887 2.8185 -0.900794 3.01138 -1.15775 3.32326L 1.92944 5.86673ZM 2.81243 5.06009C 2.67937 5.31976 2.4592 5.58628 2.14151 5.78125C 1.88662 5.93767 1.64862 5.99004 1.68938 5.97921C 1.76484 5.95916 2.23777 5.85311 2.69772 5.45528C 3.09038 5.11566 3.33259 4.69458 3.4993 4.3222C 3.64224 3.99756 3.81702 3.48487 3.9687 2.89278L 0.0912853 1.91009C -0.0247747 2.36803 -0.11016 2.59534 -0.15154 2.68777C -0.198301 2.79222 -0.145693 2.626 0.0810043 2.42992C 0.374998 2.17564 0.705613 2.10181 0.662191 2.11335C 0.64351 2.11832 0.351924 2.18632 0.0492885 2.37205C -0.316158 2.59632 -0.578249 2.90582 -0.747425 3.23597L 2.81243 5.06009ZM 3.87476 3.17399C 3.82477 3.29334 3.74214 3.43686 3.61306 3.57583C 3.48345 3.71535 3.34245 3.81215 3.21706 3.87538C 3.00051 3.9846 2.85841 3.97806 2.97519 3.96868C 3.08195 3.96011 3.23365 3.95879 3.54357 3.95855C 3.8263 3.95833 4.19533 3.95732 4.60718 3.93852L 4.41968 -0.0570875C 3.79226 -0.0248713 3.20007 -0.0574476 2.655 -0.0184842C 2.33739 0.0103334 1.79626 0.132714 1.41584 0.303886C 0.998262 0.546417 0.420165 1.15574 0.185225 1.62888L 3.87476 3.17399ZM 4.51343 3.94071C 5.45 3.94071 6.03298 3.38254 6.20375 3.21425C 6.29618 3.12161 6.38488 3.02338 6.43224 2.97055C 6.47997 2.91728 6.49176 2.90297 6.51137 2.88484C 6.52345 2.87293 6.47453 2.92334 6.37982 2.96535C 6.27894 3.0101 6.22152 3.00368 6.2606 3.00476L 6.37101 -0.993712C 5.78751 -1.00982 5.24682 -0.907937 4.75791 -0.691065C 4.33306 -0.484041 3.89746 -0.151632 3.70389 0.0356163C 3.49855 0.243208 3.3888 0.367136 3.39603 0.365264C 3.40681 0.354634 3.50603 0.255195 3.67876 0.157649C 3.87519 0.0467106 4.16225 -0.0592861 4.51343 -0.0592861L 4.51343 3.94071ZM 6.26264 3.00482C 7.17666 3.02809 8.15554 2.99107 9.06518 2.89882L 8.65712 -1.08031C 7.87577 -0.999139 7.15422 -0.97185 6.36897 -0.993767L 6.26264 3.00482ZM 9.22725 2.87546C 9.89122 2.75184 10.5494 2.39987 10.6963 2.33361C 11.0048 2.19327 11.1427 2.12527 11.5483 2.10189L 11.1546 -1.87869C 10.2394 -1.77142 9.48295 -1.50591 9.05193 -1.31275C 8.59682 -1.10505 8.46618 -1.07992 8.49505 -1.05695L 9.22725 2.87546Z"/>
</defs>
</svg>
