<svg width="117" height="166" viewBox="0 0 117 166" version="1.1" xmlns="http://www.w3.org/2000/svg" xmlns:xlink="http://www.w3.org/1999/xlink">
<title>Component</title>
<desc>Created using Figma</desc>
<g id="Canvas" transform="translate(-1489 -345)">
<g id="Component">
<g id="Vector">
<use xlink:href="#path0_fill" transform="translate(1571.48 453.596)" fill="#FFFFFF" fill-opacity="0.33"/>
<mask id="mask0_outline_out">
<rect id="mask0_outline_inv" fill="white" x="-2" y="-3" width="37" height="24" transform="translate(1571.48 453.596)"/>
<use xlink:href="#path0_fill" fill="black" transform="translate(1571.48 453.596)"/>
</mask>
<g mask="url(#mask0_outline_out)">
<use xlink:href="#path1_stroke_2x" transform="translate(1571.48 453.596)" fill="#FFFFFF"/>
</g>
</g>
<g id="Vector">
<use xlink:href="#path2_fill" transform="translate(1491.17 347.709)" fill="#FFFFFF" fill-opacity="0.33"/>
<mask id="mask1_outline_out">
<rect id="mask1_outline_inv" fill="white" x="-3" y="-2" width="110" height="118" transform="translate(1491.17 347.709)"/>
<use xlink:href="#path2_fill" fill="black" transform="translate(1491.17 347.709)"/>
</mask>
<g mask="url(#mask1_outline_out)">
<use xlink:href="#path3_stroke_2x" transform="translate(1491.17 347.709)" fill="#FFFFFF"/>
</g>
</g>
<g id="Vector">
<use xlink:href="#path4_fill" transform="translate(1502.83 464.814)" fill="#FFFFFF" fill-opacity="0.33"/>
<mask id="mask2_outline_out">
<rect id="mask2_outline_inv" fill="white" x="-2" y="-2" width="77" height="49" transform="translate(1502.83 464.814)"/>
<use xlink:href="#path4_fill" fill="black" transform="translate(1502.83 464.814)"/>
</mask>
<g mask="url(#mask2_outline_out)">
<use xlink:href="#path5_stroke_2x" transform="translate(1502.83 464.814)" fill="#FFFFFF"/>
</g>
</g>
</g>
</g>
<defs>
<path id="path0_fill" d="M 9.32109 17.1703C 10.5395 16.6101 11.6796 15.8935 12.7126 15.0386C 15.712 12.4187 15.1272 10.7409 16.8402 9.84697C 18.216 9.15933 20.8577 9.00805 26.4712 11.4423C 29.6907 11.7242 32.126 11.2773 32.47 10.4177C 32.6695 9.91574 32.1672 9.23498 31.8301 8.78114C 31.303 8.17928 30.7047 7.64359 30.0484 7.18581C 28.6726 6.06496 28.8446 6.09248 28.3699 5.76242C 27.4646 5.1473 26.4657 4.68285 25.4118 4.38714C 22.9905 4.78369 20.5157 4.71601 18.1197 4.18772C 15.1915 3.59001 12.5086 2.1318 10.4149 6.71521e-06C 9.72632 0.0778001 9.09131 0.408648 8.63316 0.928301C 8.56437 1.02457 8.06905 1.70535 8.4543 2.25546C 8.83954 2.80557 9.48619 2.64054 10.9515 3.18377C 11.9627 3.56197 12.8502 3.8714 12.9121 4.38026C 13.0015 5.06789 11.3711 5.41171 11.4812 6.1131C 11.5569 6.57381 12.3548 6.91764 12.9121 7.04141C 14.2879 7.3646 15.1341 6.53256 16.3036 6.91076C 16.8127 7.07579 17.3424 7.454 17.3768 7.83907C 17.4387 8.52671 15.822 9.40001 13.2492 9.83322C 13.2368 9.53616 13.1446 9.24791 12.9824 8.99869C 12.8203 8.74946 12.594 8.54843 12.3273 8.41669C 11.1579 7.94909 9.68571 9.59255 8.04155 9.21435C 6.84456 8.9393 6.85143 7.89408 5.54436 7.74968C 4.79452 7.66716 3.90707 7.90783 3.76261 8.27915C 3.56999 8.7605 4.7601 9.11809 4.65691 9.60631C 4.46429 10.4865 0.37111 10.3971 0.192248 11.2016C 0.0615418 11.7861 2.18039 12.3431 1.97401 12.9345C 1.8433 13.3058 0.948972 13.2164 0.364231 13.8628C 0.232862 14.0052 0.133097 14.1738 0.0714493 14.3575C 0.00980198 14.5412 -0.012307 14.7358 0.00653593 14.9286C 0.157881 15.8225 1.49933 16.3383 1.96712 16.5239C 2.97838 16.9159 3.34297 16.744 4.10657 17.2116C 4.87017 17.6792 4.68443 17.8992 5.17974 18.1399C 6.30795 18.5937 8.15849 17.7204 9.32109 17.1703Z"/>
<path id="path1_stroke_2x" d="M 9.32109 17.1703L 8.48557 15.3532L 8.4756 15.3578L 8.46568 15.3625L 9.32109 17.1703ZM 12.7126 15.0386L 13.9877 16.5795L 14.0082 16.5625L 14.0283 16.5449L 12.7126 15.0386ZM 16.8402 9.84697L 15.946 8.05796L 15.9304 8.06579L 15.9149 8.07389L 16.8402 9.84697ZM 26.4712 11.4423L 25.6755 13.2772L 25.9733 13.4063L 26.2967 13.4347L 26.4712 11.4423ZM 32.47 10.4177L 34.3268 11.1608L 34.3286 11.1564L 32.47 10.4177ZM 31.8301 8.78114L 33.4357 7.58861L 33.3877 7.52394L 33.3346 7.46335L 31.8301 8.78114ZM 30.0484 7.18581L 28.7852 8.7364L 28.8431 8.78351L 28.9042 8.82618L 30.0484 7.18581ZM 28.3699 5.76242L 29.5117 4.12038L 29.5028 4.11423L 29.4939 4.10818L 28.3699 5.76242ZM 25.4118 4.38714L 25.9521 2.46151L 25.5257 2.34185L 25.0885 2.41343L 25.4118 4.38714ZM 18.1197 4.18772L 18.5503 2.23463L 18.535 2.23126L 18.5197 2.22813L 18.1197 4.18772ZM 10.4149 6.71521e-06L 11.8418 -1.4014L 11.1588 -2.09677L 10.1903 -1.98735L 10.4149 6.71521e-06ZM 8.63316 0.928301L 7.13295 -0.394336L 7.06536 -0.317665L 7.00593 -0.234502L 8.63316 0.928301ZM 10.9515 3.18377L 11.6521 1.31049L 11.6467 1.3085L 10.9515 3.18377ZM 12.9121 4.38026L 10.9267 4.62182L 10.9277 4.63001L 10.9288 4.6382L 12.9121 4.38026ZM 11.4812 6.1131L 9.50539 6.42316L 9.50649 6.43021L 9.50765 6.43725L 11.4812 6.1131ZM 12.9121 7.04141L 13.3694 5.09441L 13.3576 5.09163L 13.3458 5.089L 12.9121 7.04141ZM 16.3036 6.91076L 16.9204 5.00824L 16.919 5.00779L 16.3036 6.91076ZM 17.3768 7.83907L 15.3847 8.01701L 15.3848 8.01843L 17.3768 7.83907ZM 13.2492 9.83322L 11.2509 9.91664L 11.3455 12.1819L 13.5813 11.8055L 13.2492 9.83322ZM 12.3273 8.41669L 13.2133 6.62361L 13.1428 6.5888L 13.0699 6.55963L 12.3273 8.41669ZM 8.04155 9.21435L 8.4899 7.26525L 8.48946 7.26515L 8.04155 9.21435ZM 5.54436 7.74968L 5.76399 5.76177L 5.76313 5.76168L 5.54436 7.74968ZM 3.76261 8.27915L 5.61945 9.02221L 5.62303 9.01328L 5.62651 9.00431L 3.76261 8.27915ZM 4.65691 9.60631L 6.61067 10.0339L 6.6122 10.0269L 6.61368 10.0199L 4.65691 9.60631ZM 0.192248 11.2016L 2.14404 11.6381L 2.14458 11.6356L 0.192248 11.2016ZM 1.97401 12.9345L 3.86055 13.5985L 3.86232 13.5935L 1.97401 12.9345ZM 0.364231 13.8628L 1.83447 15.2187L 1.84097 15.2116L 1.84739 15.2045L 0.364231 13.8628ZM 0.00653593 14.9286L -1.98398 15.1231L -1.97714 15.1931L -1.9654 15.2625L 0.00653593 14.9286ZM 1.96712 16.5239L 1.22932 18.3829L 1.23682 18.3859L 1.24433 18.3888L 1.96712 16.5239ZM 5.17974 18.1399L 4.30566 19.9388L 4.36851 19.9693L 4.43333 19.9954L 5.17974 18.1399ZM 10.1566 18.9874C 11.4914 18.369 12.8517 17.514 13.9877 16.5795L 11.4375 13.4978C 10.5074 14.273 9.58753 14.8512 8.48557 15.3532L 10.1566 18.9874ZM 14.0283 16.5449C 15.7645 14.9899 16.5768 13.6026 17.0363 12.7123C 17.5071 11.7974 17.4449 11.6596 17.7655 11.62L 15.9149 8.07389C 14.5225 8.9283 13.8962 10.0764 13.4813 10.8788C 13.0551 11.7059 12.6601 12.4674 11.3969 13.5324L 14.0283 16.5449ZM 17.7343 11.636C 18.2616 11.3724 20.1561 10.8838 25.6755 13.2772L 27.2669 9.60738C 21.5593 7.13235 18.1705 6.94621 15.946 8.05796L 17.7343 11.636ZM 26.2967 13.4347C 28.0228 13.5824 29.6962 13.5318 30.8927 13.3283C 31.5288 13.2142 32.2319 13.0049 32.7121 12.7801C 33.2151 12.5365 33.9676 12.0584 34.3268 11.1608L 30.6131 9.67466C 30.8003 9.20681 31.1195 9.10695 30.9685 9.18009C 30.7947 9.27201 30.6232 9.31802 30.2051 9.38782C 29.2931 9.55218 28.1391 9.5841 26.6457 9.44991L 26.2967 13.4347ZM 34.3286 11.1564C 34.7567 10.0792 34.346 9.10455 34.1452 8.69727C 33.9163 8.25078 33.6054 7.81708 33.4357 7.58861L 30.2246 9.97366C 30.3082 10.0863 30.3761 10.177 30.4422 10.276C 30.5049 10.369 30.54 10.4305 30.5573 10.4655C 30.5776 10.5068 30.5495 10.4636 30.5304 10.3525C 30.5097 10.2318 30.4921 9.97904 30.6114 9.67906L 34.3286 11.1564ZM 33.3346 7.46335C 32.7249 6.77282 31.9462 6.07554 31.1926 5.54544L 28.9042 8.82618C 29.4633 9.21164 29.8811 9.58574 30.3257 10.0989L 33.3346 7.46335ZM 31.3116 5.63522C 30.6649 5.10926 30.4115 4.87821 30.2305 4.71048C 30.0381 4.5322 29.8738 4.37221 29.5117 4.12038L 27.2281 7.40445C 27.3406 7.48269 27.3277 7.47397 27.5119 7.64465C 27.7076 7.82589 28.0561 8.14151 28.7852 8.7364L 31.3116 5.63522ZM 29.4939 4.10818C 28.4515 3.40771 27.1597 2.80713 25.9521 2.46151L 24.8715 6.31277C 25.7716 6.55858 26.4778 6.88688 27.2458 7.41665L 29.4939 4.10818ZM 25.0885 2.41343C 22.8556 2.78824 20.7595 2.73092 18.5503 2.23463L 17.6891 6.14081C 20.272 6.7011 23.1253 6.77914 25.735 6.36085L 25.0885 2.41343ZM 18.5197 2.22813C 15.8765 1.711 13.7128 0.534967 11.8418 -1.4014L 8.98797 1.40141C 11.3044 3.72864 14.5064 5.46903 17.7197 6.14731L 18.5197 2.22813ZM 10.1903 -1.98735C 9.14215 -1.83498 7.85834 -1.16609 7.13295 -0.394336L 10.1334 2.25094C 10.3243 1.98339 10.3105 1.99058 10.6394 1.98736L 10.1903 -1.98735ZM 7.00593 -0.234502C 6.9759 -0.192454 6.68001 0.254354 6.47749 0.785094C 6.29189 1.33786 6.10953 2.39381 6.81606 3.40271L 10.0925 1.10821C 10.2366 1.314 10.2989 1.5432 10.3079 1.73625C 10.3159 1.9083 10.2815 2.02249 10.2694 2.05828C 10.252 2.11038 10.2381 2.12224 10.2604 2.0911L 7.00593 -0.234502ZM 6.81606 3.40271C 7.45939 4.32136 8.36855 4.55467 8.826 4.66573C 9.27845 4.77463 9.69287 4.84176 10.2563 5.05905L 11.6467 1.3085C 10.7448 0.982556 10.1033 0.860585 9.76974 0.778656C 9.59701 0.73672 9.62752 0.732569 9.71116 0.775318C 9.84508 0.843765 9.98957 0.961185 10.0925 1.10821L 6.81606 3.40271ZM 10.2509 5.05705C 10.5084 5.15336 10.7338 5.23617 10.9358 5.31681C 11.1362 5.39663 11.2677 5.45603 11.3529 5.50107C 11.4501 5.55247 11.406 5.54335 11.3157 5.45411C 11.2126 5.35217 10.9818 5.07464 10.9267 4.62182L 14.8974 4.13869C 14.7316 2.77585 13.5695 2.14834 13.2227 1.96497C 12.7417 1.71611 12.1479 1.49597 11.6521 1.31049L 10.2509 5.05705ZM 10.9288 4.6382C 10.8337 3.90723 11.2535 3.4717 11.2897 3.43509C 11.3174 3.40711 11.3097 3.42116 11.0661 3.58641C 10.9199 3.68558 10.5383 3.93503 10.2283 4.25794C 9.8999 4.59994 9.33754 5.35359 9.50539 6.42316L 13.457 5.80303C 13.5698 6.52191 13.17 6.96956 13.1136 7.02834C 13.0755 7.06803 13.0752 7.05704 13.3117 6.89662C 13.4507 6.80229 13.8269 6.55762 14.1318 6.24987C 14.4451 5.93347 15.0351 5.1971 14.8954 4.12232L 10.9288 4.6382ZM 9.50765 6.43725C 9.70445 7.63545 10.6766 8.24195 11.0246 8.44059C 11.4692 8.68433 12.0896 8.90415 12.4784 8.99382L 13.3458 5.089C 13.2191 5.06086 13.077 5.00629 13.0075 4.96662C 12.9742 4.94764 13.0249 4.96992 13.1072 5.05646C 13.1867 5.13999 13.388 5.38232 13.4548 5.78894L 9.50765 6.43725ZM 12.4547 8.98842C 13.5944 9.203 14.6003 9.02572 15.1283 8.90576C 15.6561 8.78585 15.6276 8.71957 15.6882 8.81372L 16.919 5.00779C 15.8101 4.72374 14.7738 4.88439 14.2422 5.00515C 13.7108 5.12587 13.6056 5.20301 13.3694 5.09441L 12.4547 8.98842ZM 15.6868 8.81328C 15.7336 8.82843 15.7675 8.85323 15.7546 8.84265C 15.745 8.83486 15.6833 8.78422 15.6103 8.6765C 15.5383 8.57021 15.4141 8.34579 15.3847 8.01701L 19.3688 7.66114C 19.2796 6.66206 18.6288 6.025 18.2818 5.74216C 17.9187 5.45931 17.3327 5.14935 16.9204 5.00824L 15.6868 8.81328ZM 15.3848 8.01843C 15.3547 7.68359 15.4364 7.41313 15.5185 7.24142C 15.5959 7.0796 15.678 6.99351 15.6968 6.97442C 15.7349 6.9221 15.6509 7.0256 15.4078 7.14212C 14.9195 7.38585 14.0767 7.66573 12.9171 7.86098L 13.5813 11.8055C 15.0004 11.5619 16.3297 11.1453 17.1943 10.721C 17.6692 10.4791 18.2147 10.1036 18.5427 9.78525C 18.9073 9.41614 19.4608 8.68199 19.3687 7.65972L 15.3848 8.01843ZM 15.2474 9.7498C 15.206 9.18679 14.9514 8.39028 14.6587 7.90781L 11.3061 10.0896C 11.2727 10.0381 11.2535 9.97843 11.2509 9.91664L 15.2474 9.7498ZM 14.6587 7.90781C 14.3361 7.44481 13.7111 6.88951 13.2133 6.62361L 11.4414 10.2098C 11.3864 10.1826 11.3397 10.1411 11.3061 10.0896L 14.6587 7.90781ZM 13.0699 6.55963C 12.2373 6.22675 11.4551 6.32018 10.9084 6.45747C 10.4235 6.58614 9.9338 6.79143 9.5818 6.94064C 8.77683 7.28191 8.58823 7.28787 8.4899 7.26525L 7.59321 11.1634C 9.13903 11.519 10.5086 10.8924 11.1431 10.6234C 11.5108 10.4674 11.7113 10.3732 11.8826 10.337C 11.9923 10.3095 11.8326 10.3728 11.5848 10.2738L 13.0699 6.55963ZM 8.48946 7.26515C 8.45676 7.35276 8.59858 7.37248 8.25397 7.02435C 7.83777 6.60488 7.10504 5.90993 5.76399 5.76177L 5.32474 9.73758C 5.40431 9.73054 5.31933 9.74439 5.27948 9.71023C 5.25855 9.71159 5.27594 9.70183 5.4145 9.84169C 5.68574 10.1151 6.35693 10.8794 7.59365 11.1636L 8.48946 7.26515ZM 5.76313 5.76168C 5.18275 5.70846 4.38516 5.78342 3.87203 5.92261C 3.593 6.00673 3.18243 6.18369 2.92106 6.34192C 2.62765 6.52905 2.15154 6.90411 1.8987 7.55399L 5.62651 9.00431C 5.53249 9.24599 5.40281 9.41476 5.30511 9.51839C 5.20773 9.62168 5.12076 9.68328 5.07195 9.71441C 4.98053 9.77272 4.9384 9.7781 4.98091 9.76584C 5.06868 9.74051 5.21545 9.72556 5.3256 9.73768L 5.76313 5.76168ZM 1.90576 7.5361C 1.7209 7.99805 1.69799 8.48333 1.80734 8.92998C 1.90781 9.34032 2.10074 9.64392 2.24435 9.83252C 2.5005 10.1689 2.8316 10.4249 2.91901 10.4956C 3.10602 10.6468 3.06783 10.6237 3.01526 10.5624C 2.96403 10.5027 2.53262 9.9853 2.70014 9.19273L 6.61368 10.0199C 6.83279 8.98321 6.29132 8.23806 6.05198 7.9589C 5.81131 7.67818 5.50697 7.44414 5.43343 7.3847C 5.372 7.33506 5.35098 7.31876 5.3313 7.30002C 5.31803 7.28799 5.3643 7.32721 5.42683 7.40934C 5.48757 7.48911 5.61993 7.68198 5.69259 7.97873C 5.77413 8.31178 5.75616 8.68059 5.61945 9.02221L 1.90576 7.5361ZM 2.70315 9.17874C 2.84417 8.53432 3.27819 8.2488 3.34165 8.20833C 3.43049 8.15166 3.44938 8.16063 3.31208 8.20311C 3.01576 8.29866 2.6036 8.36919 2.07281 8.46259C 1.54204 8.55599 0.903736 8.66865 0.385227 8.81468C 0.103218 8.89747 -0.306048 9.05768 -0.587918 9.21514C -0.884119 9.38971 -1.55688 9.85354 -1.76009 10.7676L 2.14458 11.6356C 1.98609 12.3486 1.48037 12.6392 1.443 12.6612C 1.35799 12.7113 1.34547 12.7007 1.49122 12.6587C 1.7965 12.5677 2.22707 12.4969 2.76603 12.4021C 3.30497 12.3072 3.96339 12.1848 4.49431 12.0244C 4.78345 11.933 5.20513 11.7544 5.49255 11.5808C 5.81742 11.3736 6.42149 10.8983 6.61067 10.0339L 2.70315 9.17874ZM -1.75954 10.7651C -1.92307 11.4964 -1.68948 12.105 -1.45812 12.4766C -1.24447 12.8198 -0.980338 13.0552 -0.815659 13.1888C -0.493933 13.4499 -0.0925169 13.6778 0.0989789 13.7902C 0.338523 13.9308 0.487681 14.0467 0.458156 14.011C 0.456273 14.0094 0.306967 13.8871 0.17678 13.6367C 0.0177268 13.3307 -0.107265 12.8284 0.0856927 12.2755L 3.86232 13.5935C 4.10687 12.8927 3.96081 12.2436 3.7259 11.7917C 3.51985 11.3954 3.23989 11.128 3.07043 10.9818C 2.73782 10.695 2.32335 10.4577 2.12403 10.3407C 1.87605 10.1951 1.65227 10.0324 1.70472 10.0828C 1.70952 10.0858 1.78778 10.1609 1.77018 10.1445C 1.80565 10.1815 1.86988 10.2538 1.93761 10.3626C 2.07892 10.5896 2.27489 11.053 2.14404 11.6381L -1.75954 10.7651ZM 0.0874695 12.2704C 0.31964 11.6108 0.830792 11.368 0.877751 11.3453C 0.922547 11.3236 0.941431 11.3189 0.898668 11.3339C 0.854275 11.3497 0.793313 11.3692 0.704046 11.3991C 0.360672 11.5141 -0.451943 11.7838 -1.11893 12.5211L 1.84739 15.2045C 1.76515 15.2954 1.69206 15.2866 1.97472 15.1919C 2.10798 15.1471 2.37061 15.0603 2.62138 14.9453C 2.89106 14.8146 3.56302 14.4438 3.86054 13.5985L 0.0874695 12.2704ZM -1.10601 12.5069C -1.37172 12.8114 -1.68559 13.3417 -1.82461 13.7211L 1.96751 14.9939C 1.93948 15.0774 1.89413 15.154 1.83447 15.2187L -1.10601 12.5069ZM -1.82461 13.7211C -1.94266 14.1077 -2.01225 14.7201 -1.98398 15.1231L 1.99705 14.7341C 2.00561 14.8217 1.99558 14.9102 1.96751 14.9939L -1.82461 13.7211ZM -1.9654 15.2625C -1.74085 16.5888 -0.724343 17.3476 -0.209136 17.6769C 0.37633 18.0395 1.00286 18.293 1.22932 18.3829L 2.70492 14.665C 2.4494 14.5636 2.17259 14.452 1.94546 14.3068C 1.83718 14.2376 1.80691 14.2014 1.81815 14.2142C 1.83318 14.2315 1.93855 14.3589 1.97847 14.5948L -1.9654 15.2625ZM 1.24433 18.3888C 1.95052 18.6505 2.45697 18.7423 2.72627 18.7983C 2.98731 18.8513 2.94062 18.8177 3.06213 18.9172L 5.15101 15.506C 4.50892 15.1379 3.89813 14.9564 3.53316 14.8805C 3.17645 14.8076 2.99498 14.7893 2.68991 14.6591L 1.24433 18.3888ZM 3.06213 18.9172C 3.16307 18.9756 3.20198 19.0217 3.17056 18.99C 3.17581 19.002 3.11972 18.9298 3.16123 18.9838C 3.19929 19.0327 3.33846 19.2112 3.52336 19.3999C 3.75672 19.6245 4.01699 19.7985 4.30566 19.9388L 6.05383 16.341C 6.09484 16.3609 6.19259 16.4172 6.29761 16.5183C 6.36627 16.5844 6.42731 16.6686 6.3263 16.5379C 6.25689 16.4483 6.0836 16.2424 5.88293 16.0501C 5.6735 15.8569 5.43337 15.6789 5.15101 15.506L 3.06213 18.9172ZM 4.43333 19.9954C 5.68004 20.4969 7.00967 20.1941 7.82546 19.9432C 8.70946 19.666 9.59464 19.2535 10.1765 18.9782L 8.46568 15.3625C 7.88495 15.6373 7.26355 15.9365 6.64958 16.12C 5.96739 16.3298 5.80765 16.2367 5.92615 16.2844L 4.43333 19.9954Z"/>
<path id="path2_fill" d="M 101.844 79.3845C 100.829 80.1078 99.7774 80.778 98.6932 81.3925C 95.9415 83.0634 95.3567 83.2422 95.0403 83.3178C 92.8939 83.8542 92.3642 82.7471 90.3899 82.9946C 87.3354 83.3797 84.0196 86.5979 84.0747 89.4172C 84.0747 90.6687 84.7626 91.7689 84.0747 92.9516C 83.8132 93.3917 83.256 94.0037 82.747 93.9143C 81.8045 93.7424 82.0591 91.2807 81.0891 91.0262C 80.1191 90.7718 78.8946 92.7385 78.7639 92.9516C 78.0521 94.106 77.7045 95.4478 77.7664 96.8024C 78.6951 99.9518 79.5068 100.646 80.0916 100.653C 81.0959 100.653 81.4674 98.6797 83.084 98.4115C 83.6048 98.3209 84.141 98.3955 84.6172 98.6248C 85.0934 98.8542 85.4858 99.2269 85.7394 99.6905C 86.1728 100.756 85.3473 102.049 84.4117 102.585C 82.9946 103.39 81.2335 102.544 81.0891 102.902C 80.9446 103.259 83.6963 103.988 84.3842 105.976C 85.0722 107.729 84.0265 110.266 82.3892 110.933C 81.0134 111.497 80.3254 110.246 78.3992 110.61C 76.0534 111.037 75.964 113.134 73.7488 113.498C 72.0084 113.787 70.4193 112.756 69.0985 111.896C 67.9264 111.132 66.9107 110.152 66.1059 109.008C 64.736 109.548 63.2604 109.767 61.7926 109.647C 60.4167 109.524 59.7288 109.139 58.1328 108.685C 56.4002 108.183 54.6206 107.861 52.822 107.722C 51.7347 108.022 50.5865 108.022 49.4993 107.722C 47.8895 107.248 46.3073 105.996 46.5068 105.474C 47.0847 103.961 62.2673 109.207 63.4505 106.759C 63.767 106.072 63.0034 105.088 62.1228 104.188C 59.5981 104.951 57.0941 104.029 56.1447 102.262C 55.8337 101.725 55.6699 101.116 55.6699 100.495C 55.6699 99.8745 55.8337 99.2649 56.1447 98.7278C 57.4518 96.8368 60.7057 97.7582 61.1253 96.4792C 61.4418 95.5303 60.004 93.8799 58.8001 93.9143C 57.5962 93.9487 57.2936 95.5578 56.1447 95.5165C 55.2504 95.5165 54.4249 94.4988 54.1497 93.5911C 53.6682 92.0302 54.9684 91.2119 54.4799 90.0636C 53.9915 88.9152 51.7282 88.0006 50.1597 88.7777C 49.6997 89.0432 49.3095 89.4143 49.0213 89.8602C 48.733 90.3062 48.555 90.8143 48.5018 91.3425C 48.2886 93.0204 49.3342 94.7807 51.1435 95.7984C 47.752 95.7434 45.8258 92.1333 44.5875 89.1077C 43.3217 88.9358 41.4574 88.6951 39.1941 88.4201C 35.6375 88.0419 33.842 87.8631 32.8858 88.0969C 29.5562 88.9221 28.5381 91.4388 26.5706 90.9919C 26.1028 90.8364 25.6723 90.5857 25.3064 90.2555C 24.9405 89.9252 24.6472 89.5227 24.4449 89.0734C 25.3348 86.8258 25.72 84.4103 25.5731 81.9976C 25.4699 80.4504 25.3254 78.2224 23.9152 77.5004C 23.1447 77.1153 22.7044 77.5004 21.2529 77.1841C 19.8013 76.8678 18.1847 75.967 18.2673 75.2587C 18.3498 74.5504 20.675 74.0141 20.9227 73.9728C 22.3329 73.7184 23.0346 74.021 23.2479 73.6496C 23.5368 73.1545 22.6425 71.9787 21.59 71.4011C 20.6637 70.9369 19.6004 70.8245 18.5975 71.0847C 17.999 72.0681 17.0152 72.5701 16.2723 72.3638C 15.2266 72.075 14.8964 70.4452 15.2748 69.4757C 15.7838 68.1554 17.882 67.3371 20.3861 67.8666C 19.9936 65.1349 19.33 62.449 18.4049 59.8487C 17.4972 57.2805 16.3454 54.8052 14.9652 52.4566C 15.5774 52.1409 16.1068 51.6858 16.5107 51.128C 16.9146 50.5702 17.1816 49.9253 17.2904 49.2454C 17.3528 48.5951 17.2656 47.9392 17.0355 47.3278C 16.8054 46.7164 16.4384 46.1657 15.9627 45.7178C 15.7013 42.4584 14.6281 41.1519 13.6375 40.5811C 11.9933 39.6391 10.2735 40.5399 7.32231 39.2953C 7.10218 39.2059 4.87328 38.2638 4.99711 37.6862C 5.12093 37.1085 7.33607 36.806 16.6231 37.6862C 12.3786 36.696 10.363 34.9356 9.31731 33.5122C 8.3542 32.1988 7.83825 30.6448 6.32481 30.3009C 4.9971 30.0053 4.26102 30.9473 2.6719 30.6241C 1.23413 30.3422 -0.127973 29.2489 0.00961327 28.6988C 0.209113 28.0111 3.5387 27.8255 15.7288 29.7508C 15.8465 28.6624 16.2711 27.6298 16.9533 26.7734C 17.3454 26.2851 18.4118 24.9718 19.9458 24.848C 21.4799 24.7242 21.8858 26.0238 23.5987 26.127C 25.0296 26.2232 25.7107 25.3775 27.9189 24.2016C 29.5021 23.3707 31.1756 22.7247 32.9064 22.2762C 32.1011 21.3794 31.6837 20.2003 31.7456 18.9968C 31.8075 17.7933 32.3436 16.6632 33.2366 15.8537C 33.9936 15.2838 34.9018 14.9498 35.8478 14.8936C 36.7937 14.8373 37.7352 15.0612 38.5543 15.5374C 39.493 15.5986 40.4256 15.3479 41.207 14.8243C 41.9883 14.3007 42.5746 13.5336 42.8745 12.6424C 43.1139 11.8144 43.0814 10.9314 42.7818 10.1233C 42.4822 9.31506 41.9312 8.6242 41.2097 8.15213C 38.0659 4.59704 35.5962 3.91627 33.9039 3.97816C 32.2116 4.04005 30.8082 4.90647 27.9189 4.61766C 26.6325 4.48701 25.0159 4.32885 24.5962 3.33178C 24.1766 2.3347 25.236 0.58124 26.5912 0.120522C 27.5406 -0.202668 28.3248 0.161782 29.9139 0.766903C 34.7707 2.59602 34.4199 1.79147 37.887 3.33178C 40.2604 4.38387 40.7763 4.92022 42.2072 4.94085C 43.5626 4.92005 44.8824 4.50421 46.0046 3.74437L 49.6988 5.00962C 51.1984 5.26107 52.7374 5.12617 54.1704 4.61766C 56.0966 3.93002 56.9221 2.69228 57.493 3.00859C 58.064 3.3249 57.7888 5.42909 56.8051 6.86625C 56.0686 7.91134 55.0216 8.69806 53.8126 9.11482C 57.8439 13.7632 58.7313 15.3036 58.4699 15.5374C 58.2085 15.7711 57.1422 14.7328 55.4774 14.891C 54.4455 14.9872 53.0421 15.5786 52.822 16.5C 52.54 17.669 54.3767 18.3773 54.1497 19.7113C 53.964 20.7634 52.7257 20.8872 52.4849 21.953C 52.2441 23.0189 53.0628 23.9403 53.8608 24.7036C 57.2041 22.2556 58.1879 22.0287 58.4699 22.2831C 58.752 22.5375 58.1122 23.287 58.1328 24.8549C 58.1535 26.4227 58.8208 26.9178 58.4699 27.4197C 57.782 28.4925 54.6588 27.3578 54.1497 28.3824C 54.1054 28.4844 54.0825 28.5944 54.0825 28.7056C 54.0825 28.8168 54.1054 28.9268 54.1497 29.0288C 54.7 30.3422 58.408 29.1663 59.4605 30.631C 59.7357 31.0092 59.9077 31.6625 59.4605 32.8796C 58.7726 33.189 57.3968 34.2549 57.3073 35.4513C 57.2904 35.9621 57.4087 36.4683 57.6503 36.9187C 57.8919 37.3691 58.2482 37.7477 58.6832 38.0162C 60.63 37.4386 63.2166 36.3384 64.0421 34.1655C 64.0834 34.0554 64.1178 33.9523 64.1453 33.856C 64.1453 33.8148 64.1453 33.7735 64.1453 33.7322L 65.9959 33.0446L 66.6081 33.471L 69.2498 33.1615C 69.2447 33.198 69.2447 33.235 69.2498 33.2715C 69.0503 33.9592 69.009 34.4268 69.1603 34.4955C 69.6006 34.7018 70.9352 31.2017 72.8132 31.2911C 74.54 31.3668 75.565 34.3993 76.136 34.1792C 76.7069 33.9592 75.448 31.7794 76.473 30.0053C 77.4981 28.2312 79.438 28.8569 80.4561 27.1172C 80.58 26.9021 80.6726 26.6706 80.7313 26.4295C 81.6582 27.2767 82.5399 28.1719 83.373 29.1113L 85.1272 29.5445L 86.565 29.4001L 87.8445 29.5445L 88.3192 30.1221L 87.6863 31.1399L 87.363 32.0063L 88.3192 32.4464L 89.9152 33.6016L 90.0803 34.3305L 88.6425 35.0181L 88.0028 35.747L 87.2047 36.1803L 85.6088 35.8914L 83.8545 36.7579L 83.2147 38.2088L 83.8545 40.6774L 84.6525 41.8326L 83.8201 42.7884L 84.1366 43.9506L 85.5743 44.5282L 86.6888 44.817L 87.3286 43.9506L 87.4868 42.9328L 89.7226 44.095L 90.5206 43.3661L 91.4768 43.5105L 93.7126 44.5282L 94.8683 45.6628C 89.2685 49.823 85.877 56.5412 87.5556 59.0029C 88.4843 63.4657 94.4349 66.9245 100.358 64.7172C 101.545 65.5138 102.545 66.5572 103.291 67.7761C 104.036 68.995 104.51 70.3605 104.678 71.7793C 104.823 73.1795 104.643 74.5942 104.151 75.9134C 103.66 77.2325 102.87 78.4204 101.844 79.3845L 101.844 79.3845Z"/>
<path id="path3_stroke_2x" d="M 98.6932 81.3924L 97.707 79.6525L 97.6808 79.6673L 97.6551 79.683L 98.6932 81.3924ZM 95.0403 83.3178L 94.5753 81.3726L 94.5653 81.375L 94.5554 81.3775L 95.0403 83.3178ZM 90.3899 82.9946L 90.141 81.0102L 90.1397 81.0103L 90.3899 82.9946ZM 84.0747 89.4172L 86.0747 89.4172L 86.0747 89.3977L 86.0743 89.3781L 84.0747 89.4172ZM 84.0747 92.9516L 85.7942 93.973L 85.7989 93.9651L 85.8035 93.9572L 84.0747 92.9516ZM 82.747 93.9143L 82.3881 95.8819L 82.4011 95.8842L 82.747 93.9143ZM 78.7639 92.9516L 80.4663 94.0013L 80.4689 93.9971L 78.7639 92.9516ZM 77.7664 96.8024L 75.7684 96.8936L 75.7795 97.1357L 75.848 97.3681L 77.7664 96.8024ZM 80.0916 100.653L 80.068 102.653L 80.0798 102.653L 80.0916 102.653L 80.0916 100.653ZM 83.084 98.4115L 83.4113 100.385L 83.4191 100.383L 83.4269 100.382L 83.084 98.4115ZM 85.7394 99.6905L 87.5921 98.9371L 87.549 98.8311L 87.4941 98.7307L 85.7394 99.6905ZM 84.4117 102.585L 85.3992 104.325L 85.4064 104.321L 84.4117 102.585ZM 84.3842 105.976L 82.4943 106.63L 82.5076 106.668L 82.5224 106.706L 84.3842 105.976ZM 82.3892 110.933L 81.6347 109.081L 81.6308 109.083L 82.3892 110.933ZM 78.3992 110.61L 78.7569 112.578L 78.764 112.577L 78.771 112.575L 78.3992 110.61ZM 73.7488 113.498L 73.4241 111.525L 73.4214 111.525L 73.7488 113.498ZM 69.0984 111.896L 68.0065 113.572L 68.0076 113.572L 69.0984 111.896ZM 66.1059 109.008L 67.7417 107.857L 66.8364 106.57L 65.3725 107.147L 66.1059 109.008ZM 61.7926 109.647L 61.6134 111.639L 61.622 111.64L 61.6306 111.641L 61.7926 109.647ZM 58.1328 108.685L 57.5766 110.606L 57.5858 110.609L 58.1328 108.685ZM 52.822 107.722L 52.9755 105.728L 52.6271 105.701L 52.2903 105.794L 52.822 107.722ZM 49.4993 107.722L 48.9338 109.64L 48.9507 109.645L 48.9676 109.65L 49.4993 107.722ZM 46.5068 105.474L 44.6385 104.76L 44.6383 104.76L 46.5068 105.474ZM 63.4505 106.759L 65.2512 107.63L 65.2595 107.613L 65.2674 107.596L 63.4505 106.759ZM 62.1228 104.188L 63.553 102.79L 62.7051 101.922L 61.5441 102.273L 62.1228 104.188ZM 56.1447 102.262L 57.9066 101.316L 57.8915 101.288L 57.8755 101.26L 56.1447 102.262ZM 56.1447 98.7278L 54.4995 97.5906L 54.454 97.6564L 54.414 97.7255L 56.1447 98.7278ZM 61.1253 96.4792L 59.228 95.8465L 59.225 95.8557L 61.1253 96.4792ZM 56.1447 95.5165L 56.2165 93.5178L 56.1806 93.5165L 56.1447 93.5165L 56.1447 95.5165ZM 54.1497 93.5911L 56.0637 93.0109L 56.0608 93.0016L 54.1497 93.5911ZM 50.1597 88.7777L 49.2719 86.9855L 49.2149 87.0138L 49.1598 87.0456L 50.1597 88.7777ZM 48.5018 91.3425L 50.4859 91.5947L 50.4892 91.5688L 50.4918 91.5427L 48.5018 91.3425ZM 51.1435 95.7984L 51.111 97.7982L 52.124 94.0553L 51.1435 95.7984ZM 44.5875 89.1077L 46.4385 88.3502L 46.001 87.2813L 44.8567 87.1259L 44.5875 89.1077ZM 39.1941 88.4201L 39.4354 86.4347L 39.4205 86.4329L 39.4056 86.4313L 39.1941 88.4201ZM 32.8858 88.0969L 32.4108 86.1541L 32.4047 86.1556L 32.8858 88.0969ZM 26.5706 90.9919L 25.94 92.8899L 26.0325 92.9206L 26.1275 92.9422L 26.5706 90.9919ZM 24.4449 89.0733L 22.5853 88.3371L 22.274 89.1233L 22.6212 89.8943L 24.4449 89.0733ZM 25.5731 81.9976L 27.5694 81.876L 27.5687 81.8645L 25.5731 81.9976ZM 23.9152 77.5004L 24.8266 75.7202L 24.818 75.7158L 24.8093 75.7114L 23.9152 77.5004ZM 20.9227 73.9728L 21.2513 75.9456L 21.2646 75.9434L 21.2778 75.9411L 20.9227 73.9728ZM 23.2479 73.6496L 21.5205 72.6416L 21.5136 72.6536L 23.2479 73.6496ZM 21.59 71.4011L 22.5522 69.6477L 22.5194 69.6297L 22.4859 69.613L 21.59 71.4011ZM 18.5975 71.0847L 18.0952 69.1488L 17.3105 69.3524L 16.889 70.0449L 18.5975 71.0847ZM 16.2723 72.3638L 16.8073 70.4367L 16.8047 70.4359L 16.2723 72.3638ZM 15.2748 69.4757L 17.1379 70.2028L 17.1409 70.1952L 15.2748 69.4757ZM 20.3861 67.8666L 19.9723 69.8233L 22.7728 70.4155L 22.3658 67.5822L 20.3861 67.8666ZM 18.4049 59.8487L 16.5192 60.5152L 16.5206 60.5191L 18.4049 59.8487ZM 14.9652 52.4566L 14.0485 50.6791L 12.1701 51.6478L 13.2409 53.4699L 14.9652 52.4566ZM 17.2904 49.2454L 19.2653 49.5612L 19.2752 49.4991L 19.2812 49.4364L 17.2904 49.2454ZM 15.9627 45.7178L 13.9691 45.8777L 14.0307 46.6458L 14.5917 47.174L 15.9627 45.7178ZM 13.6375 40.5811L 14.6359 38.8482L 14.6318 38.8458L 13.6375 40.5811ZM 7.32231 39.2953L 8.09949 37.4524L 8.08718 37.4472L 8.07479 37.4422L 7.32231 39.2953ZM 16.6231 37.6862L 16.4344 39.6772L 17.0775 35.7385L 16.6231 37.6862ZM 9.31731 33.5122L 7.70447 34.6949L 7.70548 34.6963L 9.31731 33.5122ZM 6.32481 30.3009L 6.76787 28.3506L 6.75956 28.3488L 6.32481 30.3009ZM 2.6719 30.6241L 3.0705 28.6642L 3.05675 28.6615L 2.6719 30.6241ZM 0.00961327 28.6988L -1.91118 28.1415L -1.92157 28.1773L -1.93062 28.2135L 0.00961327 28.6988ZM 15.7288 29.7508L 15.4168 31.7263L 17.4915 32.054L 17.7172 29.9658L 15.7288 29.7508ZM 16.9533 26.7734L 15.394 25.521L 15.389 25.5273L 16.9533 26.7734ZM 23.5987 26.127L 23.733 24.1314L 23.719 24.1306L 23.5987 26.127ZM 27.9189 24.2016L 26.9895 22.4306L 26.9789 22.4363L 27.9189 24.2016ZM 32.9064 22.2762L 33.4081 24.2123L 36.5922 23.3872L 34.3945 20.9399L 32.9064 22.2762ZM 33.2366 15.8537L 32.0337 14.2559L 31.9609 14.3107L 31.8934 14.3719L 33.2366 15.8537ZM 38.5543 15.5374L 37.5493 17.2665L 37.9555 17.5026L 38.4242 17.5331L 38.5543 15.5374ZM 42.8745 12.6424L 44.77 13.2803L 44.7838 13.2394L 44.7958 13.198L 42.8745 12.6424ZM 41.2097 8.15213L 39.7115 9.47703L 39.8896 9.67845L 40.1146 9.82568L 41.2097 8.15213ZM 33.9039 3.97816L 33.8308 1.9795L 33.9039 3.97816ZM 27.9189 4.61766L 27.7168 6.60743L 27.72 6.60774L 27.9189 4.61766ZM 26.5912 0.120522L 27.235 2.01409L 27.2358 2.01382L 26.5912 0.120522ZM 29.9139 0.766903L 29.2022 2.63599L 29.209 2.63857L 29.9139 0.766903ZM 37.887 3.33178L 37.075 5.15953L 37.0765 5.16019L 37.887 3.33178ZM 42.2072 4.94085L 42.1784 6.94064L 42.2082 6.94107L 42.2379 6.94061L 42.2072 4.94085ZM 46.0046 3.74437L 46.6527 1.85227L 45.7092 1.52912L 44.8833 2.08825L 46.0046 3.74437ZM 49.6988 5.00962L 49.0508 6.90172L 49.2061 6.95493L 49.3681 6.98208L 49.6988 5.00962ZM 54.1704 4.61766L 54.8392 6.5025L 54.8428 6.50123L 54.1704 4.61766ZM 56.8051 6.86625L 58.4399 8.01832L 58.4478 8.00719L 58.4555 7.99594L 56.8051 6.86625ZM 53.8126 9.11482L 53.1608 7.224L 50.3622 8.18873L 52.3017 10.4252L 53.8126 9.11482ZM 55.4774 14.891L 55.6632 16.8823L 55.6666 16.882L 55.4774 14.891ZM 52.822 16.5L 54.7662 16.9691L 54.7673 16.9648L 52.822 16.5ZM 54.1497 19.7113L 56.1193 20.059L 56.1214 20.0468L 54.1497 19.7113ZM 53.8608 24.7036L 52.4784 26.1489L 53.6898 27.3076L 55.0423 26.3173L 53.8608 24.7036ZM 58.4699 27.4197L 56.8306 26.274L 56.8078 26.3066L 56.7864 26.3401L 58.4699 27.4197ZM 54.1497 28.3824L 52.3586 27.4925L 52.3358 27.5385L 52.3153 27.5855L 54.1497 28.3824ZM 54.0825 28.7056L 52.0825 28.7056L 54.0825 28.7056ZM 54.1497 29.0288L 55.9943 28.2559L 55.9893 28.2439L 55.9841 28.2319L 54.1497 29.0288ZM 59.4605 30.631L 57.8364 31.7982L 57.8433 31.8077L 59.4605 30.631ZM 59.4605 32.8796L 60.281 34.7036L 61.0479 34.3586L 61.3379 33.5693L 59.4605 32.8796ZM 57.3073 35.4513L 55.3129 35.3023L 55.3098 35.3436L 55.3084 35.3851L 57.3073 35.4513ZM 58.6832 38.0162L 57.6325 39.718L 58.394 40.1882L 59.2521 39.9336L 58.6832 38.0162ZM 64.0421 34.1655L 65.9118 34.8758L 65.9147 34.868L 64.0421 34.1655ZM 64.1453 33.856L 66.0683 34.4057L 66.1453 34.1363L 66.1453 33.856L 64.1453 33.856ZM 64.1453 33.7322L 63.4487 31.8575L 62.1453 32.3418L 62.1453 33.7322L 64.1453 33.7322ZM 65.9959 33.0446L 67.1388 31.4034L 66.2801 30.8054L 65.2992 31.1699L 65.9959 33.0446ZM 66.6081 33.471L 65.4651 35.1122L 66.0875 35.5456L 66.8408 35.4574L 66.6081 33.471ZM 69.2498 33.1615L 71.2306 33.4375L 71.5878 30.874L 69.0171 31.1751L 69.2498 33.1615ZM 69.2498 33.2715L 71.1706 33.8288L 71.2896 33.4186L 71.2306 32.9956L 69.2498 33.2715ZM 69.1603 34.4955L 70.0089 32.6845L 69.9983 32.6795L 69.9877 32.6747L 69.1603 34.4955ZM 72.8132 31.2911L 72.7182 33.2889L 72.7257 33.2892L 72.8132 31.2911ZM 80.4561 27.1172L 82.1823 28.1274L 82.1893 28.1153L 80.4561 27.1172ZM 80.7313 26.4295L 82.0807 24.9533L 79.5871 22.674L 78.7881 25.9565L 80.7313 26.4295ZM 83.373 29.1113L 81.8766 30.4383L 82.2894 30.9038L 82.8935 31.053L 83.373 29.1113ZM 85.1272 29.5445L 84.6477 31.4862L 84.9832 31.5691L 85.3271 31.5345L 85.1272 29.5445ZM 86.565 29.4001L 86.7892 27.4128L 86.5773 27.3888L 86.3651 27.4101L 86.565 29.4001ZM 87.8446 29.5445L 89.3898 28.2748L 88.8748 27.6481L 88.0688 27.5571L 87.8446 29.5445ZM 88.3192 30.1221L 90.0176 31.1783L 90.7749 29.9605L 89.8644 28.8524L 88.3192 30.1221ZM 87.6863 31.1399L 85.9879 30.0837L 85.8824 30.2534L 85.8125 30.4407L 87.6863 31.1399ZM 87.363 32.0063L 85.4892 31.3071L 84.84 33.0468L 86.5268 33.8231L 87.363 32.0063ZM 88.3192 32.4464L 89.4919 30.8263L 89.3332 30.7114L 89.1553 30.6296L 88.3192 32.4464ZM 89.9152 33.6016L 91.8657 33.1597L 91.699 32.4239L 91.0879 31.9815L 89.9152 33.6016ZM 90.0803 34.3305L 90.9432 36.1348L 92.3837 35.4459L 92.0309 33.8886L 90.0803 34.3305ZM 88.6425 35.0181L 87.7796 33.2139L 87.4098 33.3907L 87.1394 33.6988L 88.6425 35.0181ZM 88.0028 35.747L 88.9569 37.5047L 89.2705 37.3345L 89.5059 37.0664L 88.0028 35.747ZM 87.2047 36.1803L 86.8486 38.1483L 87.5407 38.2735L 88.1589 37.938L 87.2047 36.1803ZM 85.6088 35.8914L 85.9649 33.9234L 85.3152 33.8058L 84.7231 34.0982L 85.6088 35.8914ZM 83.8545 36.7579L 82.9688 34.9647L 82.3176 35.2863L 82.0245 35.9509L 83.8545 36.7579ZM 83.2148 38.2088L 81.3848 37.4019L 81.1044 38.0378L 81.2787 38.7105L 83.2148 38.2088ZM 83.8545 40.6774L 81.9185 41.1791L 82.0074 41.5224L 82.209 41.8141L 83.8545 40.6774ZM 84.6525 41.8326L 86.1608 43.1461L 87.1812 41.9743L 86.2981 40.6959L 84.6525 41.8326ZM 83.8201 42.7884L 82.3119 41.475L 81.6093 42.2817L 81.8904 43.3139L 83.8201 42.7884ZM 84.1366 43.9506L 82.2069 44.4761L 82.4682 45.4356L 83.391 45.8064L 84.1366 43.9506ZM 85.5743 44.5282L 84.8288 46.384L 84.9481 46.4319L 85.0726 46.4642L 85.5743 44.5282ZM 86.6888 44.817L 86.187 46.753L 87.495 47.092L 88.2977 46.0051L 86.6888 44.817ZM 87.3286 43.9506L 88.9375 45.1386L 89.2294 44.7433L 89.3049 44.2578L 87.3286 43.9506ZM 87.4868 42.9328L 88.4092 41.1583L 85.9383 39.8739L 85.5106 42.6256L 87.4868 42.9328ZM 89.7226 44.095L 88.8002 45.8695L 90.0399 46.5139L 91.0714 45.5716L 89.7226 44.095ZM 90.5206 43.3661L 90.8192 41.3885L 89.876 41.2461L 89.1717 41.8894L 90.5206 43.3661ZM 91.4768 43.5105L 92.3054 41.6902L 92.0514 41.5746L 91.7754 41.5329L 91.4768 43.5105ZM 93.7126 44.5282L 95.1137 43.101L 94.8621 42.854L 94.5412 42.7079L 93.7126 44.5282ZM 94.8683 45.6628L 96.061 47.2682L 97.938 45.8737L 96.2694 44.2356L 94.8683 45.6628ZM 87.5556 59.0029L 89.5136 58.5955L 89.4325 58.2054L 89.208 57.8762L 87.5556 59.0029ZM 100.358 64.7172L 101.473 63.0567L 100.621 62.4849L 99.6595 62.8431L 100.358 64.7172ZM 104.678 71.7793L 106.668 71.5733L 106.666 71.5582L 106.664 71.5432L 104.678 71.7793ZM 100.683 77.7558C 99.7109 78.4495 98.7466 79.0641 97.707 79.6525L 99.6793 83.1324C 100.808 82.4918 101.947 81.766 103.005 81.0133L 100.683 77.7558ZM 97.6551 79.683C 96.3132 80.4983 95.5534 80.9197 95.064 81.1621C 94.8466 81.2708 94.7507 81.3122 94.6537 81.348C 94.6069 81.3683 94.6312 81.3594 94.5753 81.3726L 95.5052 85.263C 96.1674 85.1047 97.0016 84.7595 99.7313 83.102L 97.6551 79.683ZM 94.5554 81.3775C 93.9324 81.5863 93.773 81.5005 93.1829 81.3367C 92.5941 81.1751 91.5826 80.8815 90.141 81.0102L 90.6387 84.9791C 91.1715 84.8603 91.412 84.9964 92.1183 85.1924C 92.8231 85.3861 94.0018 85.5857 95.5251 85.2582L 94.5554 81.3775ZM 90.1397 81.0103C 88.0661 81.2718 86.0848 82.4446 84.6513 83.8796C 83.2412 85.2911 82.0328 87.2943 82.075 89.4562L 86.0743 89.3781C 86.0614 88.7207 86.4835 87.7052 87.4811 86.7066C 88.4554 85.7313 89.6592 85.1026 90.64 84.9789L 90.1397 81.0103ZM 82.0747 89.4172C 82.0796 89.8707 82.1431 90.3515 82.2032 90.6865C 82.2643 91.0223 82.3228 91.2834 82.3543 91.5038C 82.4099 91.8785 82.3626 91.9172 82.3458 91.9461L 85.8035 93.9572C 86.3496 92.881 86.4132 91.6423 86.311 90.9165C 86.2002 90.2023 86.0545 89.7593 86.0747 89.4172L 82.0747 89.4172ZM 82.3551 91.9302C 82.3153 91.9972 82.2496 92.0731 82.2214 92.0967C 82.2114 92.105 82.2636 92.0575 82.3832 92.0091C 82.5091 91.9583 82.7636 91.8866 83.0929 91.9445L 82.4011 95.8842C 83.5439 96.0849 84.4115 95.4793 84.7859 95.1664C 85.1778 94.8242 85.5962 94.2987 85.7942 93.973L 82.3551 91.9302ZM 83.1059 91.9468C 83.4423 92.0082 83.6955 92.1751 83.8519 92.3299C 83.9231 92.4004 83.9686 92.4623 83.9938 92.5003C 83.9867 92.4867 84.0263 92.5515 84.031 92.5635C 84.0811 92.6473 83.9507 92.3286 83.8629 91.9938C 83.775 91.6589 83.6313 91.1455 83.433 90.706C 83.2173 90.2496 82.7001 89.3811 81.5965 89.0917L 80.5816 92.9608C 79.9631 92.7985 79.7778 92.3332 79.8166 92.4153C 79.8728 92.5144 79.9062 92.6748 79.9938 93.0087C 80.0814 93.3426 80.2249 93.8551 80.4224 94.2891C 80.6379 94.7398 81.1932 95.6639 82.3881 95.8819L 83.1059 91.9468ZM 81.5965 89.0917C 80.6094 88.8328 79.7752 89.1933 79.306 89.4747C 78.8833 89.7405 78.4157 90.1598 78.134 90.4659C 77.5732 91.0932 77.1275 91.7943 77.0589 91.9062L 80.4689 93.9971C 80.5179 93.9171 80.7772 93.5037 81.0894 93.1613C 81.1704 93.0718 81.2091 93.032 81.2808 92.9706C 81.3368 92.9215 81.365 92.9041 81.3638 92.9048C 81.3617 92.9061 81.3461 92.9154 81.3171 92.9279C 81.2881 92.9404 81.2403 92.9584 81.175 92.9738C 81.0395 93.0058 80.8282 93.0255 80.5816 92.9608L 81.5965 89.0917ZM 77.0615 91.902C 76.2123 93.3216 75.7153 95.2403 75.7684 96.8936L 79.7643 96.7112C 79.6937 95.6553 79.8919 94.8904 80.4663 94.0013L 77.0615 91.902ZM 75.848 97.3681C 76.3344 99.0174 76.8415 100.216 77.4119 101.042C 77.988 101.877 78.8584 102.639 80.068 102.653L 80.1151 98.6533C 80.74 98.6607 80.9122 99.0718 80.704 98.7702C 80.4902 98.4604 80.127 97.7368 79.6847 96.2367L 75.848 97.3681ZM 80.0916 102.653C 81.0685 102.653 81.7489 102.152 82.1252 101.798C 82.4476 101.485 82.73 101.12 82.9214 100.88C 83.1145 100.638 83.1941 100.53 83.3266 100.435C 83.4535 100.323 83.3217 100.373 83.4113 100.385L 82.7567 96.4384C 81.1311 96.7081 80.2178 97.8556 79.795 98.3854C 79.5659 98.6728 79.4661 98.8181 79.3858 98.8832C 79.3595 98.908 79.6168 98.6532 80.0916 98.6532L 80.0916 102.653ZM 83.4269 100.382C 83.6389 100.321 83.5622 100.31 83.7493 100.427L 85.4851 96.823C 84.7197 96.481 83.5708 96.3212 82.7412 96.4411L 83.4269 100.382ZM 83.7493 100.427C 83.9572 100.5 83.9008 100.447 83.9848 100.65L 87.4941 98.7307C 87.0708 98.0071 86.2296 97.2083 85.4851 96.823L 83.7493 100.427ZM 83.8867 100.444C 83.8158 100.269 83.9082 100.232 83.8103 100.422C 83.7681 100.504 83.7041 100.596 83.6234 100.681C 83.5418 100.767 83.4659 100.822 83.417 100.85L 85.4064 104.321C 86.1096 103.894 86.9468 103.023 87.3676 102.251C 87.808 101.395 88.0965 100.177 87.5921 98.9371L 83.8867 100.444ZM 83.4243 100.846C 83.2819 100.927 83.0197 100.978 82.4803 100.922C 82.2261 100.897 81.9236 100.846 81.6278 100.821C 81.4517 100.808 81.0936 100.815 80.8313 100.856C 80.4904 100.922 79.6251 101.186 79.2347 102.153L 82.9434 103.651C 82.5891 104.528 81.8105 104.74 81.5991 104.781C 81.3821 104.824 81.2405 104.803 81.312 104.808C 81.4313 104.816 81.6848 104.86 82.066 104.9C 82.7976 104.977 84.1245 105.048 85.3992 104.325L 83.4243 100.846ZM 79.2347 102.153C 78.9635 102.824 79.1015 103.448 79.2962 103.848C 79.465 104.195 79.6917 104.42 79.8031 104.523C 79.9861 104.684 80.2509 104.868 80.4141 104.966C 80.7095 105.144 81.0448 105.321 81.3598 105.521C 82.0428 105.95 82.3865 106.318 82.4943 106.63L 86.2742 105.321C 85.694 103.645 84.3179 102.656 83.4892 102.134C 83.0483 101.859 82.6798 101.663 82.4784 101.54C 82.3562 101.467 82.4165 101.492 82.5188 101.587C 82.5675 101.632 82.7491 101.802 82.8932 102.099C 83.0632 102.448 83.1966 103.024 82.9434 103.651L 79.2347 102.153ZM 82.5224 106.706C 82.6315 106.984 82.6484 107.511 82.4054 108.11C 82.1575 108.721 81.8029 109.013 81.6347 109.081L 83.1438 112.786C 84.6128 112.187 85.5997 110.876 86.112 109.614C 86.6292 108.339 86.8249 106.72 86.2461 105.245L 82.5224 106.706ZM 81.6308 109.083C 81.5698 109.132 81.765 109.102 81.6794 109.082C 81.5998 109.084 81.5297 109.049 81.2387 108.951C 80.6562 108.755 79.5024 108.433 78.0274 108.645L 78.771 112.575C 79.2223 112.423 79.3755 112.544 79.9625 112.742C 80.5414 112.937 81.7101 113.373 83.1477 112.784L 81.6308 109.083ZM 78.0416 108.642C 76.2824 109.06 75.1732 110.071 74.5756 110.699C 73.9778 111.328 73.9139 111.552 73.4241 111.525L 74.0735 115.472C 75.7989 115.08 76.8873 114.073 77.4745 113.455C 78.0618 112.838 78.1702 112.587 78.7569 112.578L 78.0416 108.642ZM 73.4214 111.525C 72.5809 111.665 71.6662 111.181 70.1893 110.22L 68.0076 113.572C 69.1724 114.33 71.4358 115.909 74.0762 115.471L 73.4214 111.525ZM 70.1904 110.22C 69.1724 109.568 68.4299 108.851 67.7417 107.857L 64.4701 110.159C 65.3915 111.453 66.6803 112.697 68.0065 113.572L 70.1904 110.22ZM 65.3725 107.147C 64.2192 107.616 63.1943 107.768 61.9546 107.654L 61.6306 111.641C 63.3265 111.766 65.2527 111.48 66.8393 110.869L 65.3725 107.147ZM 61.9718 107.656C 61.0078 107.613 60.4961 107.292 58.6799 106.761L 57.5858 110.609C 58.9616 110.986 59.8256 111.434 61.6134 111.639L 61.9718 107.656ZM 58.6891 106.764C 56.8573 106.236 54.876 105.877 52.9755 105.728L 52.6685 109.716C 54.3651 109.844 55.9431 110.13 57.5766 110.606L 58.6891 106.764ZM 52.2903 105.794C 51.4665 106.04 50.8548 106.04 50.031 105.794L 48.9676 109.65C 50.3183 110.004 52.003 110.004 53.3537 109.65L 52.2903 105.794ZM 50.0647 105.804C 49.514 105.641 48.9336 105.329 48.5399 105.027C 48.341 104.879 48.2391 104.732 48.2764 104.796C 48.2799 104.8 48.3559 104.901 48.4165 105.09C 48.4777 105.281 48.5627 105.696 48.3753 106.187L 44.6383 104.76C 44.1871 105.942 44.8701 106.915 45.0513 107.162C 45.3048 107.495 45.7364 107.915 46.1093 108.204C 46.8098 108.732 47.9319 109.334 48.9338 109.64L 50.0647 105.804ZM 48.3751 106.187C 48.0913 106.93 47.4778 107.142 47.3821 107.173C 47.2524 107.214 47.2199 107.197 47.378 107.195C 47.7279 107.186 48.204 107.242 48.9192 107.356C 50.3836 107.587 52.3297 108.016 54.3531 108.427C 56.3764 108.838 58.5248 109.237 60.2305 109.372C 61.1097 109.439 62.0545 109.431 62.7552 109.314C 63.4208 109.196 64.6599 108.853 65.2512 107.63L 61.6498 105.889C 61.9453 105.278 62.4512 105.306 62.0577 105.376C 61.6993 105.447 61.2594 105.442 60.5398 105.384C 59.0479 105.272 57.1427 104.912 55.1502 104.507C 53.1579 104.102 51.126 103.656 49.5441 103.405C 48.7362 103.278 47.9221 103.191 47.3264 103.195C 46.9877 103.202 46.5042 103.265 46.1766 103.359C 45.7944 103.479 44.9945 103.828 44.6385 104.76L 48.3751 106.187ZM 65.2674 107.596C 65.8588 106.31 65.2952 105.11 64.9594 104.539C 64.5965 103.94 64.0322 103.281 63.553 102.79L 60.6926 105.586C 61.1063 106.009 61.3775 106.339 61.5117 106.568C 61.576 106.677 61.5578 106.679 61.5397 106.589C 61.5175 106.478 61.4968 106.221 61.6337 105.923L 65.2674 107.596ZM 61.5441 102.273C 59.696 102.832 58.2988 102.046 57.9066 101.316L 54.3828 103.209C 55.8893 106.013 59.5003 107.07 62.7016 106.102L 61.5441 102.273ZM 57.8755 101.26C 57.6807 100.958 57.6527 100.854 57.6699 100.495L 53.6699 100.495C 53.6871 101.377 53.9867 102.492 54.414 103.265L 57.8755 101.26ZM 57.6699 100.495C 57.6527 100.136 57.6807 100.032 57.8755 99.7301L 54.414 97.7255C 53.9867 98.4977 53.6871 99.6127 53.6699 100.495L 57.6699 100.495ZM 57.79 99.865C 57.901 99.7043 58.1737 99.5278 59.286 99.3485C 59.7716 99.27 60.4059 99.179 60.9634 99.0091C 61.5493 98.8216 62.6167 98.3492 63.0257 97.1027L 59.225 95.8557C 59.4242 95.2487 59.9274 95.1408 59.7444 95.1993C 59.5329 95.2754 59.1934 95.3121 58.6496 95.3995C 57.7033 95.552 55.6955 95.8602 54.4995 97.5906L 57.79 99.865ZM 63.0226 97.1119C 63.2991 96.2829 63.1383 95.5003 62.9348 94.964C 62.7432 94.4884 62.3622 93.8838 62.0248 93.4961C 61.3702 92.7628 60.1884 91.8739 58.743 91.9151L 58.8572 95.9135C 58.7745 95.9159 58.7241 95.903 58.7125 95.8997C 58.7011 95.8965 58.7148 95.8991 58.7512 95.9191C 58.8297 95.9624 58.9385 96.0452 59.0409 96.1599C 59.0892 96.2141 59.1274 96.2657 59.1551 96.3096C 59.1765 96.3424 59.1712 96.3329 59.1853 96.362C 59.1923 96.3756 59.1874 96.3652 59.1925 96.3772C 59.1941 96.3808 59.1948 96.3826 59.1948 96.3826C 59.1914 96.3741 59.1943 96.3821 59.1926 96.376C 59.1908 96.3709 59.1872 96.3574 59.1869 96.3552C 59.1825 96.3366 59.1762 96.3053 59.1726 96.2621C 59.1655 96.1768 59.1675 96.0281 59.228 95.8465L 63.0226 97.1119ZM 58.743 91.9151C 57.1704 91.9601 56.2451 93.1018 55.9808 93.3887C 55.4864 93.9254 55.7302 93.5003 56.2165 93.5178L 56.0729 97.5152C 57.7081 97.5739 58.6776 96.365 58.9228 96.0988C 59.3979 95.583 59.2259 95.903 58.8572 95.9135L 58.743 91.9151ZM 56.1447 93.5165C 56.3067 93.5165 56.4063 93.5631 56.4286 93.5749C 56.4474 93.5848 56.4189 93.5729 56.359 93.5104C 56.3013 93.4501 56.2373 93.3667 56.1795 93.2675C 56.1214 93.1678 56.0836 93.0767 56.0637 93.0109L 52.2357 94.1714C 52.4505 94.8364 52.9604 95.7235 53.4711 96.278C 54.0191 96.8499 54.9362 97.5165 56.1447 97.5165L 56.1447 93.5165ZM 56.0608 93.0016C 55.9087 92.8428 55.9956 92.8926 56.19 92.3752C 56.3326 91.9951 56.9295 90.713 56.3204 89.2808L 52.6395 90.8463C 52.5188 90.5625 52.7099 90.2637 52.4448 90.9701C 52.2316 91.5392 51.9092 92.7785 52.2386 94.1807L 56.0608 93.0016ZM 56.3204 89.2808C 55.7599 87.9629 54.4522 87.1672 53.3588 86.8017C 52.1983 86.4138 50.6645 86.2956 49.2719 86.9855L 51.0475 90.5698C 51.2234 90.4827 51.6055 90.4332 52.0909 90.5954C 52.3133 90.6698 52.4884 90.7682 52.5994 90.8537C 52.7232 90.949 52.6905 90.9663 52.6395 90.8463L 56.3204 89.2808ZM 49.1598 87.0456C 48.5023 87.4413 47.7698 88.1378 47.3416 88.7745L 50.7009 90.9459C 50.8492 90.6907 50.8972 90.6451 51.1596 90.5098L 49.1598 87.0456ZM 47.3416 88.7745C 46.9368 89.4265 46.6026 90.3805 46.5119 91.1424L 50.4918 91.5427C 50.5074 91.2481 50.5291 91.1859 50.7009 90.9459L 47.3416 88.7745ZM 46.5178 91.0904C 46.1753 93.7852 47.8486 96.2398 50.1629 97.5416L 52.124 94.0553C 50.8198 93.3217 50.4019 92.2555 50.4859 91.5947L 46.5178 91.0904ZM 51.1759 93.7987C 50.2747 93.7841 49.4462 93.321 48.6019 92.2957C 47.6849 91.2054 47.0355 89.811 46.4385 88.3502L 42.7365 89.8653C 43.3778 91.4301 44.3106 93.3535 45.5141 94.8384C 46.7904 96.3884 48.6207 97.7578 51.111 97.7982L 51.1759 93.7987ZM 44.8567 87.1259C 43.5843 86.9531 41.7061 86.7107 39.4354 86.4347L 38.9528 90.4055C 41.2087 90.6796 43.0591 90.9185 44.3183 91.0895L 44.8567 87.1259ZM 39.4056 86.4313C 37.6251 86.242 36.2431 86.0986 35.1884 86.0328C 34.1695 85.9697 33.2115 85.9584 32.4108 86.1541L 33.3608 90.0397C 33.5163 90.0017 33.9342 89.9628 34.9412 90.0252C 35.9124 90.0849 37.2066 90.22 38.9826 90.4089L 39.4056 86.4313ZM 32.4047 86.1556C 30.3526 86.7079 28.9308 87.7474 28.0299 88.4122C 27.5821 88.7427 27.3531 88.9205 27.116 89.0125C 26.9216 89.1141 27.1176 89.1044 27.0137 89.0416L 26.1275 92.9422C 28.1332 93.3978 29.6155 92.2133 30.405 91.6307C 31.3373 90.9425 32.0894 90.3111 33.3669 90.0382L 32.4047 86.1556ZM 27.2012 89.0939C 26.9258 89.0136 26.852 88.9706 26.6464 88.7707L 23.9664 91.7402C 24.4927 92.2008 25.2798 92.6593 25.94 92.8899L 27.2012 89.0939ZM 26.6464 88.7707C 26.4266 88.5867 26.3764 88.5179 26.2686 88.2524L 22.6212 89.8943C 22.9179 90.5276 23.4545 91.2637 23.9664 91.7402L 26.6464 88.7707ZM 26.3044 89.8096C 27.2637 87.3546 27.7176 84.5076 27.5694 81.876L 23.5768 82.1191C 23.7223 84.313 23.406 86.297 22.5853 88.3371L 26.3044 89.8096ZM 27.5687 81.8645C 27.5171 81.0919 27.4328 79.9543 27.1661 78.9218C 26.8893 77.8891 26.2883 76.4685 24.8266 75.7202L 23.0037 79.2807C 22.9523 79.2543 23.1286 79.3087 23.3025 79.9573C 23.4863 80.6061 23.5259 81.356 23.5775 82.1306L 27.5687 81.8645ZM 24.8093 75.7114C 23.9893 75.3613 23.2051 75.308 22.7951 75.317C 22.3931 75.3259 22.1566 75.3502 21.6787 75.2299L 20.827 79.1382C 21.8006 79.3343 22.5101 79.3242 22.8837 79.316C 23.2494 79.3078 23.0706 79.2544 23.021 79.2894L 24.8093 75.7114ZM 21.6787 75.2299C 21.1552 75.1159 20.6007 74.8909 20.2314 74.6641C 20.0413 74.5514 19.9808 74.4603 20.0108 74.5094C 20.025 74.5259 20.093 74.607 20.1558 74.7563C 20.2219 74.9133 20.2911 75.1702 20.2538 75.4902L 16.2807 75.0272C 16.1653 76.0174 16.665 76.7537 16.9788 77.1184C 17.2741 77.4473 17.753 77.8321 18.1382 78.0727C 18.8647 78.51 19.9435 78.9389 20.827 79.1382L 21.6787 75.2299ZM 20.2538 75.4902C 20.2023 75.9322 19.9948 76.2102 19.9023 76.3162C 19.8083 76.4241 19.741 76.4618 19.766 76.4457C 19.8174 76.4125 19.9643 76.3375 20.2203 76.2439C 20.4704 76.1513 20.6984 76.0851 20.9259 76.0252C 21.1585 75.9637 21.2805 75.9408 21.2513 75.9456L 20.594 72C 20.4153 72.0306 19.5918 72.219 18.8459 72.4874C 18.475 72.6242 17.968 72.853 17.5984 73.0839C 17.3246 73.2605 16.4157 73.8689 16.2807 75.0272L 20.2538 75.4902ZM 21.2778 75.9411C 21.7834 75.8396 22.1398 75.8576 22.5478 75.855C 22.7627 75.8534 23.1389 75.8314 23.4527 75.7674C 23.9255 75.6558 24.5722 75.3595 24.9822 74.6457L 21.5136 72.6536C 21.6434 72.4276 21.8276 72.2316 22.0482 72.087C 22.2533 71.9526 22.4364 71.8974 22.5332 71.8746C 22.626 71.8527 22.6815 71.8509 22.6628 71.8521C 22.6319 71.8546 22.6037 71.8546 22.5205 71.8551C 22.1718 71.8577 21.4723 71.8517 20.5676 72.0046L 21.2778 75.9411ZM 24.9753 74.6577C 25.4587 73.8292 25.3011 72.9964 25.1659 72.5683C 25.0359 72.1905 24.7609 71.6843 24.5256 71.3611C 24.0812 70.7811 23.2743 70.0593 22.5522 69.6477L 20.6278 73.1544C 20.8946 73.3008 21.165 73.5458 21.3184 73.7515C 21.3967 73.8565 21.3814 73.8673 21.3516 73.773C 21.3351 73.7208 21.3003 73.5922 21.303 73.4063C 21.3057 73.2122 21.3508 72.9324 21.5205 72.6416L 24.9753 74.6577ZM 22.4859 69.613C 21.2258 69.0175 19.452 68.8301 18.0952 69.1488L 19.0997 73.0207C 19.7488 72.819 20.1015 72.8563 20.694 73.1891L 22.4859 69.613ZM 16.889 70.0449C 16.7591 70.2583 16.6163 70.3688 16.5412 70.4092C 16.5057 70.4283 16.5052 70.4214 16.5447 70.415C 16.5856 70.4084 16.6797 70.4012 16.8073 70.4367L 15.7372 74.2909C 17.6896 74.833 19.4612 73.5125 20.3059 72.1246L 16.889 70.0449ZM 16.8047 70.4359C 17.0029 70.4907 17.1207 70.6008 17.1647 70.6541C 17.1999 70.6967 17.1825 70.6931 17.1584 70.6111C 17.1356 70.5335 17.1216 70.4342 17.1236 70.3356C 17.1256 70.2325 17.1437 70.1879 17.1379 70.2028L 13.4116 68.7486C 13.0388 69.704 13.0488 70.8138 13.3207 71.7389C 13.5844 72.6363 14.274 73.8867 15.7398 74.2916L 16.8047 70.4359ZM 17.1409 70.1952C 17.11 70.2751 17.1635 70.0605 17.7205 69.8729C 18.2394 69.6982 19.0224 69.6225 19.9723 69.8233L 20.7998 65.9099C 19.2796 65.6072 17.5985 65.7115 16.4441 66.082C 15.1987 66.5014 13.9486 67.3559 13.4087 68.7561L 17.1409 70.1952ZM 22.3658 67.5822C 21.9567 64.7523 21.2453 61.8732 20.2892 59.1784L 16.5206 60.5191C 17.4146 63.0248 18.0306 65.5174 18.4064 68.151L 22.3658 67.5822ZM 20.2906 59.1823C 19.3488 56.5246 18.1162 53.8756 16.6895 51.4433L 13.2409 53.4699C 14.5745 55.7348 15.6456 58.0365 16.5192 60.5152L 20.2906 59.1823ZM 15.8819 54.2342C 16.6953 53.7993 17.5787 53.0398 18.1306 52.3009L 14.8907 49.955C 14.6348 50.3318 14.4595 50.4825 14.0485 50.6791L 15.8819 54.2342ZM 18.1306 52.3009C 18.6604 51.546 19.1062 50.4696 19.2653 49.5612L 15.3155 48.9295C 15.2571 49.381 15.1688 49.5944 14.8907 49.955L 18.1306 52.3009ZM 19.2812 49.4364C 19.3525 48.5587 19.2054 47.4521 18.9073 46.6233L 15.1637 48.0323C 15.3259 48.4263 15.3531 48.6315 15.2995 49.0543L 19.2812 49.4364ZM 18.9073 46.6233C 18.585 45.8037 17.9659 44.8747 17.3337 44.2616L 14.5917 47.174C 14.9109 47.4567 15.0258 47.6291 15.1637 48.0323L 18.9073 46.6233ZM 17.9563 45.5579C 17.6626 41.8961 16.3868 39.8569 14.6359 38.8482L 12.6391 42.3141C 12.8694 42.4468 13.74 43.0206 13.9691 45.8777L 17.9563 45.5579ZM 14.6318 38.8458C 13.3085 38.0876 11.929 38.0953 11.0658 38.0539C 10.087 38.0072 9.26611 37.9731 8.09949 37.4524L 6.54514 41.1381C 8.32974 41.862 9.84439 41.9998 10.8743 42.0494C 12.0199 42.1043 12.3223 42.1326 12.6432 42.3165L 14.6318 38.8458ZM 8.07479 37.4422C 7.97665 37.4024 7.47825 37.1958 7.00819 36.9289C 6.76311 36.7916 6.63293 36.6975 6.59568 36.6648C 6.57361 36.6455 6.66142 36.7146 6.75998 36.8762C 6.85509 37.0322 7.08521 37.4872 6.95267 38.1054L 3.04154 37.2669C 2.87805 38.0296 3.15073 38.6404 3.34489 38.9588C 3.50458 39.2022 3.78256 39.5143 3.95877 39.6726C 4.27173 39.9393 4.71915 40.2306 5.05326 40.4187C 5.72172 40.7895 6.44784 41.0987 6.56983 41.1483L 8.07479 37.4422ZM 6.95267 38.1054C 6.83134 38.6714 6.48114 38.998 6.27908 39.1359C 6.10254 39.2565 5.98835 39.2737 6.06118 39.2549C 6.29237 39.1898 6.64153 39.154 7.41761 39.139C 9.07573 39.1015 11.8351 39.2408 16.4344 39.6772L 16.8118 35.6951C 12.1241 35.2513 9.13237 35.1019 7.33019 35.14C 6.37614 35.1628 5.56786 35.256 5.05866 35.3825C 4.7613 35.4595 4.38118 35.5883 4.02352 35.8325C 3.64034 36.0942 3.19383 36.5565 3.04154 37.2669L 6.95267 38.1054ZM 17.0775 35.7385C 13.2514 34.8459 11.6656 33.3306 10.9291 32.3282L 7.70548 34.6963C 9.06035 36.5406 11.5058 38.546 16.1687 39.6339L 17.0775 35.7385ZM 10.9301 32.3295C 10.5361 31.8025 10.1653 31.0841 9.63801 30.3572C 9.06526 29.5793 8.19216 28.6742 6.76787 28.3506L 5.88174 32.2512C 5.9709 32.2715 6.1125 32.3154 6.41686 32.7288C 6.76664 33.1933 7.1354 33.9085 7.70447 34.6949L 10.9301 32.3295ZM 6.75956 28.3488C 5.57658 28.1549 4.56909 28.3994 4.04239 28.5511C 3.51353 28.7037 3.40698 28.7866 3.07049 28.6643L 2.27331 32.584C 3.52594 32.7848 4.58199 32.5583 5.15038 32.3946C 5.72093 32.23 5.74533 32.1513 5.89005 32.2531L 6.75956 28.3488ZM 3.05675 28.6615C 2.6661 28.5849 2.24028 28.3798 1.9501 28.1621C 1.79898 28.0539 1.7768 27.9928 1.79619 28.0343C 1.8104 28.0543 1.87523 28.1478 1.92841 28.3122C 1.98194 28.4776 2.04753 28.7935 1.94985 29.184L -1.93062 28.2135C -2.18436 29.228 -1.68985 30.0337 -1.46546 30.3498C -1.22323 30.6768 -0.802035 31.0928 -0.450112 31.3619C 0.207548 31.8443 1.3142 32.3784 2.28705 32.5868L 3.05675 28.6615ZM 1.93041 29.256C 1.73689 29.923 1.25502 30.1972 1.1384 30.2556C 1.01071 30.3196 0.976733 30.3049 1.14843 30.2777C 1.55678 30.2092 2.17043 30.1907 3.28186 30.2428C 5.59691 30.347 9.36628 30.7702 15.4168 31.7263L 16.0408 27.7753C 9.90124 26.8061 5.91076 26.3594 3.46361 26.247C 2.19394 26.1908 1.1759 26.2274 0.522907 26.3269C 0.135192 26.3922 -0.352705 26.538 -0.653718 26.6795C -1.03823 26.8722 -1.66779 27.3026 -1.91118 28.1415L 1.93041 29.256ZM 17.7172 29.9658C 17.7848 29.1551 17.9953 28.6433 18.5177 28.0195L 15.389 25.5273C 14.5469 26.6163 13.9081 28.1697 13.7404 29.5359L 17.7172 29.9658ZM 18.5126 28.0257C 18.7063 27.7846 18.9232 27.498 19.2688 27.2373C 19.5941 26.9777 19.8744 26.8602 20.1067 26.8415L 19.785 22.8545C 17.283 23.0563 15.721 25.1137 15.394 25.521L 18.5126 28.0257ZM 20.1067 26.8415C 20.2526 26.7324 20.1432 26.7794 20.6327 27.0905C 21.1242 27.4027 22.1084 27.9723 23.4785 28.1234L 23.719 24.1306C 23.3761 24.1785 23.3009 24.0468 22.7777 23.7143C 22.2525 23.3807 21.1731 22.8398 19.785 22.8545L 20.1067 26.8415ZM 23.4645 28.1225C 24.5872 28.1564 25.6641 27.811 26.4367 27.3907C 27.1519 26.9913 27.86 26.4947 28.8589 25.9669L 26.9789 22.4363C 25.7696 23.0844 25.0331 23.5986 24.498 23.8919C 24.0202 24.1644 24.0412 24.1938 23.733 24.1315L 23.4645 28.1225ZM 28.8483 25.9725C 30.3283 25.1921 31.7875 24.6288 33.4081 24.2123L 32.4048 20.3402C 30.5636 20.8206 28.6758 21.5494 26.9895 22.4307L 28.8483 25.9725ZM 34.3945 20.9399C 33.9424 20.4365 33.7083 19.7748 33.743 19.0995L 29.7483 18.8941C 29.6592 20.6259 30.2597 22.3223 31.4184 23.6125L 34.3945 20.9399ZM 33.743 19.0995C 33.7777 18.4242 34.0785 17.79 34.5799 17.3355L 31.8934 14.3719C 30.6087 15.5365 29.8373 17.1624 29.7483 18.8941L 33.743 19.0995ZM 34.4396 17.4515C 34.9504 17.0401 35.3107 16.9076 35.9665 16.89L 35.729 12.8971C 34.493 12.9921 33.0367 13.5275 32.0337 14.2559L 34.4396 17.4515ZM 35.9665 16.89C 36.6198 16.8297 36.9933 16.9186 37.5493 17.2665L 39.5593 13.8082C 38.477 13.2039 36.9676 12.8449 35.729 12.8971L 35.9665 16.89ZM 38.4242 17.5331C 39.6902 17.5888 41.253 17.1687 42.3203 16.4857L 40.0936 13.1628C 39.5983 13.527 39.2958 13.6083 38.6845 13.5416L 38.4242 17.5331ZM 42.3203 16.4857C 43.3579 15.7582 44.3406 14.4724 44.77 13.2803L 40.979 12.0045C 40.8086 12.5948 40.6188 12.8432 40.0936 13.1628L 42.3203 16.4857ZM 44.7958 13.198C 45.099 12.0585 45.0432 10.5421 44.6571 9.42799L 40.9065 10.8185C 41.1197 11.3208 41.1289 11.5703 40.9532 12.0869L 44.7958 13.198ZM 44.6571 9.42799C 44.2236 8.33148 43.2775 7.14523 42.3048 6.47858L 40.1146 9.82568C 40.5848 10.1032 40.7407 10.2986 40.9065 10.8185L 44.6571 9.42799ZM 42.7079 6.82723C 39.2831 2.95439 36.2762 1.89007 33.8308 1.9795L 33.977 5.97682C 34.9163 5.94248 36.8487 6.23969 39.7115 9.47703L 42.7079 6.82723ZM 33.8308 1.9795C 32.7313 2.03592 31.7964 2.30149 30.9609 2.46971C 30.1035 2.64562 29.3294 2.76235 28.1178 2.62758L 27.72 6.60774C 29.3977 6.76177 30.77 6.5897 31.7597 6.38913C 32.7713 6.18087 33.3842 5.98229 33.977 5.97682L 33.8308 1.9795ZM 28.121 2.62789C 27.4303 2.55775 26.9004 2.49888 26.4938 2.37998C 26.0343 2.24566 26.2873 2.19402 26.4396 2.55595L 22.7529 4.1076C 23.3248 5.46662 24.596 5.99259 25.3713 6.21927C 26.1687 6.44346 27.0757 6.5423 27.7168 6.60742L 28.121 2.62789ZM 26.4396 2.55595C 26.5322 2.77577 26.4935 2.90697 26.5026 2.86108C 26.5099 2.82393 26.542 2.71867 26.6316 2.573C 26.7185 2.43171 26.8328 2.29654 26.9562 2.18994C 27.0812 2.08194 27.1815 2.03227 27.235 2.01409L 25.9475 -1.77305C 24.73 -1.35917 23.7895 -0.441022 23.2247 0.477034C 22.7111 1.31184 22.1714 2.72596 22.7529 4.1076L 26.4396 2.55595ZM 27.2358 2.01382C 27.2609 2.00527 27.2908 1.97762 27.5347 2.03764C 27.8927 2.12575 28.315 2.29815 29.2022 2.63598L 30.6257 -1.10217C 29.8535 -1.39606 29.1449 -1.6799 28.4907 -1.84645C 27.7636 -2.01321 26.7627 -2.01796 25.9467 -1.77277L 27.2358 2.01382ZM 29.209 2.63857C 31.7668 3.59687 33.0221 3.88707 33.9715 4.10635C 34.9196 4.32529 35.5149 4.45695 37.075 5.15953L 38.699 1.50403C 36.792 0.666298 35.8292 0.430084 34.8716 0.208938C 33.9156 -0.0118621 32.9178 -0.233946 30.6188 -1.10476L 29.209 2.63857ZM 37.0765 5.16019C 38.1859 5.64996 38.908 6.04695 39.5895 6.35129C 40.3229 6.67134 41.1998 6.9091 42.1784 6.94064L 42.2361 2.94106C 41.7838 2.95197 41.6873 2.91124 41.2116 2.69493C 40.6841 2.46291 39.9615 2.06568 38.6975 1.50337L 37.0765 5.16019ZM 42.2379 6.94061C 43.8818 6.89441 45.7526 6.30494 47.1259 5.40048L 44.8833 2.08825C 44.0121 2.70349 43.2434 2.94568 42.1765 2.94109L 42.2379 6.94061ZM 45.3566 5.63647L 49.0508 6.90172L 50.3469 3.11752L 46.6527 1.85227L 45.3566 5.63647ZM 49.3681 6.98208C 51.1198 7.25952 53.1626 7.08045 54.8392 6.5025L 53.5015 2.73282C 52.3122 3.17188 51.2771 3.26262 50.0296 3.03715L 49.3681 6.98208ZM 54.8428 6.50123C 56.0512 6.05086 56.9605 5.43636 57.4716 5.08566C 57.7249 4.91184 57.8321 4.85946 57.8067 4.86165C 57.7459 4.88828 57.1746 5.11857 56.5239 4.75807L 58.4622 1.25911C 57.526 0.740456 56.6373 1.00684 56.201 1.19808C 55.8509 1.36049 55.4735 1.60559 55.2082 1.78762C 54.6822 2.14862 54.2157 2.49682 53.4979 2.73408L 54.8428 6.50123ZM 56.5239 4.75807C 56.1436 4.54741 55.9561 4.25539 55.878 4.09893C 55.8011 3.9446 55.7869 3.83928 55.7863 3.83568C 55.7856 3.83075 55.7979 3.94937 55.7577 4.19815C 55.6781 4.69053 55.4598 5.29091 55.1547 5.73655L 58.4555 7.99594C 59.0793 7.05505 59.5491 5.7588 59.7065 4.83605C 59.7828 4.33871 59.8007 3.69431 59.7432 3.24971C 59.6841 2.85046 59.4674 1.81595 58.4622 1.25911L 56.5239 4.75807ZM 55.1703 5.71417C 54.633 6.51888 54.0836 6.93168 53.1608 7.224L 54.4644 11.0056C 55.9597 10.4644 57.5043 9.3038 58.4399 8.01832L 55.1703 5.71417ZM 52.3017 10.4252C 54.2896 12.7167 55.4536 14.1805 56.1097 15.1244C 56.4147 15.5599 56.5296 15.7502 56.5873 15.8911C 56.6072 15.9364 56.542 15.81 56.5195 15.5776C 56.4991 15.367 56.4827 14.6314 57.1367 14.0466L 59.8032 17.0281C 60.5225 16.3848 60.5355 15.5499 60.5009 15.1922C 60.4642 14.8127 60.341 14.4912 60.2515 14.2867C 60.0904 13.9278 59.7805 13.3986 59.3923 12.8387C 58.6622 11.792 57.3669 10.1614 55.3236 7.80447L 52.3017 10.4252ZM 57.1367 14.0466C 57.6896 13.5521 58.3044 13.5574 58.5324 13.58C 58.7471 13.6014 58.8791 13.6594 58.8381 13.6438C 58.7607 13.6165 58.5778 13.5255 58.2667 13.3953C 57.6833 13.155 56.5264 12.8237 55.2883 12.8999L 55.6666 16.882C 56.0932 16.8001 56.3019 16.9089 56.7332 17.0897C 56.9294 17.1701 57.1662 17.285 57.4142 17.3817C 57.5652 17.4378 57.8906 17.5268 58.1367 17.5604C 58.4796 17.5945 59.1849 17.5811 59.8032 17.0281L 57.1367 14.0466ZM 55.2916 12.8996C 54.5953 12.9729 53.5997 13.2582 52.8921 13.6278C 52.2006 14.0027 51.1839 14.7497 50.8767 16.0353L 54.7673 16.9648C 54.7203 17.1612 54.6306 17.2552 54.629 17.2568C 54.6267 17.2593 54.6377 17.2475 54.6681 17.2252C 54.7189 17.1864 54.725 17.1831 54.7985 17.1443C 55.0552 17.0052 55.4007 16.9068 55.6632 16.8823L 55.2916 12.8996ZM 50.8778 16.0309C 50.6638 16.9178 50.8847 17.6776 51.1626 18.2197C 51.3979 18.6542 51.7152 19.0599 51.9091 19.3001C 52.4103 19.9209 52.1175 19.7316 52.178 19.3758L 56.1214 20.0468C 56.4089 18.357 55.3113 17.1465 55.0214 16.7874C 54.8197 16.5377 54.6995 16.3263 54.7222 16.3951C 54.7421 16.4339 54.8392 16.6668 54.7662 16.9691L 50.8778 16.0309ZM 52.1802 19.3636C 52.2328 19.0654 52.4953 18.9337 52.0746 19.2766C 51.7788 19.5176 50.8275 20.2136 50.5341 21.5123L 54.4358 22.3937C 54.3832 22.6266 54.1714 22.7278 54.6013 22.3775C 54.9063 22.1289 55.8809 21.4094 56.1192 20.059L 52.1802 19.3636ZM 50.5341 21.5123C 50.2648 22.7043 50.6258 23.7303 51.0665 24.4678C 51.4676 25.1139 52.0487 25.7373 52.4784 26.1489L 55.2432 23.2583C 54.8623 22.8939 54.6272 22.6284 54.5001 22.4158C 54.3922 22.2352 54.4643 22.2676 54.4358 22.3937L 50.5341 21.5123ZM 55.0423 26.3173C 56.689 25.1116 57.6469 24.5348 58.169 24.2876C 58.4393 24.1597 58.4743 24.1781 58.3567 24.1933C 58.2324 24.2093 57.6616 24.2474 57.1303 23.7681L 59.8095 20.798C 59.1372 20.1915 58.3377 20.1626 57.8451 20.2261C 57.3593 20.2888 56.8865 20.4692 56.4576 20.6722C 55.6591 21.0537 54.415 21.8209 52.6792 23.0899L 55.0423 26.3173ZM 57.1303 23.7681C 56.8096 23.4788 56.6385 23.1166 56.5741 22.7929C 56.5194 22.5182 56.5494 22.3147 56.5564 22.269C 56.5648 22.2142 56.5723 22.1967 56.555 22.259C 56.5383 22.3196 56.5139 22.3992 56.4807 22.5121C 56.3517 22.9513 56.1379 23.8237 56.133 24.8812L 60.1327 24.8285C 60.1072 24.3182 60.2029 24.0319 60.3181 23.6408C 60.373 23.4537 60.4608 23.1577 60.5103 22.8745C 60.5565 22.5731 60.6624 21.5674 59.8095 20.798L 57.1303 23.7681ZM 56.133 24.8812C 56.1712 25.9722 56.4164 26.7827 56.5404 27.1607C 56.624 27.4152 56.5893 27.344 56.5773 27.2182C 56.5678 27.1196 56.5655 26.9605 56.6107 26.7693C 56.6573 26.5723 56.7395 26.4044 56.8306 26.274L 60.1092 28.5655C 60.9548 27.3556 60.386 26.0505 60.3409 25.9133C 60.2139 25.5263 60.1152 25.3053 60.1327 24.8285L 56.133 24.8812ZM 56.7864 26.3401C 57.0948 25.8591 57.5159 25.8648 57.2754 25.9014C 57.0475 25.9434 56.7507 25.9303 56.2889 25.9197C 55.8273 25.909 55.2004 25.8996 54.6554 25.9714C 54.159 26.0434 52.9542 26.2938 52.3586 27.4925L 55.9408 29.2723C 55.5997 29.9588 54.9762 29.9667 55.2302 29.9299C 55.4354 29.8927 55.7278 29.9078 56.1966 29.9186C 56.6652 29.9294 57.3101 29.9348 57.8771 29.8559C 58.4316 29.7715 59.5011 29.5167 60.1535 28.4994L 56.7864 26.3401ZM 52.3153 27.5855C 52.1992 27.8792 52.093 28.3898 52.0825 28.7056L 56.0825 28.7056C 56.0825 28.8687 56.049 29.03 55.9841 29.1793L 52.3153 27.5855ZM 52.0825 28.7056C 52.093 29.0215 52.1992 29.532 52.3153 29.8257L 55.9841 28.2319C 56.049 28.3813 56.0825 28.5425 56.0825 28.7056L 52.0825 28.7056ZM 52.3051 29.8017C 52.8361 31.069 54.0296 31.4473 54.633 31.5803C 55.2488 31.7081 55.9659 31.7446 56.5224 31.7709C 57.0792 31.7973 57.4801 31.8115 57.8148 31.8963C 58.1205 31.9668 57.9869 32.0076 57.8364 31.7981L 61.0847 29.4639C 60.4079 28.5221 59.4161 28.1606 58.7134 27.9986C 58.0396 27.8509 57.2818 27.8024 56.7112 27.7754C 56.1403 27.7484 55.7615 27.7411 55.4944 27.6742C 55.2148 27.6125 55.7385 27.6454 55.9943 28.2559L 52.3051 29.8017ZM 57.8433 31.8077C 57.8071 31.7579 57.777 31.7019 57.7568 31.6456C 57.7369 31.5899 57.7348 31.5568 57.7349 31.559C 57.7357 31.5717 57.742 31.7578 57.5832 32.1899L 61.3379 33.5693C 61.9265 31.967 61.876 30.5515 61.0778 29.4543L 57.8433 31.8077ZM 58.6401 31.0556C 58.0455 31.3231 57.325 31.8208 56.724 32.4402C 56.1476 33.0344 55.4086 34.0217 55.3129 35.3023L 59.3018 35.6004C 59.3166 35.6375 59.2552 35.6844 59.3313 35.5627C 59.3793 35.4767 59.4648 35.3597 59.595 35.2255C 59.8763 34.9355 60.1876 34.7455 60.281 34.7036L 58.6401 31.0556ZM 55.3084 35.3851C 55.3 36.1583 55.5376 37.1747 55.8879 37.8641L 59.4128 35.9733C 59.2798 35.7619 59.2807 35.7659 59.3062 35.5176L 55.3084 35.3851ZM 55.8879 37.8641C 56.2685 38.5371 56.9837 39.2972 57.6325 39.718L 59.7339 36.3145C 59.5127 36.1981 59.5154 36.201 59.4128 35.9733L 55.8879 37.8641ZM 59.2521 39.9336C 60.2885 39.625 61.6704 39.1037 62.8409 38.3865C 64.0452 37.6361 65.2878 36.5181 65.9118 34.8757L 62.1725 33.4552C 61.9709 33.9857 61.5075 34.5044 60.7255 34.9917C 59.9095 35.5122 59.0247 35.8299 58.1143 36.0989L 59.2521 39.9336ZM 65.9147 34.868C 65.9686 34.7233 66.0284 34.5438 66.0683 34.4057L 62.2224 33.3064C 62.2073 33.3608 62.1982 33.3876 62.1696 33.463L 65.9147 34.868ZM 66.1453 33.856C 66.1453 33.8148 66.1453 33.7735 66.1453 33.7322L 62.1453 33.7322C 62.1453 33.7735 62.1453 33.8148 62.1453 33.856L 66.1453 33.856ZM 64.842 35.607L 66.6925 34.9194L 65.2992 31.1699L 63.4487 31.8575L 64.842 35.607ZM 64.8529 34.6858L 65.4651 35.1122L 67.7511 31.8297L 67.1388 31.4034L 64.8529 34.6858ZM 66.8408 35.4574L 69.4825 35.1479L 69.0171 31.1751L 66.3754 31.4845L 66.8408 35.4574ZM 67.2689 32.8855C 67.2495 33.0597 67.2495 33.3734 67.2689 33.5475L 71.2306 32.9956C 71.2511 33.1422 71.2511 33.2909 71.2306 33.4375L 67.2689 32.8855ZM 67.329 32.7143C 67.2092 33.1323 67.1098 33.6225 67.0794 33.9615C 67.0658 34.1766 67.0839 34.5583 67.1301 34.8064C 67.1923 35.0855 67.433 35.9075 68.333 36.3164L 69.9877 32.6747C 70.812 33.0492 71.0012 33.787 71.0347 33.9376C 71.0613 34.0571 71.0669 34.1475 71.0684 34.191C 71.07 34.238 71.0678 34.266 71.0676 34.2697C 71.0665 34.3011 71.0689 34.2405 71.0882 34.1519C 71.1087 34.0512 71.1301 33.9673 71.1706 33.8288L 67.329 32.7143ZM 68.3118 36.3066C 68.9943 36.6264 69.6358 36.4992 70.0198 36.3398C 70.2578 36.2272 70.5861 36.0041 70.7215 35.8846C 70.9114 35.7019 71.1347 35.4312 71.2706 35.2451C 71.5201 34.9004 71.7806 34.4942 72.0523 34.1309C 72.3267 33.7605 72.5066 33.5329 72.7505 33.3536C 72.9393 33.2047 72.9105 33.298 72.7182 33.2889L 72.9083 29.2934C 71.7769 29.2395 70.8771 29.7369 70.2737 30.2126C 69.7254 30.658 69.192 31.2758 68.8429 31.7434C 68.4912 32.2183 68.2181 32.6428 68.0349 32.8935C 67.9316 33.0357 67.9355 33.0125 68.0118 32.9422C 68.0468 32.9101 68.2097 32.7602 68.4868 32.6453C 68.8019 32.5145 69.3815 32.3905 70.0089 32.6845L 68.3118 36.3066ZM 72.7257 33.2892C 72.5602 33.282 72.5397 33.2072 72.696 33.3382C 72.9032 33.4998 73.0534 33.6985 73.296 34.0299C 73.5358 34.3552 73.795 34.7492 74.0562 35.0799C 74.2057 35.2647 74.4906 35.5589 74.7308 35.744C 75.0248 35.9559 75.8431 36.4355 76.8552 36.0454L 75.4168 32.313C 76.2861 31.978 76.9474 32.411 77.0694 32.4988C 77.2134 32.6026 77.2582 32.6794 77.1812 32.583C 77.0357 32.4046 76.8236 32.077 76.52 31.6623C 76.2192 31.2536 75.7537 30.6937 75.2652 30.2724C 74.7258 29.8203 73.9297 29.3381 72.9008 29.2931L 72.7257 33.2892ZM 76.8552 36.0454C 77.6938 35.7223 78.0722 35.0269 78.206 34.5203C 78.3179 34.0966 78.2942 33.7083 78.2786 33.5191C 78.2433 33.1361 78.1618 32.7266 78.1135 32.3879C 78.0094 31.6706 78.0508 31.2723 78.2048 31.0058L 74.7413 29.0047C 73.8702 30.5124 74.0286 32.091 74.155 32.9622C 74.2219 33.4176 74.284 33.7052 74.2922 33.8482C 74.2983 33.9221 74.2712 33.7541 74.3387 33.4987C 74.4281 33.1603 74.7209 32.5812 75.4168 32.313L 76.8552 36.0454ZM 78.2048 31.0058C 78.2865 30.6373 78.4448 30.6978 79.1808 30.4167C 79.9168 30.1356 81.2366 29.5158 82.1823 28.1274L 78.73 26.107C 78.6575 26.4583 78.4983 26.3955 77.7535 26.68C 77.0088 26.9644 75.6846 27.5991 74.7413 29.0047L 78.2048 31.0058ZM 82.1893 28.1153C 82.3795 27.775 82.5775 27.2803 82.6746 26.9026L 78.7881 25.9565C 78.7678 26.061 78.7805 26.0293 78.723 26.1191L 82.1893 28.1153ZM 79.382 27.9058C 80.2706 28.7171 81.0788 29.5376 81.8766 30.4383L 84.8694 27.7844C 84.0011 26.8062 83.0457 25.8363 82.0807 24.9533L 79.382 27.9058ZM 82.8935 31.053L 84.6477 31.4862L 85.6067 27.6029L 83.8525 27.1697L 82.8935 31.053ZM 85.3271 31.5345L 86.7648 31.3901L 86.3651 27.4101L 84.9274 27.5545L 85.3271 31.5345ZM 86.3407 31.3875L 87.6203 31.5319L 88.0688 27.5571L 86.7892 27.4128L 86.3407 31.3875ZM 86.2993 30.8143L 86.7739 31.3919L 89.8644 28.8524L 89.3898 28.2748L 86.2993 30.8143ZM 86.6208 29.066L 85.9879 30.0837L 89.3847 32.196L 90.0176 31.1783L 86.6208 29.066ZM 85.8125 30.4407L 85.4892 31.3071L 89.2368 32.7055L 89.5601 31.8391L 85.8125 30.4407ZM 86.5268 33.8231L 87.483 34.2632L 89.1553 30.6296L 88.1992 30.1895L 86.5268 33.8231ZM 87.1465 34.0665L 88.7425 35.2217L 91.0879 31.9815L 89.4919 30.8263L 87.1465 34.0665ZM 87.9646 34.0435L 88.1298 34.7724L 92.0309 33.8886L 91.8657 33.1597L 87.9646 34.0435ZM 89.2174 32.5262L 87.7796 33.2139L 89.5054 36.8224L 90.9432 36.1348L 89.2174 32.5262ZM 87.1394 33.6988L 86.4996 34.4277L 89.5059 37.0664L 90.1456 36.3375L 87.1394 33.6988ZM 87.0486 33.9893L 86.2505 34.4226L 88.1589 37.938L 88.9569 37.5047L 87.0486 33.9893ZM 87.5609 34.2122L 85.9649 33.9234L 85.2526 37.8595L 86.8486 38.1483L 87.5609 34.2122ZM 84.7231 34.0982L 82.9688 34.9647L 84.7402 38.5511L 86.4944 37.6846L 84.7231 34.0982ZM 82.0245 35.9509L 81.3848 37.4019L 85.0447 39.0157L 85.6845 37.5648L 82.0245 35.9509ZM 81.2787 38.7105L 81.9185 41.1791L 85.7906 40.1756L 85.1508 37.707L 81.2787 38.7105ZM 82.209 41.8141L 83.007 42.9694L 86.2981 40.6959L 85.5001 39.5407L 82.209 41.8141ZM 83.1443 40.5191L 82.3119 41.475L 85.3284 44.1019L 86.1608 43.1461L 83.1443 40.5191ZM 81.8904 43.3139L 82.2069 44.4761L 86.0663 43.4251L 85.7499 42.2629L 81.8904 43.3139ZM 83.391 45.8064L 84.8288 46.384L 86.3199 42.6723L 84.8822 42.0947L 83.391 45.8064ZM 85.0726 46.4642L 86.187 46.753L 87.1905 42.8809L 86.0761 42.5921L 85.0726 46.4642ZM 88.2977 46.0051L 88.9375 45.1386L 85.7197 42.7625L 85.0799 43.6289L 88.2977 46.0051ZM 89.3049 44.2578L 89.4631 43.2401L 85.5106 42.6256L 85.3523 43.6433L 89.3049 44.2578ZM 86.5644 44.7074L 88.8002 45.8695L 90.645 42.3204L 88.4092 41.1583L 86.5644 44.7074ZM 91.0714 45.5716L 91.8694 44.8428L 89.1717 41.8894L 88.3737 42.6183L 91.0714 45.5716ZM 90.2219 45.3436L 91.1782 45.488L 91.7754 41.5329L 90.8192 41.3885L 90.2219 45.3436ZM 90.6482 45.3307L 92.884 46.3485L 94.5412 42.7079L 92.3054 41.6902L 90.6482 45.3307ZM 92.3115 45.9554L 93.4672 47.09L 96.2694 44.2356L 95.1137 43.101L 92.3115 45.9554ZM 93.6756 44.0573C 90.6913 46.2925 88.1592 49.349 86.7181 52.0282C 85.9885 53.4055 85.4376 54.9159 85.2286 56.1438C 85.0207 57.421 85.0706 58.9087 85.9032 60.1297L 89.208 57.8762C 89.2012 57.8663 89.0457 57.5911 89.1766 56.7863C 89.3064 55.9321 89.6387 55.0414 90.247 53.9114C 91.482 51.576 93.4456 49.1932 96.061 47.2682L 93.6756 44.0573ZM 85.5975 59.4104C 86.8162 65.2665 94.1794 69.1541 101.056 66.5913L 99.6595 62.8431C 94.6904 64.695 90.1524 61.6649 89.5136 58.5955L 85.5975 59.4104ZM 99.2433 66.3778C 100.258 67.045 100.961 67.7782 101.584 68.8198L 104.997 66.7324C 104.129 65.3362 102.831 63.9826 101.473 63.0567L 99.2433 66.3778ZM 101.584 68.8198C 102.228 69.8493 102.56 70.8087 102.692 72.0153L 106.664 71.5432C 106.459 69.9124 105.845 68.1407 104.997 66.7324L 101.584 68.8198ZM 102.689 71.9853C 102.823 73.1559 102.701 74.1154 102.277 75.2149L 106.025 76.6118C 106.585 75.073 106.823 73.2031 106.668 71.5733L 102.689 71.9853ZM 102.277 75.2149C 101.878 76.3237 101.342 77.1295 100.474 77.927L 103.213 80.8421C 104.398 79.7113 105.441 78.1413 106.025 76.6118L 102.277 75.2149Z"/>
<path id="path4_fill" d="M 1.4192 14.1894C 2.47861 14.9801 3.26287 14.2925 5.39545 15.3102C 6.5553 15.905 7.61959 16.6699 8.55303 17.5794C 10.0252 18.9135 10.3417 19.6423 11.4492 19.9174C 12.2649 20.0965 13.1156 20.0271 13.8914 19.718C 13.8181 20.4578 13.5744 21.1707 13.1793 21.8006C 12.7843 22.4305 12.2486 22.9604 11.6143 23.3487C 10.8834 23.7661 10.0702 24.0192 9.23147 24.0905C 8.39269 24.1618 7.54845 24.0494 6.75754 23.7613C 4.69375 22.7917 2.5887 23.1355 1.86637 24.1464C 0.917025 25.4666 2.61623 27.5846 2.82949 27.8046C 3.81592 28.8958 5.15567 29.6043 6.6131 29.8056L 10.7957 30.9815C 14.1421 30.2705 17.6162 30.4459 20.8739 31.4903C 24.9559 32.8435 28.5131 35.4375 31.0484 38.9099C 31.3786 39.3638 31.8601 40.2165 32.7407 40.4021C 34.4605 40.7528 36.3661 38.3392 37.7213 36.1869C 38.8911 35.1011 40.2005 34.1761 41.615 33.4364C 42.6156 32.9139 43.6636 32.4879 44.7451 32.1642C 47.4968 34.2271 50.2485 34.5847 51.4937 33.402C 52.2985 32.625 52.6907 30.9402 52.099 30.2457C 51.6175 29.6818 50.7232 30.0463 50.2967 29.3862C 50.1666 29.1362 50.1051 28.8563 50.1184 28.5749C 50.1317 28.2935 50.2193 28.0206 50.3723 27.784C 50.6541 27.4256 51.0424 27.166 51.4813 27.0424C 51.9202 26.9188 52.387 26.9377 52.8145 27.0963C 54.2316 27.5639 54.6994 29.5031 54.8439 30.0807C 55.3254 32.068 54.4724 32.7625 55.1535 34.124C 55.4561 34.7291 56.0959 35.2105 57.3686 36.1869C 59.4324 37.7203 59.8726 37.5622 60.2648 38.3598C 60.8633 39.5632 59.9208 40.2027 60.5055 41.9562C 60.6018 42.245 61.1935 43.9572 62.4111 44.1635C 62.677 44.206 62.9491 44.1871 63.2066 44.1085C 63.4641 44.0298 63.7003 43.8934 63.897 43.7097C 65.2729 42.3344 62.8239 38.9375 62.3698 33.3951C 62.2495 32.0707 62.2495 30.7381 62.3698 29.4137C 64.8533 25.4116 65.8095 22.8055 66.1466 21.1276C 66.3261 19.9246 66.7549 18.7723 67.4055 17.7445C 68.1828 16.5892 68.6988 16.5686 69.3455 15.2896C 69.5327 14.8186 69.856 14.414 70.2741 14.1275C 70.6303 13.9193 71.0383 13.8168 71.4505 13.8318C 71.6871 13.445 71.883 13.0348 72.0352 12.6078C 72.3953 11.7676 72.5167 10.8444 72.3861 9.93976C 72.3861 9.80911 71.9045 7.62242 70.1778 7.18921C 69.8077 7.11596 69.4266 7.11716 69.0569 7.19272C 68.6872 7.26828 68.3363 7.4167 68.0246 7.62931C 67.4313 8.03363 66.7337 8.25806 66.0159 8.27567C 64.2685 8.27567 62.5762 6.90039 61.6956 4.83748C 61.0077 4.46616 60.0584 4.14985 59.3154 4.52117C 58.7032 4.83061 58.7307 5.36009 58.084 5.84831C 57.2103 6.49469 55.6763 6.65285 54.9952 5.97896C 54.3142 5.30508 55.2085 4.12236 54.4105 2.32074C 54.0435 1.45667 53.3799 0.751934 52.5393 0.333461C 52.271 0.209686 51.3079 -0.230409 50.7369 0.154668C 50.049 0.629139 50.0146 2.30012 50.9364 4.21175C 49.9374 4.15798 48.9361 4.15798 47.937 4.21175C 45.9971 4.31489 45.0133 4.38366 44.3736 4.89939C 42.8395 6.08212 42.5575 9.15586 43.6306 10.0085C 44.7038 10.8612 46.7676 8.77079 48.2535 9.75411C 49.3611 10.483 48.6181 11.9064 49.9527 14.1481C 51.0465 15.9841 51.9133 15.654 52.67 17.2562C 53.2341 18.4596 52.9383 19.051 52.959 22.551C 52.9796 26.0511 53.2823 27.3645 53.069 27.4195C 52.8557 27.4745 51.3698 24.7171 51.59 21.6227C 51.7 20.103 52.1266 19.5598 51.8376 18.2946C 51.4947 17.0401 50.7743 15.9215 49.7738 15.0902C 48.4021 13.813 46.684 12.9686 44.8345 12.6628C 44.4451 12.9476 44.1581 13.3503 44.0159 13.8112C 43.5893 15.3515 45.4536 16.4654 45.0684 17.6276C 44.6831 18.7897 42.468 19.3742 41.3467 18.6521C 40.6588 18.2258 40.528 17.3938 39.9227 17.3938C 39.7488 17.4055 39.5818 17.4659 39.4407 17.5681C 39.2996 17.6702 39.1901 17.81 39.1246 17.9714C 39.0402 18.3337 39.0898 18.7144 39.2643 19.0431C 39.4388 19.3717 39.7264 19.6261 40.074 19.7592C 34.6531 19.161 33.064 18.1089 32.8783 17.1118C 32.7407 16.3829 33.408 15.9497 33.2085 15.0489C 32.9058 13.5774 30.9796 13.3848 29.5212 12.0921C 27.3955 10.2079 28.3723 7.88374 27.1271 5.41512C 24.7056 0.60165 16.5949 0.53287 13.3685 0.477859C 9.1928 0.409095 4.85197 1.36493 4.56304 3.07027C 4.43922 3.81292 5.10654 4.56243 4.68002 5.20881C 4.2535 5.85519 3.10462 5.59389 2.1484 6.04773C -0.19744 7.08606 -0.885369 12.4909 1.4192 14.1894Z"/>
<path id="path5_stroke_2x" d="M 1.4192 14.1894L 2.61556 12.5866L 2.60576 12.5794L 1.4192 14.1894ZM 5.39545 15.3102L 6.30807 13.5306L 6.28263 13.5175L 6.25683 13.5052L 5.39545 15.3102ZM 8.55303 17.5794L 7.15726 19.0118L 7.18321 19.0371L 7.21007 19.0615L 8.55303 17.5794ZM 11.4492 19.9174L 10.9672 21.8584L 10.9936 21.865L 11.0202 21.8708L 11.4492 19.9174ZM 13.8914 19.718L 15.8816 19.915L 16.2056 16.6431L 13.1511 17.86L 13.8914 19.718ZM 11.6143 23.3487L 12.6061 25.0855L 12.6326 25.0704L 12.6586 25.0544L 11.6143 23.3487ZM 6.75754 23.7613L 5.90712 25.5715L 5.98849 25.6097L 6.07296 25.6405L 6.75754 23.7613ZM 1.86637 24.1464L 3.49017 25.314L 3.4936 25.3092L 1.86637 24.1464ZM 2.82949 27.8046L 4.31311 26.4634L 4.28983 26.4376L 4.26567 26.4127L 2.82949 27.8046ZM 6.6131 29.8056L 7.15439 27.8803L 7.02249 27.8432L 6.88677 27.8244L 6.6131 29.8056ZM 10.7957 30.9815L 10.2544 32.9068L 10.729 33.0403L 11.2113 32.9378L 10.7957 30.9815ZM 20.8739 31.4903L 21.5032 29.5919L 21.4938 29.5888L 21.4845 29.5858L 20.8739 31.4903ZM 31.0484 38.9099L 32.6656 37.7333L 32.6637 37.7306L 31.0484 38.9099ZM 32.7407 40.4021L 32.328 42.3592L 32.3411 42.3618L 32.7407 40.4021ZM 37.7213 36.1869L 36.3607 34.721L 36.1685 34.8994L 36.0288 35.1213L 37.7213 36.1869ZM 41.615 33.4364L 40.6893 31.6635L 40.6881 31.6641L 41.615 33.4364ZM 44.7451 32.1642L 45.9447 30.564L 45.1378 29.959L 44.1716 30.2482L 44.7451 32.1642ZM 51.4937 33.402L 52.8711 34.8521L 52.8769 34.8465L 52.8828 34.8409L 51.4937 33.402ZM 52.099 30.2457L 53.6215 28.9488L 53.6199 28.9469L 52.099 30.2457ZM 50.2967 29.3862L 48.5224 30.3092L 48.5658 30.3926L 48.6168 30.4715L 50.2967 29.3862ZM 50.3723 27.784L 48.8002 26.5476L 48.7431 26.6202L 48.693 26.6978L 50.3723 27.784ZM 52.8145 27.0963L 52.1187 28.9714L 52.153 28.9841L 52.1878 28.9956L 52.8145 27.0963ZM 54.8439 30.0807L 56.7876 29.6097L 56.7859 29.6025L 56.7841 29.5954L 54.8439 30.0807ZM 55.1535 34.124L 56.9422 33.2293L 55.1535 34.124ZM 57.3686 36.1869L 56.1511 37.7737L 56.1634 37.7831L 56.1758 37.7923L 57.3686 36.1869ZM 60.2648 38.3598L 58.4699 39.2422L 58.474 39.2505L 60.2648 38.3598ZM 60.5055 41.9562L 62.4028 41.3235L 60.5055 41.9562ZM 62.4111 44.1635L 62.077 46.1354L 62.0864 46.137L 62.0958 46.1385L 62.4111 44.1635ZM 63.897 43.7097L 65.2622 45.1713L 65.2869 45.1482L 65.3109 45.1242L 63.897 43.7097ZM 62.3698 33.3951L 64.3632 33.2318L 64.3624 33.2229L 64.3616 33.2141L 62.3698 33.3951ZM 62.3698 29.4137L 60.6704 28.3591L 60.4209 28.7613L 60.378 29.2326L 62.3698 29.4137ZM 66.1466 21.1276L 68.1074 21.5216L 68.1173 21.4724L 68.1247 21.4229L 66.1466 21.1276ZM 67.4055 17.7445L 65.7462 16.6279L 65.7305 16.6512L 65.7155 16.6748L 67.4055 17.7445ZM 69.3455 15.2896L 71.1303 16.192L 71.1708 16.1118L 71.204 16.0284L 69.3455 15.2896ZM 70.2741 14.1275L 69.265 12.4008L 69.2029 12.437L 69.1436 12.4777L 70.2741 14.1275ZM 71.4505 13.8318L 71.3778 15.8305L 72.5465 15.873L 73.1567 14.8754L 71.4505 13.8318ZM 72.0352 12.6078L 70.197 11.8199L 70.1723 11.8774L 70.1513 11.9363L 72.0352 12.6078ZM 72.3861 9.93976L 70.3861 9.93976L 70.3861 10.0834L 70.4066 10.2256L 72.3861 9.93976ZM 70.1778 7.18921L 70.6645 5.24933L 70.6156 5.23705L 70.5661 5.22726L 70.1778 7.18921ZM 68.0246 7.62931L 69.1508 9.28207L 69.1516 9.28153L 68.0246 7.62931ZM 66.0159 8.27567L 66.0159 10.2757L 66.0404 10.2757L 66.0649 10.2751L 66.0159 8.27567ZM 61.6956 4.83748L 63.5351 4.05232L 63.2607 3.40949L 62.6456 3.0775L 61.6956 4.83748ZM 59.3154 4.52117L 58.4213 2.73215L 58.4133 2.73619L 59.3154 4.52117ZM 58.084 5.84831L 59.2735 7.45611L 59.2813 7.45033L 59.2891 7.44447L 58.084 5.84831ZM 54.4105 2.32074L 52.5696 3.10257L 52.5756 3.11669L 52.5818 3.13072L 54.4105 2.32074ZM 52.5393 0.333461L 53.4306 -1.45696L 53.404 -1.47017L 53.3771 -1.48259L 52.5393 0.333461ZM 50.7369 0.154668L 49.6186 -1.50348L 49.61 -1.49764L 49.6014 -1.49172L 50.7369 0.154668ZM 50.9364 4.21175L 50.829 6.20886L 54.2076 6.39068L 52.7379 3.34304L 50.9364 4.21175ZM 47.937 4.21175L 48.0432 6.20893L 48.0445 6.20886L 47.937 4.21175ZM 44.3736 4.89939L 45.5947 6.4833L 45.6119 6.47007L 45.6287 6.45647L 44.3736 4.89939ZM 48.2535 9.75411L 47.1498 11.422L 47.154 11.4248L 48.2535 9.75411ZM 49.9527 14.1481L 48.2342 15.1712L 48.2345 15.1717L 49.9527 14.1481ZM 52.67 17.2562L 54.4809 16.4073L 54.4784 16.4021L 52.67 17.2562ZM 51.59 21.6227L 49.5952 21.4782L 49.595 21.4808L 51.59 21.6227ZM 51.8376 18.2946L 53.7874 17.8493L 53.778 17.808L 53.7668 17.7672L 51.8376 18.2946ZM 49.7738 15.0902L 48.4109 16.5539L 48.4522 16.5923L 48.4956 16.6284L 49.7738 15.0902ZM 44.8345 12.6628L 45.1608 10.6896L 44.3318 10.5525L 43.6537 11.0486L 44.8345 12.6628ZM 44.0159 13.8112L 42.1048 13.2215L 42.0962 13.2493L 42.0884 13.2774L 44.0159 13.8112ZM 41.3467 18.6521L 42.4294 16.9706L 42.4149 16.9612L 42.4002 16.9521L 41.3467 18.6521ZM 39.9227 17.3938L 39.9227 15.3938L 39.8551 15.3938L 39.7876 15.3983L 39.9227 17.3938ZM 39.1246 17.9714L 37.2711 17.2201L 37.2124 17.365L 37.1769 17.5173L 39.1246 17.9714ZM 40.074 19.7592L 39.8546 21.7472L 40.7894 17.8916L 40.074 19.7592ZM 32.8783 17.1118L 34.8445 16.7456L 34.8436 16.7409L 32.8783 17.1118ZM 33.2085 15.0489L 31.2495 15.4519L 31.2525 15.4666L 31.2558 15.4814L 33.2085 15.0489ZM 29.5212 12.0921L 30.8478 10.5954L 30.8478 10.5954L 29.5212 12.0921ZM 27.1271 5.41512L 25.3405 6.31393L 25.3414 6.31581L 27.1271 5.41512ZM 13.3685 0.477859L 13.4026 -1.52185L 13.4015 -1.52187L 13.3685 0.477859ZM 4.56304 3.07027L 2.59114 2.73617L 2.59028 2.74133L 4.56304 3.07027ZM 2.1484 6.04773L 2.9579 7.87659L 2.98207 7.86589L 3.00595 7.85455L 2.1484 6.04773ZM 0.222856 15.7921C 1.26583 16.4645 2.26331 16.6052 2.82363 16.6565C 3.39687 16.7085 3.77843 16.724 4.53408 17.1152L 6.25683 13.5052C 4.87989 12.8787 3.80303 12.7292 3.18614 12.6729C 2.55633 12.6159 2.63198 12.705 2.61554 12.5866L 0.222856 15.7921ZM 4.48284 17.0899C 5.5125 17.6116 6.33453 18.2024 7.15726 19.0118L 9.9488 16.147C 8.90465 15.1374 7.59811 14.1984 6.30807 13.5306L 4.48284 17.0899ZM 7.21007 19.0615C 7.8595 19.6451 8.28861 20.1421 8.75685 20.5922C 9.26925 21.0738 10.064 21.5988 10.9672 21.8584L 11.9313 17.9764C 11.7269 17.9609 11.8096 17.984 11.5189 17.6989C 11.1839 17.3822 10.7187 16.8478 9.89599 16.0974L 7.21007 19.0615ZM 11.0202 21.8708C 12.1303 22.092 13.5722 21.9743 14.6316 21.5759L 13.1511 17.86C 12.659 18.0799 12.3995 18.1011 11.8782 17.9639L 11.0202 21.8708ZM 11.9011 19.5209C 11.8638 20.033 11.769 20.3101 11.485 20.738L 14.8737 22.8632C 15.3798 22.0312 15.7725 20.8827 15.8816 19.915L 11.9011 19.5209ZM 11.485 20.738C 11.2235 21.18 11.015 21.3861 10.5701 21.643L 12.6586 25.0544C 13.4822 24.5347 14.3451 23.6811 14.8737 22.8632L 11.485 20.738ZM 10.6225 21.6119C 10.0856 21.9321 9.68611 22.0565 9.06218 22.0977L 9.40076 26.0833C 10.4544 25.982 11.6812 25.6001 12.6061 25.0855L 10.6225 21.6119ZM 9.06218 22.0977C 8.44023 22.1623 8.02546 22.1071 7.44213 21.8821L 6.07296 25.6405C 7.07145 25.9917 8.34515 26.1612 9.40076 26.0833L 9.06218 22.0977ZM 7.60797 21.9511C 6.30539 21.3624 4.72861 21.1206 3.60166 21.2219C 2.40665 21.3464 1.05569 21.8409 0.239136 22.9836L 3.4936 25.3092C 3.39937 25.441 3.4621 25.2581 4.01615 25.2004C 4.50794 25.1492 5.18577 25.2326 5.90712 25.5715L 7.60797 21.9511ZM 0.242573 22.9788C -0.913844 24.587 -0.28692 26.3953 0.0956032 27.2253C 0.531968 28.172 1.14537 28.9407 1.3933 29.1965L 4.26567 26.4127C 4.31424 26.4628 4.23655 26.3833 4.09594 26.1817C 3.95153 25.9759 3.83953 25.8013 3.7283 25.5509C 3.61914 25.3141 3.58569 25.16 3.58074 25.0941C 3.57778 25.0548 3.59072 25.1741 3.49016 25.314L 0.242573 22.9788ZM 1.34587 29.1458C 2.58793 30.4744 4.542 31.5078 6.33944 31.7868L 6.88677 27.8244C 5.76933 27.7008 5.04391 27.3171 4.31311 26.4634L 1.34587 29.1458ZM 6.07182 31.731L 10.2544 32.9068L 11.337 29.0561L 7.15439 27.8803L 6.07182 31.731ZM 11.2113 32.9378C 14.3008 32.2642 17.2575 32.4135 20.2633 33.3949L 21.4845 29.5858C 17.975 28.4784 13.9833 28.2768 10.3801 29.0252L 11.2113 32.9378ZM 20.2446 33.3888C 24.0411 34.622 27.0993 36.8521 29.4331 40.0893L 32.6637 37.7306C 29.9269 34.0229 25.8708 31.065 21.5032 29.5919L 20.2446 33.3888ZM 29.4311 40.0866C 29.5543 40.2537 29.8264 40.6767 30.2215 41.1163C 30.6153 41.5303 31.4674 42.1276 32.3281 42.3591L 33.1533 38.4452C 33.2678 38.4693 33.2718 38.523 33.1548 38.3969C 33.0812 38.3207 33.0399 38.2635 32.9527 38.1417C 32.8681 38.0246 32.7726 37.8811 32.6656 37.7333L 29.4311 40.0866ZM 32.3411 42.3618C 34.2488 42.7508 35.825 41.569 36.7547 40.674C 37.7422 39.7117 38.7044 38.3775 39.4137 37.2526L 36.0288 35.1213C 35.383 36.1486 34.7148 37.0974 33.9807 37.7923C 33.1889 38.5545 32.9524 38.4042 33.1403 38.4425L 32.3411 42.3618ZM 39.0819 37.6528C 40.1511 36.6543 41.2433 35.8828 42.5419 35.2086L 40.6881 31.6641C 39.1578 32.4694 37.631 33.548 36.3607 34.721L 39.0819 37.6528ZM 42.5407 35.2092C 43.4559 34.7288 44.3277 34.3744 45.3186 34.0802L 44.1716 30.2482C 42.9996 30.6014 41.7752 31.099 40.6893 31.6635L 42.5407 35.2092ZM 43.5454 33.7645C 45.1174 34.943 46.7846 35.7092 48.3531 35.9726C 49.8778 36.2286 51.6187 36.0417 52.8711 34.8521L 50.1163 31.9519C 50.0393 32.0565 50.1239 32.0067 49.8875 32.0408C 49.6139 32.1094 49.4412 32.1066 49.0155 32.0278C 48.209 31.8924 47.1244 31.4483 45.9447 30.564L 43.5454 33.7645ZM 52.8828 34.8409C 53.6407 34.1091 54.0935 33.0962 54.2789 32.1965C 54.4435 31.3978 54.5269 30.0116 53.6215 28.9488L 50.5766 31.5426C 50.4851 31.4353 50.4363 31.3365 50.4117 31.2734C 50.3876 31.2114 50.3832 31.1745 50.383 31.1735C 50.3828 31.1717 50.3852 31.1909 50.3829 31.2323C 50.3805 31.3013 50.3795 31.3063 50.3612 31.3893C 50.3343 31.5197 50.2866 31.6568 50.2265 31.7757C 50.1889 31.8527 50.1869 31.8567 50.1451 31.9128C 50.1262 31.9401 50.1341 31.9299 50.1161 31.9504C 50.1077 31.9604 50.1154 31.9518 50.1076 31.96C 50.1003 31.968 50.098 31.9692 50.1046 31.9631L 52.8828 34.8409ZM 53.6199 28.9469C 53.2112 28.4683 52.7299 28.217 52.3356 28.0789C 51.9946 27.9594 51.6384 27.9033 51.5384 27.8849C 51.165 27.8164 51.6765 27.8364 51.9765 28.3008L 48.6168 30.4715C 49.3434 31.5961 50.5153 31.7639 50.8161 31.8192C 51.0033 31.8534 51.0042 31.8589 51.0129 31.8538C 50.935 31.8266 50.7461 31.7412 50.5782 31.5446L 53.6199 28.9469ZM 52.0709 28.4631C 52.1039 28.5264 52.1195 28.5976 52.1162 28.6692L 48.1206 28.4805C 48.1122 29.0253 48.2865 29.8183 48.5224 30.3092L 52.0709 28.4631ZM 52.1162 28.6692C 52.1128 28.7408 52.0905 28.8101 52.0517 28.8701L 48.693 26.6978C 48.4118 27.1643 48.1636 27.9375 48.1206 28.4805L 52.1162 28.6692ZM 51.9444 29.0203C 52.0128 28.8933 51.8796 28.9823 52.0234 28.9676L 50.9393 25.1173C 50.2052 25.3497 49.2954 25.958 48.8002 26.5476L 51.9444 29.0203ZM 52.0234 28.9676C 52.1538 28.9052 51.9939 28.8987 52.1187 28.9714L 53.5102 25.2212C 52.7801 24.9767 51.6866 24.9325 50.9393 25.1173L 52.0234 28.9676ZM 52.1878 28.9956C 52.159 28.9861 52.3075 29.0275 52.5227 29.4519C 52.7426 29.856 52.8299 30.2709 52.9036 30.5659L 56.7841 29.5954C 56.7134 29.3129 56.4946 28.4694 56.0901 27.6426C 55.6811 26.8361 54.887 25.6741 53.4412 25.197L 52.1878 28.9956ZM 52.9001 30.5517C 53.0872 31.1744 53.0076 31.4936 52.9369 32.1091C 52.8657 32.7319 52.849 33.8213 53.3647 35.0187L 56.9422 33.2293C 56.7769 33.0652 56.8462 33.1266 56.9108 32.5649C 56.9759 31.996 57.0821 30.9743 56.7876 29.6097L 52.9001 30.5517ZM 53.3647 35.0187C 53.642 35.5379 54.1168 36.1029 54.5666 36.5093C 54.9816 36.8772 55.5173 37.2874 56.1511 37.7737L 58.586 34.6001C 57.9472 34.11 57.5266 33.7913 57.2279 33.5231C 56.9641 33.2935 56.9167 33.1433 56.9422 33.2293L 53.3647 35.0187ZM 56.1758 37.7923C 57.3201 38.6368 58.028 39.0304 58.4097 39.2614C 58.5849 39.3667 58.5624 39.3625 58.5651 39.3547C 58.5673 39.369 58.4529 39.1914 58.4699 39.2422L 62.0596 37.4775C 61.6159 36.6936 60.9885 36.1495 60.4774 35.8372C 60.025 35.5645 59.4808 35.2705 58.5614 34.5815L 56.1758 37.7923ZM 58.474 39.2505C 58.5222 39.3084 58.4795 39.1432 58.473 39.2214C 58.4836 39.2852 58.4626 39.3508 58.4172 39.6249C 58.327 40.1699 58.2207 41.2527 58.6082 42.5889L 62.4028 41.3235C 62.2056 40.9062 62.2782 40.7925 62.3634 40.2786C 62.4477 39.7692 62.5449 38.6854 62.0555 37.4692L 58.474 39.2505ZM 58.6082 42.5889C 58.6593 42.7421 58.9241 43.4694 59.3511 44.1655C 59.7559 44.8009 60.6151 45.8877 62.077 46.1354L 62.7452 42.1916C 62.8766 42.2139 62.9327 42.2689 62.9088 42.2485C 62.8782 42.2225 62.8111 42.1519 62.7246 42.0161C 62.5466 41.7369 62.4362 41.4236 62.4028 41.3235L 58.6082 42.5889ZM 62.0958 46.1385C 62.5878 46.204 63.3126 46.1538 63.7908 46.0212L 62.6224 42.1957C 62.656 42.1854 62.6916 42.183 62.7265 42.1885L 62.0958 46.1385ZM 63.7908 46.0212C 64.2615 45.864 64.8907 45.5006 65.2622 45.1713L 62.5319 42.248C 62.5578 42.2238 62.5888 42.206 62.6224 42.1957L 63.7908 46.0212ZM 65.3109 45.1242C 66.2368 44.1987 66.3612 43.0354 66.2975 42.1532C 66.2324 41.3708 65.9958 40.4389 65.7405 39.558C 65.2344 37.8136 64.5578 35.7731 64.3632 33.2318L 60.3765 33.5584C 60.6359 36.5595 61.4108 38.9886 61.8988 40.6721C 62.1405 41.5052 62.2866 42.0268 62.3079 42.4412C 62.3306 42.756 62.2451 42.533 62.4831 42.2952L 65.3109 45.1242ZM 64.3616 33.2141C 64.2474 31.9801 64.2474 30.8287 64.3616 29.5947L 60.378 29.2326C 60.2515 30.6475 60.2515 32.1613 60.378 33.5761L 64.3616 33.2141ZM 64.0692 30.4682C 66.6269 26.3465 67.7072 23.5133 68.1074 21.5216L 64.1857 20.7337C 63.9117 22.0977 63.0796 24.4767 60.6704 28.3591L 64.0692 30.4682ZM 68.1247 21.4229C 68.2628 20.4237 68.5468 19.6607 69.0954 18.8141L 65.7155 16.6748C 64.963 17.884 64.3894 19.4255 64.1685 20.8324L 68.1247 21.4229ZM 69.0648 18.861C 69.3075 18.4745 69.5006 18.3176 69.8443 17.972C 70.1872 17.6255 70.674 17.0567 71.1303 16.192L 67.5606 14.3872C 67.3703 14.8015 67.2758 14.8825 67.0047 15.1549C 66.7344 15.4282 66.2809 15.8592 65.7462 16.6279L 69.0648 18.861ZM 71.204 16.0284C 71.262 15.8232 71.2173 15.8792 71.4047 15.7773L 69.1436 12.4777C 68.4946 12.9489 67.8033 13.814 67.4869 14.5508L 71.204 16.0284ZM 71.2833 15.8542C 71.3861 15.771 71.2477 15.8058 71.3778 15.8305L 71.5233 11.8331C 70.8288 11.8278 69.8744 12.0677 69.265 12.4008L 71.2833 15.8542ZM 73.1567 14.8754C 73.4448 14.3991 73.7298 13.8027 73.9191 13.2793L 70.1513 11.9363C 70.0363 12.267 69.9293 12.4909 69.7444 12.7882L 73.1567 14.8754ZM 73.8735 13.3957C 74.324 12.2969 74.5167 10.8318 74.3656 9.65391L 70.4066 10.2256C 70.5168 10.8571 70.4666 11.2383 70.197 11.8199L 73.8735 13.3957ZM 74.3861 9.93976C 74.3861 9.66159 74.32 9.39267 74.3128 9.36069C 74.2887 9.2553 74.2423 9.07889 74.1923 8.91768C 74.1011 8.62974 73.9141 8.14968 73.6857 7.72112C 73.2212 6.86844 72.2988 5.65935 70.6645 5.24933L 69.6911 9.12909C 69.7836 9.15228 69.9653 9.25315 70.1732 9.63477C 70.2811 9.82337 70.3224 9.94156 70.3754 10.1139C 70.3976 10.1828 70.4023 10.2021 70.4113 10.243C 70.4138 10.2531 70.4076 10.2225 70.4084 10.2263C 70.4067 10.2165 70.403 10.1936 70.3991 10.1614C 70.3972 10.1457 70.3861 10.0573 70.3861 9.93976L 74.3861 9.93976ZM 70.5661 5.22726C 69.9996 5.12519 69.2222 5.12763 68.6564 5.23323L 69.4574 9.15221C 69.631 9.10669 69.6157 9.10673 69.7896 9.15117L 70.5661 5.22726ZM 68.6564 5.23323C 68.0945 5.35812 67.3785 5.66094 66.8976 5.97709L 69.1516 9.28153C 69.294 9.17246 69.2799 9.17844 69.4574 9.15221L 68.6564 5.23323ZM 66.8984 5.97655C 66.5528 6.23687 66.3995 6.28619 65.9668 6.27627L 66.0649 10.2751C 67.068 10.2299 68.3097 9.83039 69.1508 9.28207L 66.8984 5.97655ZM 66.0159 6.27567C 65.3411 6.27567 64.2236 5.66531 63.5351 4.05232L 59.8562 5.62264C 60.9288 8.13548 63.1959 10.2757 66.0159 10.2757L 66.0159 6.27567ZM 62.6456 3.0775C 62.2149 2.84771 61.5194 2.56497 60.8995 2.43599C 60.2205 2.30697 59.3138 2.28612 58.4213 2.73217L 60.2095 6.31018C 60.06 6.3849 59.9995 6.33655 60.1528 6.36568C 60.3031 6.39423 60.5138 6.47232 60.7456 6.59746L 62.6456 3.0775ZM 58.4133 2.73619C 57.6981 3.16571 57.2035 3.76955 57.0345 4.02954C 56.8686 4.28583 56.9241 4.26252 56.8789 4.25215L 59.2891 7.44447C 59.8905 6.94587 60.2556 6.41372 60.3907 6.20585C 60.5072 6.02614 60.4125 6.20762 60.2176 6.30615L 58.4133 2.73619ZM 56.8945 4.24051C 56.864 4.26304 56.7927 4.30556 56.6792 4.34453C 56.5678 4.38279 56.4491 4.40598 56.3427 4.41263C 56.2911 4.41585 56.2491 4.41476 56.218 4.41201C 56.1866 4.40922 56.1725 4.40529 56.174 4.40571C 56.1754 4.4061 56.1997 4.41285 56.2396 4.43445C 56.2804 4.45651 56.339 4.49504 56.4019 4.55729L 53.5885 7.40064C 54.5018 8.30437 55.7329 8.45852 56.5921 8.40484C 57.4277 8.33572 58.5702 7.94574 59.2735 7.45611L 56.8945 4.24051ZM 56.4019 4.55729C 56.6514 4.80414 56.7096 5.08878 56.7179 5.16883C 56.7316 5.21317 56.7217 5.02488 56.7426 4.7004C 56.7831 4.06373 56.7726 2.83922 56.2391 1.51077L 52.5818 3.13072C 52.8464 3.60388 52.7877 3.87154 52.7508 4.4451C 52.7329 4.72574 52.7044 5.16076 52.7395 5.58401C 52.8032 6.0547 53.1384 6.88548 53.5885 7.40064L 56.4019 4.55729ZM 56.2513 1.53892C 55.7181 0.363172 54.5722 -0.853832 53.4306 -1.45696L 51.648 2.12388C 52.1876 2.3577 52.3689 2.55016 52.5696 3.10257L 56.2513 1.53892ZM 53.3771 -1.48259C 53.2404 -1.54566 52.7355 -1.76483 52.1884 -1.89848C 51.7069 -2.00623 50.6149 -2.17534 49.6186 -1.50348L 51.8552 1.81282C 51.6276 1.96627 51.4242 1.99397 51.3468 1.99882C 51.2746 2.00335 51.2586 1.99239 51.3148 2.00497C 51.3643 2.01605 51.4305 2.03652 51.5071 2.06595C 51.5854 2.09497 51.6362 2.1194 51.7015 2.14952L 53.3771 -1.48259ZM 49.6014 -1.49172C 48.3897 -0.655976 48.2078 0.798658 48.2338 1.70191C 48.2721 2.63109 48.5941 3.93435 49.135 5.08046L 52.7379 3.34304C 52.3718 2.58382 52.2431 1.96449 52.2322 1.58663C 52.2203 1.38442 52.2744 1.29802 52.243 1.36008C 52.2345 1.38532 52.1538 1.607 51.8724 1.80105L 49.6014 -1.49172ZM 51.0439 2.21464C 49.9911 2.15871 48.8823 2.15871 47.8296 2.21464L 48.0445 6.20886C 48.9899 6.15726 49.8836 6.15726 50.829 6.20886L 51.0439 2.21464ZM 47.8308 2.21457C 46.8553 2.26645 46.013 2.31878 45.3395 2.42796C 44.6105 2.54922 43.819 2.77753 43.1184 3.3423L 45.6287 6.45647C 45.5842 6.5279 45.6042 6.43062 45.9959 6.37374C 46.4592 6.29382 47.0788 6.26019 48.0432 6.20893L 47.8308 2.21457ZM 43.1524 3.31547C 41.8159 4.34585 41.2069 5.99558 41.0399 7.32916C 40.9623 7.99933 40.9954 8.85564 41.1315 9.47552C 41.2897 10.1467 41.6374 10.9793 42.3865 11.5744L 44.8748 8.44263C 45.0873 8.61146 45.0678 8.74005 45.0249 8.55814C 44.9889 8.40516 44.9685 8.14852 45.0089 7.8263C 45.0981 7.11416 45.3971 6.63566 45.5947 6.4833L 43.1524 3.31547ZM 42.3865 11.5744C 43.2862 12.2893 44.2915 12.2677 44.9226 12.1635C 45.4782 12.0624 46.0489 11.8599 46.4491 11.7196C 46.8501 11.5789 47.0577 11.4984 47.2657 11.4878C 47.4488 11.4544 47.118 11.4624 47.1498 11.422L 49.3572 8.08624C 48.5825 7.63495 47.5 7.45472 46.8447 7.51004C 46.2144 7.58826 45.5603 7.79261 45.1254 7.94501C 44.6898 8.09786 44.4504 8.19666 44.2709 8.21694C 44.1668 8.23414 44.5117 8.1541 44.8748 8.44263L 42.3865 11.5744ZM 47.154 11.4248C 46.8689 11.2371 46.9003 10.8311 47.0445 11.7082C 47.1635 12.4325 47.4057 13.7103 48.2342 15.1712L 51.6712 13.125C 51.1652 12.3442 51.1115 11.7894 50.9915 11.0594C 50.8966 10.4822 50.7457 8.99998 49.353 8.08344L 47.154 11.4248ZM 48.2345 15.1717C 49.0047 16.3947 49.768 17.026 50.2125 17.3706C 50.6563 17.7146 50.7286 17.7029 50.8616 18.1104L 54.4784 16.4021C 53.8547 15.2074 53.1152 14.5596 52.663 14.2091C 52.2115 13.8592 51.9946 13.7375 51.6709 13.1245L 48.2345 15.1717ZM 50.8591 18.1051C 51.0375 18.4363 51.0245 18.4537 51.0183 19.0401C 51.0186 19.7099 50.9496 20.7398 50.959 22.5628L 54.9589 22.5392C 54.9477 20.8622 55.0163 19.8464 55.0183 19.0447C 55.0137 18.1595 54.8666 17.2795 54.4809 16.4073L 50.8591 18.1051ZM 50.959 22.5628C 50.9706 24.374 51.0546 25.6381 51.1061 26.4104C 51.1319 26.7963 51.1469 27.0015 51.1447 27.1139C 51.1443 27.1775 51.1374 27.0463 51.1869 26.8496C 51.2075 26.7679 51.4531 25.7709 52.5694 25.4829L 53.5686 29.3561C 54.7382 29.0544 55.021 28.0043 55.0658 27.8266C 55.1118 27.6156 55.1421 27.3078 55.1446 27.1417C 55.1451 26.883 55.1231 26.5308 55.0972 26.144C 55.0456 25.3708 54.9679 24.2281 54.9589 22.5392L 50.959 22.5628ZM 52.5694 25.4829C 53.1271 25.3391 53.5809 25.4749 53.8013 25.5649C 54.0303 25.6584 54.1864 25.7738 54.2598 25.8322C 54.408 25.9501 54.4898 26.0548 54.5003 26.0679C 54.5022 26.0665 54.5148 26.0925 54.4661 26.0023C 54.337 25.7726 54.2091 25.4937 54.0567 25.0472C 53.7221 24.093 53.4749 23.028 53.5849 21.7647L 49.595 21.4808C 49.485 23.3118 49.8706 25.1728 50.2773 26.3571C 50.4954 26.9799 50.7653 27.5734 50.9679 27.942C 51.085 28.1509 51.2508 28.4046 51.3701 28.5584C 51.4552 28.6624 51.6401 28.8532 51.7699 28.9628C 51.8725 29.0402 52.1258 29.1935 52.2894 29.2682C 52.5279 29.3655 52.9976 29.5034 53.5686 29.3561L 52.5694 25.4829ZM 53.5848 21.7672C 53.6184 21.1882 53.7338 20.7708 53.8338 20.2063C 53.9323 19.627 53.9766 18.7787 53.7874 17.8493L 49.8878 18.7398C 49.9876 19.0756 49.9631 19.1316 49.8931 19.5201C 49.8245 19.9235 49.6716 20.5376 49.5952 21.4782L 53.5848 21.7672ZM 53.7668 17.7672C 53.3213 16.2255 52.2715 14.5955 51.052 13.5519L 48.4956 16.6284C 49.277 17.2475 49.6682 17.8548 49.9084 18.8219L 53.7668 17.7672ZM 51.1367 13.6264C 49.5368 12.166 47.2947 11.0641 45.1608 10.6896L 44.5083 14.636C 46.0733 14.8731 47.2675 15.4599 48.4109 16.5539L 51.1367 13.6264ZM 43.6537 11.0486C 43.0223 11.5421 42.3653 12.4637 42.1048 13.2215L 45.927 14.4009C 45.9508 14.237 45.868 14.3531 46.0153 14.277L 43.6537 11.0486ZM 42.0884 13.2774C 41.6217 14.9627 42.4806 16.3306 42.8053 16.8795C 42.9981 17.2052 43.1034 17.3596 43.1433 17.4848C 43.1614 17.5309 43.0665 17.3102 43.17 16.9982L 46.9668 18.2569C 47.2628 17.3638 47.0794 16.5681 46.8696 16.0304C 46.6816 15.5717 46.4198 15.1334 46.248 14.8428C 45.8435 14.1591 45.9835 14.2 45.9433 14.3449L 42.0884 13.2774ZM 43.17 16.9982C 43.2387 16.7909 43.3435 16.7338 43.2916 16.7723C 43.2453 16.8066 43.1336 16.8691 42.9604 16.916C 42.7903 16.9621 42.6253 16.9756 42.5005 16.966C 42.368 16.9558 42.3623 16.9273 42.4294 16.9706L 40.2639 20.3337C 41.4728 21.1121 42.9534 21.0623 44.0068 20.7768C 45.0071 20.5056 46.4616 19.7807 46.9668 18.2569L 43.17 16.9982ZM 42.4002 16.9521C 42.4579 16.9879 42.5032 17.0657 42.2085 16.6695C 42.0579 16.467 41.3298 15.3938 39.9227 15.3938L 39.9227 19.3938C 39.7614 19.3938 39.5915 19.3646 39.4268 19.3029C 39.2666 19.2428 39.1479 19.1655 39.0709 19.1052C 38.9482 19.0092 38.9058 18.9314 38.9989 19.0566C 39.0763 19.1602 39.2178 19.3603 39.4017 19.5785C 39.6062 19.8168 39.8946 20.1052 40.2931 20.3522L 42.4002 16.9521ZM 39.7876 15.3983C 39.3371 15.4484 38.6462 15.6983 38.268 15.948L 40.6134 19.1882C 40.4507 19.306 40.2582 19.3756 40.0577 19.3892L 39.7876 15.3983ZM 38.268 15.948C 37.9128 16.2292 37.4594 16.8076 37.2711 17.2201L 40.9782 18.7226C 40.9025 18.9093 40.776 19.0705 40.6134 19.1882L 38.268 15.948ZM 37.1769 17.5173C 37.0426 18.2343 37.1844 19.3224 37.4979 19.981L 41.0307 18.1051C 41.0828 18.2032 41.0977 18.317 41.0724 18.4254L 37.1769 17.5173ZM 37.4979 19.981C 37.8679 20.6095 38.6896 21.3363 39.3586 21.6269L 40.7894 17.8916C 40.8928 17.9312 40.9786 18.007 41.0307 18.1051L 37.4979 19.981ZM 40.2934 17.7713C 37.6506 17.4797 36.1229 17.093 35.2892 16.7419C 34.405 16.3695 34.7509 16.2436 34.8444 16.7456L 30.9121 17.4781C 31.1913 18.9771 32.4247 19.8758 33.7367 20.4283C 35.0992 21.0021 37.0765 21.4406 39.8546 21.7472L 40.2934 17.7713ZM 34.8436 16.7409C 34.9032 17.0565 34.7419 17.342 34.9238 16.887C 35.0801 16.4958 35.3974 15.6833 35.1612 14.6165L 31.2558 15.4814C 31.219 15.3153 31.3024 15.1698 31.2094 15.4027C 31.1419 15.5717 30.7158 16.4382 30.913 17.4828L 34.8436 16.7409ZM 35.1674 14.646C 34.8233 12.9728 33.52 12.1762 32.7768 11.7592C 31.9887 11.3198 31.3286 11.054 30.8478 10.5954L 28.1945 13.5887C 29.1721 14.4229 30.2043 14.8997 30.8196 15.2477C 31.4798 15.6181 31.2909 15.6534 31.2495 15.4519L 35.1674 14.646ZM 30.8478 10.5954C 30.157 10.0944 30.1266 9.6784 29.9696 8.66172C 29.8056 7.63594 29.6817 6.13229 28.9128 4.51442L 25.3414 6.31581C 25.8177 7.16656 25.828 8.05933 26.0183 9.28384C 26.2156 10.5175 26.7596 12.2057 28.1946 13.5888L 30.8478 10.5954ZM 28.9138 4.5163C 27.2885 1.28551 23.8916 -0.124674 20.9959 -0.787508C 18.0514 -1.44979 15.0097 -1.49444 13.4026 -1.52185L 13.3344 2.47757C 14.9538 2.50517 17.5806 2.52241 20.1034 3.11164C 22.6751 3.70032 24.5443 4.73125 25.3405 6.31393L 28.9138 4.5163ZM 13.4015 -1.52187C 11.1934 -1.55462 8.78619 -1.3011 6.98708 -0.822132C 6.0569 -0.567746 5.07487 -0.172451 4.39515 0.251755C 3.681 0.709006 2.80077 1.4989 2.59115 2.73618L 6.53494 3.40436C 6.46978 3.78897 6.24051 3.81988 6.55201 3.62043C 6.89795 3.38794 7.31629 3.22882 8.0294 3.03968C 9.51687 2.63159 11.368 2.44157 13.3356 2.47759L 13.4015 -1.52187ZM 2.59028 2.74133C 2.5027 3.26655 2.56643 3.72419 2.63106 4.03456C 2.69318 4.31979 2.76773 4.56096 2.80495 4.69979C 2.89922 5.04695 2.69365 4.58777 3.01069 4.1073L 6.34935 6.31033C 7.09291 5.18347 6.76693 4.02634 6.66514 3.65149C 6.60431 3.42931 6.56191 3.30346 6.54706 3.21908C 6.53472 3.15986 6.56147 3.24531 6.53581 3.3992L 2.59028 2.74133ZM 3.01069 4.1073C 3.18725 3.83973 3.41213 3.72564 3.49235 3.69336C 3.53588 3.67584 3.51594 3.6912 3.30277 3.72466C 3.02575 3.76813 2.10377 3.85508 1.29085 4.24091L 3.00595 7.85455C 3.15453 7.74985 3.39904 7.75746 3.92294 7.67629C 4.28166 7.61999 5.58925 7.46225 6.34935 6.31033L 3.01069 4.1073ZM 1.3389 4.21888C 0.203395 4.72148 -0.562921 5.66605 -1.04818 6.5858C -1.49444 7.45517 -1.83551 8.64646 -1.94925 9.66291C -2.15364 11.6167 -1.77677 14.3184 0.232634 15.7994L 2.60576 12.5794C 2.3106 12.3618 1.87915 11.5119 2.02904 10.0791C 2.09244 9.40223 2.21917 8.94147 2.48964 8.45232C 2.72112 8.01356 2.92049 7.89315 2.9579 7.87659L 1.3389 4.21888Z"/>
</defs>
</svg>
